SplineFontDB: 3.2
FontName: FunkySample
FullName: FunkySample
FamilyName: FunkySample
Weight: Regular
Copyright: Copyright (c) 2021 Mikhail Merkuryev\nYou just DO WHAT THE FUNK YOU WANT TO.
UComments: "2021-9-15: Created with FontForge (http://fontforge.org)"
Version: 001.000
ItalicAngle: 0
UnderlinePosition: -125
UnderlineWidth: 50
Ascent: 800
Descent: 200
InvalidEm: 0
LayerCount: 2
Layer: 0 1 "+BBcEMAQ0BD0EOAQ5 +BD8EOwQwBD0A" 1
Layer: 1 1 "+BB8ENQRABDUENAQ9BDgEOQAA +BD8EOwQwBD0A" 0
XUID: [1021 59 1751208496 15025]
FSType: 0
OS2Version: 0
OS2_WeightWidthSlopeOnly: 0
OS2_UseTypoMetrics: 0
CreationTime: 1631732133
ModificationTime: 1637921017
PfmFamily: 33
TTFWeight: 400
TTFWidth: 5
LineGap: 0
VLineGap: 0
OS2TypoAscent: 0
OS2TypoAOffset: 1
OS2TypoDescent: 0
OS2TypoDOffset: 1
OS2TypoLinegap: 0
OS2WinAscent: 0
OS2WinAOffset: 1
OS2WinDescent: 0
OS2WinDOffset: 1
HheadAscent: 0
HheadAOffset: 1
HheadDescent: 0
HheadDOffset: 1
OS2Vendor: 'PfEd'
OS2UnicodeRanges: 28002000.0200e080.00000008.00000000
Lookup: 4 0 1 "Umlaut RLIG" { "Umlaut RLIG-1"  } ['rlig' ('DFLT' <'dflt' > ) ]
Lookup: 4 0 1 "Diak RLIG" { "Diak RLIG-1"  } ['rlig' ('DFLT' <'dflt' > 'diak' <'dflt' > ) ]
Lookup: 4 0 0 "Nand RLIG" { "Nand RLIG-1"  } ['rlig' ('DFLT' <'dflt' > 'arab' <'dflt' > 'nand' <'dflt' > ) ]
Lookup: 258 0 0 "Toto KERN" { "Toto KERN-1" [150,15,0] } ['kern' ('DFLT' <'dflt' > 'toto' <'dflt' > ) ]
Lookup: 258 0 0 "'kern' Nand1" { "'kern' Nand1-1" [150,15,0] "'kern' Nand1-2" [150,15,0] "'kern' Nand1-3" [150,15,0] } ['kern' ('DFLT' <'dflt' > 'arab' <'dflt' > 'nand' <'dflt' > ) ]
Lookup: 260 0 0 "'blwm' Nand1" { "'blwm' Nand1-1"  } ['blwm' ('DFLT' <'dflt' > 'arab' <'dflt' > 'nand' <'dflt' > ) ]
Lookup: 257 1 0 "Single Positioning in 'Chrs' lookup 0" { "Chrs"  } ['Chrs' ('Chrs' <'dflt' > ) ]
MarkAttachClasses: 1
DEI: 91125
ShortTable: maxp 16
  0
  0
  0
  0
  0
  0
  0
  2
  1
  2
  22
  0
  256
  0
  0
  0
EndShort
TtTable: prep
PUSHW_1
 511
SCANCTRL
PUSHB_1
 1
SCANTYPE
SVTCA[y-axis]
MPPEM
PUSHB_1

StartChar: u10FB0
Encoding: 69552 69552 0
Width: 948
Flags: W
LayerCount: 2
Fore
SplineSet
776.728515625 453.470703125 m 128,-1,1
 797.178445214 456.743160609 797.178445214 456.743160609 813.952990412 444.596566682 c 128,-1,2
 830.727535609 432.449972755 830.727535609 432.449972755 834 412 c 0,3,4
 847.510152411 327.576922614 847.510152411 327.576922614 917.705078125 175.736328125 c 0,5,6
 929.631826882 150.880145825 929.631826882 150.880145825 914.978765704 127.527231144 c 128,-1,7
 900.325704526 104.174316463 900.325704526 104.174316463 872.755859375 104.099609375 c 2,8,-1
 80.755859375 102.099609375 l 2,9,10
 60.0452344582 102.046875174 60.0452344582 102.046875174 45.3634376287 116.654384811 c 128,-1,11
 30.6816407993 131.261894447 30.6816407993 131.261894447 30.62890625 151.97265625 c 128,-1,12
 30.576171621 172.683449374 30.576171621 172.683449374 45.1837655746 187.365528524 c 128,-1,13
 59.7913595281 202.047607673 59.7913595281 202.047607673 80.501953125 202.099609375 c 2,14,-1
 795.5078125 203.904296875 l 1,15,16
 747.79350511 317.855281425 747.79350511 317.855281425 735.2578125 396.19921875 c 0,17,18
 731.986079018 416.649933386 731.986079018 416.649933386 744.132337256 433.424090271 c 128,-1,0
 756.278595494 450.198247155 756.278595494 450.198247155 776.728515625 453.470703125 c 128,-1,1
EndSplineSet
Validated: 33
Position2: "Chrs" dx=0 dy=0 dh=0 dv=0
EndChar

StartChar: u10FB1
Encoding: 69553 69553 1
Width: 343
Flags: W
LayerCount: 2
Fore
SplineSet
190.767578125 334.66015625 m 128,-1,1
 211.222631255 334.447021744 211.222631255 334.447021744 225.663439562 319.958874932 c 128,-1,2
 240.104247868 305.47072812 240.104247868 305.47072812 240.25 285.015625 c 0,3,4
 240.25 237.155501597 240.25 237.155501597 249.892578125 213.1640625 c 0,5,6
 252.210616693 207.398428443 252.210616693 207.398428443 254.52734375 204.66015625 c 0,7,8
 254.916882332 204.730529426 254.916882332 204.730529426 255.10546875 204.75 c 0,9,10
 275.706452712 206.880631149 275.706452712 206.880631149 291.780114196 193.820731801 c 128,-1,11
 307.853775681 180.760832452 307.853775681 180.760832452 309.984375 160.16015625 c 128,-1,12
 312.115704052 139.559505994 312.115704052 139.559505994 299.055622606 123.486061128 c 128,-1,13
 285.995541161 107.412616262 285.995541161 107.412616262 265.39453125 105.28125 c 0,14,15
 225.033172105 101.105882918 225.033172105 101.105882918 194.56640625 124.2890625 c 0,16,17
 189.841242844 127.884239761 189.841242844 127.884239761 184.671875 132.984375 c 1,18,19
 145.977932128 102.643487383 145.977932128 102.643487383 81.5 101.03125 c 0,20,21
 60.7959250951 100.513428401 60.7959250951 100.513428401 45.7896865137 114.78746259 c 128,-1,22
 30.7834479324 129.06149678 30.7834479324 129.06149678 30.265625 149.765625 c 128,-1,23
 29.7478034011 170.469699905 29.7478034011 170.469699905 44.0218375904 185.475938486 c 128,-1,24
 58.2958717797 200.482177067 58.2958717797 200.482177067 79 201 c 0,25,26
 115.646076045 201.916234099 115.646076045 201.916234099 125.6796875 214.27734375 c 0,27,28
 139.111195205 230.824031473 139.111195205 230.824031473 140.26171875 286.056640625 c 0,29,30
 140.83447583 306.50450783 140.83447583 306.50450783 155.573910792 320.688898833 c 128,-1,0
 170.313345754 334.873289835 170.313345754 334.873289835 190.767578125 334.66015625 c 128,-1,1
EndSplineSet
Validated: 33
Position2: "Chrs" dx=0 dy=0 dh=0 dv=0
EndChar

StartChar: u10FB2
Encoding: 69554 69554 2
Width: 548
Flags: W
LayerCount: 2
Fore
SplineSet
381.103515625 477.306640625 m 0,0,1
 385.511900924 478.04296875 385.511900924 478.04296875 389.310546875 478.04296875 c 0,2,3
 417.033115768 478.04296875 417.033115768 478.04296875 431.751953125 454.474609375 c 0,4,5
 476.001719068 383.616708425 476.001719068 383.616708425 492.797706029 331.060267744 c 128,-1,6
 509.59369299 278.503827063 509.59369299 278.503827063 509.03125 217.53515625 c 0,7,8
 508.593165435 170.055642741 508.593165435 170.055642741 474.318359375 139.140625 c 0,9,10
 449.494400357 116.751233599 449.494400357 116.751233599 408.123046875 106.400390625 c 0,11,12
 366.550083885 96 366.550083885 96 279 96 c 0,13,14
 250.219394436 96 250.219394436 96 217.198675126 98.168047171 c 128,-1,15
 184.177955816 100.336094342 184.177955816 100.336094342 80.734375 102.005859375 c 0,16,17
 60.3022731871 102.336485399 60.3022731871 102.336485399 45.9221326873 116.924804948 c 128,-1,18
 31.5419921875 131.513124497 31.5419921875 131.513124497 31.5419921875 151.985351562 c 0,19,20
 31.5419921875 152.396972656 31.5419921875 152.396972656 31.548828125 152.806640625 c 0,21,22
 31.8787226119 173.238105845 31.8787226119 173.238105845 46.4669675534 187.618564641 c 128,-1,23
 61.0552124949 201.999023438 61.0552124949 201.999023438 81.52734375 201.999023438 c 0,24,25
 187.174039121 200.299922073 187.174039121 200.299922073 219.648325429 198.149961036 c 128,-1,26
 252.122611737 196 252.122611737 196 279 196 c 0,27,28
 354.223798352 196 354.223798352 196 383.853515625 203.412109375 c 0,29,30
 401.033138237 207.710526807 401.033138237 207.710526807 407.341796875 213.3984375 c 0,31,32
 409.00184977 214.895796572 409.00184977 214.895796572 409.03515625 218.458984375 c 0,33,34
 409.51845873 270.84672538 409.51845873 270.84672538 398.832675916 303.178671542 c 128,-1,35
 388.146893102 335.510617704 388.146893102 335.510617704 346.93359375 401.505859375 c 0,36,37
 339.290039062 413.744896791 339.290039062 413.744896791 339.290039062 427.958984375 c 0,38,39
 339.290039062 455.680820856 339.290039062 455.680820856 362.857421875 470.3984375 c 0,40,41
 371.291806666 475.667466893 371.291806666 475.667466893 381.103515625 477.306640625 c 0,0,1
EndSplineSet
Validated: 33
Position2: "Chrs" dx=0 dy=0 dh=0 dv=0
EndChar

StartChar: u10FB3
Encoding: 69555 69555 3
Width: 576
Flags: W
LayerCount: 2
Fore
SplineSet
86.3017578125 398.916015625 m 2,0,-1
 486.301757812 380.916015625 l 2,1,2
 506.255942318 380.015782683 506.255942318 380.015782683 520.154338347 365.547627008 c 128,-1,3
 534.052734375 351.079471333 534.052734375 351.079471333 534.052734375 331.005859375 c 0,4,5
 534.052734375 326.483310981 534.052734375 326.483310981 533.256835938 322.076171875 c 0,6,7
 518.493705959 240.378500306 518.493705959 240.378500306 495.407226562 144.734375 c 0,8,9
 448.160988346 -51.0003254155 448.160988346 -51.0003254155 403.129882812 -127.41796875 c 0,10,11
 388.641922367 -152 388.641922367 -152 360 -152 c 0,12,13
 346.361801161 -152 346.361801161 -152 334.668945312 -145.109375 c 0,14,15
 310.0859375 -130.621797739 310.0859375 -130.621797739 310.0859375 -101.979492188 c 0,16,17
 310.0859375 -88.3429504985 310.0859375 -88.3429504985 316.977539062 -76.6484375 c 0,18,19
 354.446492884 -13.0639367699 354.446492884 -13.0639367699 398.200195312 168.19921875 c 0,20,21
 411.393236518 222.854894813 411.393236518 222.854894813 423.825195312 283.626953125 c 1,22,-1
 81.8056640625 299.017578125 l 2,23,24
 61.8519870184 299.915552331 61.8519870184 299.915552331 47.9523606967 314.387523153 c 128,-1,25
 34.052734375 328.859493976 34.052734375 328.859493976 34.052734375 348.93359375 c 0,26,27
 34.052734375 350.080566407 34.052734375 350.080566407 34.1044921875 351.21484375 c 0,28,29
 35.0024630326 371.16844611 35.0024630326 371.16844611 49.4742759171 385.068109774 c 128,-1,30
 63.9460888017 398.967773438 63.9460888017 398.967773438 84.01953125 398.967773438 c 0,31,32
 85.1665039062 398.967773438 85.1665039062 398.967773438 86.3017578125 398.916015625 c 2,0,-1
EndSplineSet
Validated: 1
Position2: "Chrs" dx=0 dy=0 dh=0 dv=0
EndChar

StartChar: u10FB4
Encoding: 69556 69556 4
Width: 562
Flags: W
LayerCount: 2
Fore
SplineSet
24.009765625 427.997070312 m 128,-1,1
 24.009765625 448.71826167 24.009765625 448.71826167 38.64453125 463.3515625 c 128,-1,2
 53.2788085446 477.987304688 53.2788085446 477.987304688 73.9990234375 477.987304688 c 0,3,4
 79.0513044557 477.987304688 79.0513044557 477.987304688 83.9990234375 476.983398438 c 0,5,6
 130.178197887 467.613448205 130.178197887 467.613448205 409.255859375 424.244140625 c 1,7,8
 422.444783472 481.565175072 422.444783472 481.565175072 426.549804688 509.3515625 c 0,9,10
 428.959308112 525.667786986 428.959308112 525.667786986 440.644531252 537.3515625 c 0,11,12
 455.278808545 551.987304688 455.278808545 551.987304688 475.999023438 551.987304688 c 128,-1,13
 496.720214892 551.987304688 496.720214892 551.987304688 511.354492188 537.3515625 c 128,-1,14
 525.989257812 522.71826167 525.989257812 522.71826167 525.989257812 501.997070312 c 0,15,16
 525.989257812 498.294548718 525.989257812 498.294548718 525.44921875 494.641601568 c 0,17,18
 514.481011762 420.393524483 514.481011762 420.393524483 468.488493542 247.143853285 c 128,-1,19
 422.495975321 73.8941820864 422.495975321 73.8941820864 379.249023438 -51.373046875 c 0,20,21
 375.510799049 -62.2035305863 375.510799049 -62.2035305863 367.354492188 -70.3583984375 c 0,22,23
 352.721191356 -84.9931640625 352.721191356 -84.9931640625 331.999023438 -84.9931640625 c 128,-1,24
 311.27783208 -84.9931640625 311.27783208 -84.9931640625 296.64453125 -70.3583984375 c 128,-1,25
 282.009765625 -55.7250976081 282.009765625 -55.7250976081 282.009765625 -35.0029296875 c 0,26,27
 282.009765625 -26.5703631267 282.009765625 -26.5703631267 284.75 -18.6337890625 c 0,28,29
 332.651854058 120.116018188 332.651854058 120.116018188 385.45703125 326.751953125 c 1,30,31
 113.706420689 368.92404851 113.706420689 368.92404851 64 379.009765625 c 0,32,33
 49.2903304625 381.994358655 49.2903304625 381.994358655 38.64453125 392.641601564 c 0,34,0
 24.009765625 407.274902394 24.009765625 407.274902394 24.009765625 427.997070312 c 128,-1,1
EndSplineSet
Validated: 1
Position2: "Chrs" dx=0 dy=0 dh=0 dv=0
EndChar

StartChar: u10FB5
Encoding: 69557 69557 5
Width: 641
Flags: W
LayerCount: 2
Fore
SplineSet
26.294921875 607.544921875 m 128,-1,1
 26.294921875 628.267089795 26.294921875 628.267089795 40.9296875 642.900390622 c 128,-1,2
 55.5629883309 657.53515625 55.5629883309 657.53515625 76.28515625 657.53515625 c 0,3,4
 81.4886651413 657.53515625 81.4886651413 657.53515625 86.5693359375 656.473632812 c 0,5,6
 204.085898991 631.918180052 204.085898991 631.918180052 359.8828125 588 c 0,7,8
 484.046910573 552.998771278 484.046910573 552.998771278 529.848632812 533.567382812 c 0,9,10
 548.512823885 525.650262051 548.512823885 525.650262051 562.756835938 511.40625 c 0,11,12
 593.241210938 480.921874998 593.241210938 480.921874998 593.241210938 436.51953125 c 0,13,14
 593.241210938 409.632812501 593.241210938 409.632812501 581.009765625 385.169921875 c 0,15,16
 578.762633453 380.676916429 578.762633453 380.676916429 564.100585938 348.958984375 c 0,17,18
 398.276030268 -9.78568853721 398.276030268 -9.78568853721 315.360351562 -128.9765625 c 0,19,20
 312.81463314 -132.636032731 312.81463314 -132.636032731 309.639648438 -135.809570312 c 0,21,22
 295.005371142 -150.4453125 295.005371142 -150.4453125 274.28515625 -150.4453125 c 128,-1,23
 253.563964795 -150.4453125 253.563964795 -150.4453125 238.929687497 -135.809570312 c 128,-1,24
 224.294921875 -121.176269484 224.294921875 -121.176269484 224.294921875 -100.455078125 c 0,25,26
 224.294921875 -84.7451784834 224.294921875 -84.7451784834 233.208984375 -71.93359375 c 0,27,28
 311.145542661 40.1004614196 311.145542661 40.1004614196 473.333007812 390.96875 c 0,29,30
 488.629718609 424.060071465 488.629718609 424.060071465 491.560546875 429.920898438 c 0,31,32
 493.452148438 433.705391878 493.452148438 433.705391878 493.452148438 436.627929688 c 0,33,34
 493.452148438 440.363815362 493.452148438 440.363815362 490.720703125 441.522460938 c 0,35,36
 450.72287103 458.491823087 450.72287103 458.491823087 332.631835938 491.782226562 c 0,37,38
 180.160512456 534.76208741 180.160512456 534.76208741 66 558.6171875 c 0,39,40
 51.4650755456 561.65359824 51.4650755456 561.65359824 40.9296875 572.190429689 c 0,41,0
 26.294921875 586.823730517 26.294921875 586.823730517 26.294921875 607.544921875 c 128,-1,1
EndSplineSet
Validated: 1
Position2: "Chrs" dx=0 dy=0 dh=0 dv=0
EndChar

StartChar: u10FB6
Encoding: 69558 69558 6
Width: 262
Flags: W
LayerCount: 2
Fore
SplineSet
65.009804473 530 m 0,0,1
 65.009804473 550.720482592 65.009804473 550.720482592 79.6446609406 565.355339056 c 128,-1,2
 94.2795174084 579.990195528 94.2795174084 579.990195528 115 579.990195526 c 128,-1,3
 135.720482592 579.990195527 135.720482592 579.990195527 150.355339056 565.35533906 c 0,4,5
 161.857020997 553.853657121 161.857020997 553.853657121 164.379274059 537.819334095 c 0,6,7
 190.355077474 372.687440943 190.355077474 372.687440943 190.355077474 154.624610849 c 0,8,9
 190.355077474 11.9147824438 190.355077474 11.9147824438 175.902597958 -56.4060298129 c 0,10,11
 172.84351128 -70.8671668388 172.84351128 -70.8671668388 162.35533906 -81.3553390593 c 0,12,13
 147.720482592 -95.9901955271 147.720482592 -95.9901955271 127 -95.9901955269 c 128,-1,14
 106.279517408 -95.990195527 106.279517408 -95.990195527 91.6446609437 -81.3553390594 c 128,-1,15
 77.0098044729 -66.7204825917 77.0098044729 -66.7204825917 77.0098044731 -46 c 0,16,17
 77.009804473 -40.7353405114 77.009804473 -40.7353405114 78.0974020414 -35.5939701874 c 0,18,19
 90.3534905587 22.3439028026 90.3534905587 22.3439028026 90.3534905587 159.443208485 c 0,20,21
 90.3534905587 364.95094799 90.3534905587 364.95094799 65.6207259428 522.180665905 c 0,22,23
 65.0098044729 526.064380963 65.0098044729 526.064380963 65.009804473 530 c 0,0,1
EndSplineSet
Validated: 1
Position2: "Chrs" dx=0 dy=0 dh=0 dv=0
EndChar

StartChar: u10FB7
Encoding: 69559 69559 7
Width: 407
Flags: W
LayerCount: 2
Fore
SplineSet
61.009765625 166 m 128,-1,1
 61.009765625 186.720703124 61.009765625 186.720703124 75.64453125 201.35546875 c 128,-1,2
 90.2792968743 215.990234375 90.2792968743 215.990234375 111 215.990234375 c 0,3,4
 121.377441406 215.990234375 121.377441406 215.990234375 130.856445315 211.897460936 c 0,5,6
 137.996247809 208.812246021 137.996247809 208.812246021 152.556640625 206.719726562 c 0,7,8
 165.255141115 204.89453125 165.255141115 204.89453125 179.1171875 204.89453125 c 0,9,10
 189.539832992 204.89453125 189.539832992 204.89453125 199.072265625 205.974609375 c 0,11,12
 234.558200086 209.992770398 234.558200086 209.992770398 250.025390625 225.459960938 c 0,13,14
 259.979559036 235.414129349 259.979559036 235.414129349 261.111328125 253.198242188 c 0,15,16
 261.3203125 256.470879449 261.3203125 256.470879449 261.3203125 259.6484375 c 0,17,18
 261.3203125 291.102539063 261.3203125 291.102539063 240.393554688 312.029296875 c 0,19,20
 214.178710936 338.244140625 214.178710936 338.244140625 169.450195312 338.244140625 c 0,21,22
 139.205686607 338.244140625 139.205686607 338.244140625 108.59765625 324.4296875 c 0,23,24
 98.8026288515 320.009765625 98.8026288515 320.009765625 88 320.009765625 c 0,25,26
 67.2792968743 320.009765625 67.2792968743 320.009765625 52.64453125 334.64453125 c 128,-1,27
 38.009765625 349.279296876 38.009765625 349.279296876 38.009765625 370 c 128,-1,28
 38.009765625 390.720703124 38.009765625 390.720703124 52.64453125 405.35546875 c 0,29,30
 59.1219293199 411.83286682 59.1219293199 411.83286682 67.40234375 415.5703125 c 0,31,32
 117.635906554 438.2421875 117.635906554 438.2421875 170.009765625 438.2421875 c 0,33,34
 255.602539061 438.2421875 255.602539061 438.2421875 311.104492188 382.740234375 c 0,35,36
 361.279296875 332.565429688 361.279296875 332.565429688 361.279296875 259.043945312 c 0,37,38
 361.279296875 195.292968751 361.279296875 195.292968751 320.735351562 154.749023438 c 0,39,40
 280.566358496 114.580030369 280.566358496 114.580030369 210.404296875 106.633789062 c 0,41,42
 194.824122339 104.869140625 194.824122339 104.869140625 178.88671875 104.869140625 c 0,43,44
 158.364937533 104.869140625 158.364937533 104.869140625 138.234375 107.762695312 c 0,45,46
 110.481791887 111.752236067 110.481791887 111.752236067 91.1435546875 120.102539062 c 0,47,48
 82.4191796857 123.869882814 82.4191796857 123.869882814 75.64453125 130.64453125 c 0,49,0
 61.009765625 145.279296876 61.009765625 145.279296876 61.009765625 166 c 128,-1,1
EndSplineSet
Validated: 1
Position2: "Chrs" dx=0 dy=0 dh=0 dv=0
EndChar

StartChar: u10FB8
Encoding: 69560 69560 8
Width: 255
Flags: W
LayerCount: 2
Fore
SplineSet
95.3701171875 40.333984375 m 128,-1,1
 74.650879004 40.333984375 74.650879004 40.333984375 60.0146484375 54.96875 c 128,-1,2
 45.3798828125 69.603515625 45.3798828125 69.603515625 45.3798828125 90.32421875 c 0,3,4
 45.3798828125 95.443225828 45.3798828125 95.443225828 46.4072265625 100.439453125 c 0,5,6
 65.2698188182 192.293354414 65.2698188182 192.293354414 80.4921875 294.232421875 c 0,7,8
 92.4443359375 374.259580976 92.4443359375 374.259580976 92.4443359375 397.46875 c 0,9,10
 92.4443359375 438.588229194 92.4443359375 438.588229194 68.162109375 459.077148438 c 0,11,12
 50.3798828125 474.080116111 50.3798828125 474.080116111 50.3798828125 497.32421875 c 0,13,14
 50.3798828125 518.044921874 50.3798828125 518.044921874 65.0146484375 532.6796875 c 128,-1,15
 79.6494140618 547.314453125 79.6494140618 547.314453125 100.370117188 547.314453125 c 0,16,17
 118.660644532 547.314453125 118.660644532 547.314453125 132.578125 535.572265625 c 0,18,19
 138.013577753 530.986422247 138.013577753 530.986422247 143 526 c 0,20,21
 192.418945312 476.581054688 192.418945312 476.581054688 192.418945312 397.020507812 c 0,22,23
 192.418945312 366.743649055 192.418945312 366.743649055 179.369140625 279.366210938 c 0,24,25
 163.743192189 174.725928228 163.743192189 174.725928228 144.333007812 80.208984375 c 0,26,27
 141.328224669 65.5728324456 141.328224669 65.5728324456 130.725585938 54.96875 c 0,28,0
 116.089355371 40.333984375 116.089355371 40.333984375 95.3701171875 40.333984375 c 128,-1,1
EndSplineSet
Validated: 1
Position2: "Chrs" dx=0 dy=0 dh=0 dv=0
EndChar

StartChar: u10FB9
Encoding: 69561 69561 9
Width: 840
Flags: W
LayerCount: 2
Fore
SplineSet
184 1.009765625 m 128,-1,1
 163.279296876 1.009765625 163.279296876 1.009765625 148.64453125 15.64453125 c 128,-1,2
 134.009765625 30.2792968743 134.009765625 30.2792968743 134.009765625 51 c 0,3,4
 134.009765625 53.9326171875 134.009765625 53.9326171875 134.349609375 56.8447265625 c 0,5,6
 145.092773438 148.759851552 145.092773438 148.759851552 145.092773438 329.72265625 c 0,7,8
 145.092773438 438.019818729 145.092773438 438.019818729 141.001953125 519.009765625 c 1,9,-1
 106 519.009765625 l 2,10,11
 85.2792968743 519.009765625 85.2792968743 519.009765625 70.64453125 533.64453125 c 128,-1,12
 56.009765625 548.279296876 56.009765625 548.279296876 56.009765625 569 c 128,-1,13
 56.009765625 589.720703124 56.009765625 589.720703124 70.64453125 604.35546875 c 128,-1,14
 85.2792968743 618.990234375 85.2792968743 618.990234375 106 618.990234375 c 2,15,-1
 548.797851562 618.990234375 l 1,16,17
 631.318245374 622.990234375 631.318245374 622.990234375 636 622.990234375 c 0,18,19
 682.502929687 622.990234375 682.502929687 622.990234375 710.9765625 594.516601562 c 0,20,21
 730.559735882 574.932748963 730.559735882 574.932748963 737.274985129 548.825009694 c 128,-1,22
 743.990234375 522.717270424 743.990234375 522.717270424 743.990234375 483.884765625 c 2,23,-1
 743.990234375 481 l 2,24,25
 743.990234375 478.071982374 743.990234375 478.071982374 743.65234375 475.172851562 c 0,26,27
 731.104116357 285.950475371 731.104116357 285.950475371 703.676757812 41.388671875 c 0,28,29
 701.729199505 24.0182620047 701.729199505 24.0182620047 689.35546875 11.64453125 c 0,30,31
 674.720703124 -2.990234375 674.720703124 -2.990234375 654 -2.990234375 c 128,-1,32
 633.279296876 -2.990234375 633.279296876 -2.990234375 618.64453125 11.64453125 c 128,-1,33
 604.009765625 26.2792968743 604.009765625 26.2792968743 604.009765625 47 c 0,34,35
 604.009765625 49.8149414062 604.009765625 49.8149414062 604.323242186 52.611328125 c 0,36,37
 627.538829139 259.617729947 627.538829139 259.617729947 644.010742188 482.852539062 c 0,38,39
 644.022965659 512.77210696 644.022965659 512.77210696 640.408203125 522.747070312 c 0,40,41
 638.521573158 523.009765625 638.521573158 523.009765625 636 523.009765625 c 0,42,43
 624.241665985 523.009765625 624.241665985 523.009765625 610.105972152 522.342367359 c 128,-1,44
 595.970278319 521.674969093 595.970278319 521.674969093 578.638819514 520.580484203 c 128,-1,45
 561.307360709 519.485999313 561.307360709 519.485999313 552.3671875 519.065429688 c 0,46,47
 551.185058593 519.009765624 551.185058593 519.009765624 550 519.009765627 c 2,48,-1
 241.184570312 519.009765625 l 1,49,50
 245.478515625 434.043611849 245.478515625 434.043611849 245.478515625 327.658203125 c 0,51,52
 245.478515625 146.355909037 245.478515625 146.355909037 233.650390625 45.1552734375 c 0,53,54
 231.634926216 27.9239887153 231.634926216 27.9239887153 219.35546875 15.64453125 c 0,55,0
 204.720703124 1.009765625 204.720703124 1.009765625 184 1.009765625 c 128,-1,1
EndSplineSet
Validated: 33
Position2: "Chrs" dx=0 dy=0 dh=0 dv=0
EndChar

StartChar: u10FBA
Encoding: 69562 69562 10
Width: 364
Flags: W
LayerCount: 2
Fore
SplineSet
146.009765625 521 m 0,0,1
 146.009765625 541.720703125 146.009765625 541.720703125 160.64453125 556.35546875 c 128,-1,2
 175.279296875 570.990234375 175.279296875 570.990234375 196 570.990234375 c 128,-1,3
 216.720703125 570.990234375 216.720703125 570.990234375 231.35546875 556.35546875 c 0,4,5
 241.075761218 546.635176282 241.075761218 546.635176282 244.444335938 533.373046875 c 0,6,7
 261.416830247 466.575394569 261.416830247 466.575394569 270.864931088 397.157219553 c 128,-1,8
 280.313031928 327.739044538 280.313031928 327.739044538 282.148089746 291.259772634 c 128,-1,9
 283.983147564 254.780500731 283.983147564 254.780500731 285.108398438 198.584960938 c 0,10,11
 285.188122823 194.607056466 285.188122823 194.607056466 285.638006724 178.993942805 c 128,-1,12
 286.087890625 163.380829144 286.087890625 163.380829144 286.087890625 154.927734375 c 0,13,14
 286.087890625 39.8037109372 286.087890625 39.8037109372 175.625976562 -70.658203125 c 0,15,16
 158.453922109 -87.8302575789 158.453922109 -87.8302575789 138.579101562 -104.931640625 c 0,17,18
 124.564941406 -116.990234375 124.564941406 -116.990234375 106 -116.990234375 c 0,19,20
 85.2792968743 -116.990234375 85.2792968743 -116.990234375 70.64453125 -102.35546875 c 128,-1,21
 56.009765625 -87.720703125 56.009765625 -87.720703125 56.009765625 -67 c 0,22,23
 56.009765625 -44.049886731 56.009765625 -44.049886731 73.4208984375 -29.068359375 c 0,24,25
 90.439852657 -14.4234285933 90.439852657 -14.4234285933 104.915039062 0.0517578125 c 0,26,27
 186.104492188 81.2426039112 186.104492188 81.2426039112 186.104492188 155.107421875 c 0,28,29
 186.104492188 163.061221603 186.104492188 163.061221603 185.664033066 177.934596502 c 128,-1,30
 185.223573944 192.807971401 185.223573944 192.807971401 185.1484375 196.568359375 c 0,31,32
 184.045028543 251.67955009 184.045028543 251.67955009 182.3702791 285.483212779 c 128,-1,33
 180.695529657 319.286875468 180.695529657 319.286875468 172.02002038 382.885927847 c 128,-1,34
 163.344511103 446.484980225 163.344511103 446.484980225 147.555664062 508.626953125 c 0,35,36
 146.009765625 514.710906029 146.009765625 514.710906029 146.009765625 521 c 0,0,1
EndSplineSet
Validated: 1
Position2: "Chrs" dx=0 dy=0 dh=0 dv=0
EndChar

StartChar: u10FBB
Encoding: 69563 69563 11
Width: 902
Flags: W
LayerCount: 2
Fore
SplineSet
174 -101 m 1025,0,-1
700.565429688 558.041992188 m 1,1,2
 553.685163689 520.916992188 553.685163689 520.916992188 397.159179688 520.916992188 c 0,3,4
 216.346356605 520.916992188 216.346356605 520.916992188 94.810546875 577.702148438 c 0,5,6
 86.882555622 581.406506878 86.882555622 581.406506878 80.64453125 587.64453125 c 0,7,8
 66.009765625 602.279296876 66.009765625 602.279296876 66.009765625 623 c 128,-1,9
 66.009765625 643.720703124 66.009765625 643.720703124 80.64453125 658.35546875 c 128,-1,10
 95.2792968743 672.990234375 95.2792968743 672.990234375 116 672.990234375 c 0,11,12
 127.145439213 672.990234375 127.145439213 672.990234375 137.189453122 668.297851562 c 0,13,14
 238.418817168 621.001953125 238.418817168 621.001953125 400.4609375 621.001953125 c 0,15,16
 531.876672719 621.001953125 531.876672719 621.001953125 658.625 650.75 c 0,17,18
 722.417539778 665.72352867 722.417539778 665.72352867 745.64453125 678.677734375 c 0,19,20
 756.961324587 684.990234375 756.961324587 684.990234375 770 684.990234375 c 0,21,22
 790.720703125 684.990234375 790.720703125 684.990234375 805.35546875 670.35546875 c 128,-1,23
 819.990234375 655.720703125 819.990234375 655.720703125 819.990234375 635 c 0,24,25
 819.990234375 631.068847656 819.990234375 631.068847656 819.380859375 627.188476559 c 0,26,27
 797.883205079 490.380567907 797.883205079 490.380567907 715.188476562 347.194335938 c 0,28,29
 630.870982347 201.197154222 630.870982347 201.197154222 493.439453125 63.765625 c 0,30,31
 383.640216136 -46.0336119887 383.640216136 -46.0336119887 281.71484375 -112.20703125 c 0,32,33
 241.586409841 -138.258798759 241.586409841 -138.258798759 214.834960938 -148.466796875 c 0,34,35
 195.944072357 -155.67578125 195.944072357 -155.67578125 180.068359375 -155.67578125 c 0,36,37
 156.39453125 -155.67578125 156.39453125 -155.67578125 139.984375 -139.265625 c 0,38,39
 126.809712951 -126.090962951 126.809712951 -126.090962951 124.416992188 -107.390625 c 0,40,41
 124.009765624 -104.208984375 124.009765624 -104.208984375 124.009765627 -101 c 0,42,43
 124.009765625 -80.2792968743 124.009765625 -80.2792968743 138.64453125 -65.64453125 c 128,-1,44
 153.279296876 -51.009765625 153.279296876 -51.009765625 174 -51.009765625 c 0,45,46
 179.802950304 -51.009765625 179.802950304 -51.009765625 185.448242188 -52.3291015625 c 0,47,48
 215.685896218 -38.1539140286 215.685896218 -38.1539140286 263.654296875 -3.140625 c 0,49,50
 343.107726477 54.8561614614 343.107726477 54.8561614614 422.729492188 134.4765625 c 0,51,52
 550.804291715 262.551362027 550.804291715 262.551362027 628.5625 397.192382812 c 0,53,54
 675.805849104 478.995343951 675.805849104 478.995343951 700.565429688 558.041992188 c 1,1,2
EndSplineSet
Validated: 1
Position2: "Chrs" dx=0 dy=0 dh=0 dv=0
EndChar

StartChar: u10FBC
Encoding: 69564 69564 12
Width: 760
Flags: W
LayerCount: 2
Fore
SplineSet
82.009765625 689 m 0,0,1
 82.009765625 709.720703124 82.009765625 709.720703124 96.64453125 724.35546875 c 128,-1,2
 111.279296875 738.990234375 111.279296875 738.990234375 132 738.990234375 c 0,3,4
 148.998682954 738.990234375 148.998682954 738.990234375 162.407226562 728.697265625 c 0,5,6
 267.067115388 648.360544877 267.067115388 648.360544877 316.119384172 610.072457969 c 128,-1,7
 365.171652956 571.784371061 365.171652956 571.784371061 427.275798119 519.661917031 c 128,-1,8
 489.379943283 467.539463002 489.379943283 467.539463002 529.198242188 427.720703125 c 0,9,10
 593.218334574 363.700610739 593.218334574 363.700610739 628.243238796 303.707965134 c 128,-1,11
 663.268143018 243.715319529 663.268143018 243.715319529 669.748046875 177.936523438 c 0,12,13
 671.362304688 161.544695699 671.362304688 161.544695699 671.362304688 145.936523438 c 0,14,15
 671.362304688 110.206519694 671.362304688 110.206519694 662.926757812 78.900390625 c 0,16,17
 648.126873037 23.9798217665 648.126873037 23.9798217665 608.114257812 -16.03125 c 0,18,19
 548.724878958 -75.421872585 548.724878958 -75.421872585 434.190429688 -98.9990234375 c 0,20,21
 346.785438339 -116.990234375 346.785438339 -116.990234375 190 -116.990234375 c 0,22,23
 169.279296875 -116.990234375 169.279296875 -116.990234375 154.64453125 -102.35546875 c 128,-1,24
 140.009765625 -87.7207031257 140.009765625 -87.7207031257 140.009765625 -67 c 128,-1,25
 140.009765625 -46.2792968743 140.009765625 -46.2792968743 154.64453125 -31.64453125 c 128,-1,26
 169.279296876 -17.009765625 169.279296876 -17.009765625 190 -17.009765625 c 0,27,28
 336.530625386 -17.009765625 336.530625386 -17.009765625 413.9140625 -1.08203125 c 0,29,30
 499.196644676 16.4720353011 499.196644676 16.4720353011 537.404296875 54.6796875 c 0,31,32
 571.391601562 88.666992187 571.391601562 88.666992187 571.391601562 145.830078125 c 0,33,34
 571.391601562 156.500912772 571.391601562 156.500912772 570.251953125 168.063476562 c 0,35,36
 565.885531244 212.390761135 565.885531244 212.390761135 539.672191285 257.214978343 c 128,-1,37
 513.458851325 302.03919555 513.458851325 302.03919555 458.48828125 357.009765625 c 0,38,39
 406.586773663 408.911273212 406.586773663 408.911273212 327.757857595 472.559333598 c 128,-1,40
 248.928941527 536.207393984 248.928941527 536.207393984 101.592773438 649.302734375 c 0,41,42
 82.009765625 664.334829906 82.009765625 664.334829906 82.009765625 689 c 0,0,1
EndSplineSet
Validated: 1
Position2: "Chrs" dx=0 dy=0 dh=0 dv=0
EndChar

StartChar: u10FBD
Encoding: 69565 69565 13
Width: 782
Flags: W
LayerCount: 2
Fore
SplineSet
190.009765625 609 m 0,0,1
 190.009765625 629.720703125 190.009765625 629.720703125 204.64453125 644.35546875 c 128,-1,2
 219.279296875 658.990234375 219.279296875 658.990234375 240 658.990234375 c 128,-1,3
 260.720703125 658.990234375 260.720703125 658.990234375 275.35546875 644.35546875 c 0,4,5
 289.125704101 630.585233399 289.125704101 630.585233399 289.9453125 611.119140625 c 0,6,7
 291.377058077 577.130376897 291.377058077 577.130376897 292.157226562 529.803710938 c 1,8,9
 435.980012928 528.819977945 435.980012928 528.819977945 483.979492188 527.975585938 c 0,10,11
 546.635271512 526.873186459 546.635271512 526.873186459 563.662109375 524.076171875 c 0,12,13
 617.840135522 515.176466041 617.840135522 515.176466041 649.970703125 483.045898438 c 0,14,15
 696.8359375 436.180664061 696.8359375 436.180664061 696.8359375 347.278320312 c 0,16,17
 696.8359375 334.655750872 696.8359375 334.655750872 695.854492188 321.306640625 c 0,18,19
 688.378902316 219.644466984 688.378902316 219.644466984 662.033203125 164.24609375 c 0,20,21
 647.596187328 133.887424948 647.596187328 133.887424948 617.35546875 103.64453125 c 0,22,23
 603.848102806 90.1371653051 603.848102806 90.1371653051 577.817382812 79.8466796875 c 0,24,25
 532.861155651 62.0746471039 532.861155651 62.0746471039 459.32421875 50.9619140625 c 0,26,27
 433.181464876 47.009765625 433.181464876 47.009765625 420 47.009765625 c 0,28,29
 399.279296876 47.009765625 399.279296876 47.009765625 384.64453125 61.64453125 c 128,-1,30
 370.009765625 76.2792968743 370.009765625 76.2792968743 370.009765625 97 c 128,-1,31
 370.009765625 117.720703125 370.009765625 117.720703125 384.64453125 132.35546875 c 128,-1,32
 399.279296875 146.990234375 399.279296875 146.990234375 420 146.990234375 c 0,33,34
 429.205813419 147.641704963 429.205813419 147.641704963 440.018554688 149.185546875 c 0,35,36
 463.992985753 152.607319697 463.992985753 152.607319697 489.612304688 158.270507812 c 0,37,38
 532.350228116 167.717768774 532.350228116 167.717768774 548.171875 176.032226562 c 1,39,40
 564.712564373 192.489426708 564.712564373 192.489426708 571.725585938 207.236328125 c 0,41,42
 590.047555506 245.764812702 590.047555506 245.764812702 596.145507812 328.693359375 c 0,43,44
 596.926757812 339.328302536 596.926757812 339.328302536 596.926757812 348.8203125 c 0,45,46
 596.926757812 394.670646378 596.926757812 394.670646378 579.259765625 412.334960938 c 0,47,48
 569.935130266 421.659596297 569.935130266 421.659596297 545.728515625 425.694335938 c 0,49,50
 536.6750433 427.052356555 536.6750433 427.052356555 482.20703125 428.010742188 c 0,51,52
 429.452604331 428.938989481 429.452604331 428.938989481 293.032226562 429.87109375 c 1,53,54
 293.06640625 416.309188283 293.06640625 416.309188283 293.06640625 402.833007812 c 0,55,56
 293.06640625 256.161064593 293.06640625 256.161064593 289.830560061 88.6505479077 c 128,-1,57
 286.594713871 -78.8599687774 286.594713871 -78.8599687774 283.908203125 -125.873046875 c 0,58,59
 282.821555398 -144.889382102 282.821555398 -144.889382102 269.35546875 -158.35546875 c 0,60,61
 254.720703125 -172.990234375 254.720703125 -172.990234375 234 -172.990234375 c 128,-1,62
 213.279296875 -172.990234375 213.279296875 -172.990234375 198.64453125 -158.35546875 c 128,-1,63
 184.009765625 -143.720703125 184.009765625 -143.720703125 184.009765625 -123 c 0,64,65
 184.009765625 -121.562988282 184.009765625 -121.562988282 184.091796875 -120.126953125 c 0,66,67
 186.573222165 -76.7068076863 186.573222165 -76.7068076863 189.77000952 93.3365902001 c 128,-1,68
 192.966796875 263.379988086 192.966796875 263.379988086 192.966796875 408.731445312 c 0,69,70
 192.966796875 419.500911328 192.966796875 419.500911328 192.944335938 430.532226562 c 1,71,72
 152.084416186 430.802556834 152.084416186 430.802556834 125.603515625 431.011718756 c 0,73,74
 105.117713341 431.17281287 105.117713341 431.17281287 90.64453125 445.64453125 c 128,-1,75
 76.009765625 460.279296876 76.009765625 460.279296876 76.009765625 481 c 128,-1,76
 76.009765625 501.720703124 76.009765625 501.720703124 90.64453125 516.35546875 c 128,-1,77
 105.279296875 530.990234375 105.279296875 530.990234375 126 530.990234375 c 0,78,79
 154.840757161 530.990234375 154.840757161 530.990234375 192.110351562 530.670898438 c 1,80,81
 191.384965526 575.261609917 191.384965526 575.261609917 190.0546875 606.880859375 c 0,82,83
 190.009765625 607.928553409 190.009765625 607.928553409 190.009765625 609 c 0,0,1
EndSplineSet
Validated: 1
Position2: "Chrs" dx=0 dy=0 dh=0 dv=0
EndChar

StartChar: u10FBE
Encoding: 69566 69566 14
Width: 336
Flags: W
LayerCount: 2
Fore
SplineSet
120.009765625 746 m 0,0,1
 120.009765625 766.720703125 120.009765625 766.720703125 134.64453125 781.35546875 c 128,-1,2
 149.279296875 795.990234375 149.279296875 795.990234375 170 795.990234375 c 128,-1,3
 190.720703125 795.990234375 190.720703125 795.990234375 205.35546875 781.35546875 c 0,4,5
 217.672576571 769.038360929 217.672576571 769.038360929 219.66015625 751.75390625 c 0,6,7
 231.801757812 646.219368113 231.801757812 646.219368113 231.801757812 456.333007812 c 0,8,9
 231.801757812 182.409039512 231.801757812 182.409039512 213.4296875 -26.11328125 c 0,10,11
 206.403057932 -105.869782541 206.403057932 -105.869782541 198.365234375 -136.681640625 c 0,12,13
 194.955925205 -149.755012295 194.955925205 -149.755012295 185.35546875 -159.35546875 c 0,14,15
 170.720703125 -173.990234375 170.720703125 -173.990234375 150 -173.990234375 c 128,-1,16
 129.279296875 -173.990234375 129.279296875 -173.990234375 114.64453125 -159.35546875 c 128,-1,17
 100.009765625 -144.720703125 100.009765625 -144.720703125 100.009765625 -124 c 0,18,19
 100.009765625 -117.548747109 100.009765625 -117.548747109 101.634765625 -111.318359372 c 0,20,21
 107.550072842 -88.6430150448 107.550072842 -88.6430150448 113.837890625 -17.2744140625 c 0,22,23
 131.642578125 184.817732333 131.642578125 184.817732333 131.642578125 453.206054688 c 0,24,25
 131.642578125 641.992424634 131.642578125 641.992424634 120.33984375 740.24609375 c 0,26,27
 120.009765625 743.117039936 120.009765625 743.117039936 120.009765625 746 c 0,0,1
EndSplineSet
Validated: 1
Position2: "Chrs" dx=0 dy=0 dh=0 dv=0
EndChar

StartChar: u10FBF
Encoding: 69567 69567 15
Width: 769
Flags: W
LayerCount: 2
Fore
SplineSet
120 73.009765625 m 0,0,1
 99.279296875 73.009765625 99.279296875 73.009765625 84.64453125 87.64453125 c 128,-1,2
 70.009765625 102.279296875 70.009765625 102.279296875 70.009765625 123 c 128,-1,3
 70.009765625 143.720703124 70.009765625 143.720703124 84.64453125 158.35546875 c 128,-1,4
 99.2792968743 172.990234375 99.2792968743 172.990234375 120 172.990234375 c 0,5,6
 157.305276012 172.990234375 157.305276012 172.990234375 300.254882812 177.896484375 c 0,7,8
 390.379310577 180.990234375 390.379310577 180.990234375 406 180.990234375 c 0,9,10
 493.254169567 180.990234375 493.254169567 180.990234375 550.673828125 238.408203125 c 0,11,12
 594.009765625 281.745607254 594.009765625 281.745607254 594.009765625 331 c 0,13,14
 594.009765625 367.328658245 594.009765625 367.328658245 559.513671875 401.823242188 c 0,15,16
 522.27594907 439.0625 522.27594907 439.0625 481.416015625 439.0625 c 0,17,18
 480.456835922 439.0625 480.456835922 439.0625 479.573242189 439.034179688 c 0,19,20
 401.475417965 436.593582026 401.475417965 436.593582026 367.793945312 402.912109375 c 0,21,22
 339.484223421 374.600782259 339.484223421 374.600782259 334.556640625 315.791992188 c 0,23,24
 334.597207948 298.938113283 334.597207948 298.938113283 334.0837439 291.161855416 c 128,-1,25
 333.570279851 283.385597549 333.570279851 283.385597549 330.118079017 273.670501355 c 128,-1,26
 326.665878184 263.955405161 326.665878184 263.955405161 319.35546875 256.64453125 c 0,27,28
 304.720703125 242.009765625 304.720703125 242.009765625 284 242.009765625 c 128,-1,29
 263.279296875 242.009765625 263.279296875 242.009765625 248.64453125 256.64453125 c 128,-1,30
 234.009765625 271.279296875 234.009765625 271.279296875 234.009765625 292 c 0,31,32
 234.009765625 295.880053323 234.009765625 295.880053323 234.251953125 304.064453125 c 0,33,34
 234.009765625 306.530362208 234.009765625 306.530362208 234.009765625 309 c 0,35,36
 234.009765625 310.302246093 234.009765625 310.302246093 234.077148436 311.6015625 c 0,37,38
 234.267578124 315.284179688 234.267578124 315.284179688 234.525390625 318.934570312 c 0,39,40
 234.512003675 346.851277531 234.512003675 346.851277531 232.805955537 386.196542283 c 128,-1,41
 231.099907399 425.541807035 231.099907399 425.541807035 228.674653837 462.182012404 c 128,-1,42
 226.249400275 498.822217774 226.249400275 498.822217774 223.826049287 531.188417283 c 128,-1,43
 221.4026983 563.554616792 221.4026983 563.554616792 219.706231962 584.361934279 c 128,-1,44
 218.009765625 605.169251766 218.009765625 605.169251766 218.009765625 606 c 0,45,46
 218.009765625 626.720703125 218.009765625 626.720703125 232.64453125 641.35546875 c 128,-1,47
 247.279296875 655.990234375 247.279296875 655.990234375 268 655.990234375 c 128,-1,48
 288.720703125 655.990234375 288.720703125 655.990234375 303.35546875 641.35546875 c 0,49,50
 316.186723101 628.522761091 316.186723101 628.522761091 317.791992188 610.458007812 c 0,51,52
 322.714663896 555.517475399 322.714663896 555.517475399 326.724609375 497.838867188 c 1,53,54
 384.349233255 536.087961807 384.349233255 536.087961807 476.426757812 538.965820312 c 0,55,56
 479.165105246 539.051757812 479.165105246 539.051757812 481.920898438 539.051757812 c 0,57,58
 563.708727001 539.051757812 563.708727001 539.051757812 630.224609375 472.534179688 c 0,59,60
 693.990234375 408.770263214 693.990234375 408.770263214 693.990234375 331 c 0,61,62
 693.990234375 240.304687498 693.990234375 240.304687498 621.383789062 167.698242188 c 0,63,64
 534.696950326 81.009765625 534.696950326 81.009765625 406 81.009765625 c 0,65,66
 392.135602679 81.009765625 392.135602679 81.009765625 303.7109375 77.9755859375 c 0,67,68
 159.063747034 73.009765625 159.063747034 73.009765625 120 73.009765625 c 0,0,1
EndSplineSet
Validated: 33
Position2: "Chrs" dx=0 dy=0 dh=0 dv=0
EndChar

StartChar: u10FC0
Encoding: 69568 69568 16
Width: 438
Flags: W
LayerCount: 2
Fore
SplineSet
325 342.990234375 m 128,-1,1
 345.720703125 342.990234375 345.720703125 342.990234375 360.35546875 328.35546875 c 128,-1,2
 374.990234375 313.720703125 374.990234375 313.720703125 374.990234375 293 c 0,3,4
 374.990234375 292.35200642 374.990234375 292.35200642 374.974609375 291.741210938 c 0,5,6
 373.209758322 221.152040775 373.209758322 221.152040775 358.989257812 106.672851562 c 0,7,8
 358.949386485 100.680338716 358.949386485 100.680338716 357.508789062 94.8828125 c 0,9,10
 353.906847801 66.4694101189 353.906847801 66.4694101189 345.73046875 6.26171875 c 0,11,12
 335.652848861 -67.9329587665 335.652848861 -67.9329587665 332.702148438 -95.3828125 c 0,13,14
 330.818973885 -112.891963614 330.818973885 -112.891963614 318.355468752 -125.35546875 c 0,15,16
 303.720703125 -139.990234375 303.720703125 -139.990234375 283 -139.990234375 c 128,-1,17
 262.279296875 -139.990234375 262.279296875 -139.990234375 247.64453125 -125.35546875 c 128,-1,18
 233.009765625 -110.720703125 233.009765625 -110.720703125 233.009765625 -90 c 0,19,20
 233.009765625 -87.3099091152 233.009765625 -87.3099091152 233.297851562 -84.6171875 c 0,21,22
 236.398272784 -55.7904804234 236.398272784 -55.7904804234 246.665039062 19.8095703125 c 0,23,24
 251.589406623 56.0583870798 251.589406623 56.0583870798 254.424804688 77.693359375 c 1,25,26
 201.839384346 103.229802576 201.839384346 103.229802576 168.087890625 123.5234375 c 0,27,28
 108.922941442 159.095511693 108.922941442 159.095511693 74.5576171875 197.861328125 c 0,29,30
 62.009765625 212.014648438 62.009765625 212.014648438 62.009765625 231 c 0,31,32
 62.009765625 251.720703124 62.009765625 251.720703124 76.64453125 266.35546875 c 128,-1,33
 91.2792968743 280.990234375 91.2792968743 280.990234375 112 280.990234375 c 0,34,35
 134.504192486 280.990234375 134.504192486 280.990234375 149.442382812 264.138671875 c 0,36,37
 173.553515161 236.941862249 173.553515161 236.941862249 219.588867188 209.262695312 c 0,38,39
 239.687593124 197.179244419 239.687593124 197.179244419 267.043945312 183.162109375 c 1,40,41
 273.898380881 249.16910713 273.898380881 249.16910713 275.025390625 294.258789062 c 0,42,43
 275.525057202 314.235994701 275.525057202 314.235994701 289.644531247 328.35546875 c 0,44,0
 304.279296875 342.990234375 304.279296875 342.990234375 325 342.990234375 c 128,-1,1
EndSplineSet
Validated: 1
Position2: "Chrs" dx=0 dy=0 dh=0 dv=0
EndChar

StartChar: u10FC1
Encoding: 69569 69569 17
Width: 682
Flags: W
LayerCount: 2
Fore
SplineSet
193 530.009765625 m 0,0,1
 172.279296875 530.009765625 172.279296875 530.009765625 157.64453125 544.64453125 c 128,-1,2
 143.009765625 559.279296875 143.009765625 559.279296875 143.009765625 580 c 128,-1,3
 143.009765625 600.720703125 143.009765625 600.720703125 157.64453125 615.35546875 c 0,4,5
 165.529967969 623.240905469 165.529967969 623.240905469 175.943359375 627.006835936 c 0,6,7
 229.094082167 646.231445312 229.094082167 646.231445312 283.884765625 646.231445312 c 0,8,9
 350.869512916 646.231445312 350.869512916 646.231445312 411.515174685 619.196334559 c 128,-1,10
 472.160836453 592.161223807 472.160836453 592.161223807 517.017578125 547.303710938 c 0,11,12
 561.556706964 502.766083196 561.556706964 502.766083196 583.536132812 449.7109375 c 0,13,14
 601.05859375 407.41351669 601.05859375 407.41351669 601.05859375 366.34765625 c 0,15,16
 601.05859375 363.377929688 601.05859375 363.377929688 600.96484375 360.401367188 c 0,17,18
 595.354647228 183.680819105 595.354647228 183.680819105 450.077148438 38.4033203125 c 0,19,20
 434.853578717 23.1797505917 434.853578717 23.1797505917 419.27453951 8.91208474631 c 128,-1,21
 403.695500302 -5.35558109911 403.695500302 -5.35558109911 384.270912844 -20.4678814284 c 128,-1,22
 364.846325386 -35.5801817577 364.846325386 -35.5801817577 352.46046147 -45.6132147865 c 128,-1,23
 340.074597554 -55.6462478152 340.074597554 -55.6462478152 315.960773205 -71.6718396546 c 128,-1,24
 291.846948856 -87.697431494 291.846948856 -87.697431494 283.184481425 -93.9023067575 c 128,-1,25
 274.522013993 -100.107182021 274.522013993 -100.107182021 246.249173946 -117.452540422 c 128,-1,26
 217.9763339 -134.797898823 217.9763339 -134.797898823 213.567484146 -137.581091373 c 128,-1,27
 209.158634393 -140.364283922 209.158634393 -140.364283922 177.256999842 -159.435883936 c 128,-1,28
 145.355365291 -178.50748395 145.355365291 -178.50748395 144.711914062 -178.893554688 c 0,29,30
 132.881672842 -185.990234375 132.881672842 -185.990234375 119 -185.990234375 c 0,31,32
 98.2792968743 -185.990234375 98.2792968743 -185.990234375 83.64453125 -171.35546875 c 128,-1,33
 69.009765625 -156.720703124 69.009765625 -156.720703124 69.009765625 -136 c 128,-1,34
 69.009765625 -115.279296876 69.009765625 -115.279296876 83.64453125 -100.64453125 c 0,35,36
 88.0265304712 -96.2639763265 88.0265304712 -96.2639763265 93.2880859375 -93.1064453125 c 0,37,38
 165.959917362 -49.5036368138 165.959917362 -49.5036368138 198.052876074 -29.6092860644 c 128,-1,39
 230.145834786 -9.71493531492 230.145834786 -9.71493531492 286.102071842 31.0454839809 c 128,-1,40
 342.058308899 71.8059032766 342.058308899 71.8059032766 379.366210938 109.114257812 c 0,41,42
 496.680606516 226.427042064 496.680606516 226.427042064 501.03515625 363.598632812 c 0,43,44
 501.076171875 364.893554687 501.076171875 364.893554687 501.076171875 366.21875 c 0,45,46
 501.076171875 387.435701698 501.076171875 387.435701698 491.165039062 411.360351562 c 0,47,48
 467.995419719 467.288011528 467.995419719 467.288011528 409.726842625 506.743615139 c 128,-1,49
 351.458265531 546.19921875 351.458265531 546.19921875 284.1640625 546.19921875 c 0,50,51
 246.567414352 546.19921875 246.567414352 546.19921875 210.056640625 532.993164062 c 0,52,53
 201.810919857 530.009765625 201.810919857 530.009765625 193 530.009765625 c 0,0,1
EndSplineSet
Validated: 1
Position2: "Chrs" dx=0 dy=0 dh=0 dv=0
EndChar

StartChar: u10FC2
Encoding: 69570 69570 18
Width: 674
Flags: W
LayerCount: 2
Fore
SplineSet
487.528320312 339.197265625 m 0,0,1
 487.528320312 345.356445312 487.528320312 345.356445312 487.784179687 380.044921875 c 128,-1,2
 488.040039062 414.733398437 488.040039062 414.733398437 488.040039062 420.555664062 c 0,3,4
 488.040039062 441.276367187 488.040039062 441.276367187 502.674804688 455.911132812 c 128,-1,5
 517.309570312 470.545898438 517.309570312 470.545898438 538.030273438 470.545898438 c 128,-1,6
 558.750976562 470.545898438 558.750976562 470.545898438 573.385742188 455.911132812 c 0,7,8
 587.429617968 441.867257032 587.429617968 441.867257032 588 422 c 0,9,10
 588.201825335 414.956353633 588.201825335 414.956353633 587.847494698 378.456721577 c 128,-1,11
 587.493164062 341.957089521 587.493164062 341.957089521 587.493164062 340.118164062 c 0,12,13
 587.493164062 143.654946024 587.493164062 143.654946024 513.419921875 -145.469726562 c 0,14,15
 510.038537474 -158.670958664 510.038537474 -158.670958664 500.35546875 -168.35546875 c 0,16,17
 485.720703125 -182.990234375 485.720703125 -182.990234375 465 -182.990234375 c 128,-1,18
 444.279296875 -182.990234375 444.279296875 -182.990234375 429.64453125 -168.35546875 c 128,-1,19
 415.009765625 -153.720703125 415.009765625 -153.720703125 415.009765625 -133 c 0,20,21
 415.009765625 -126.657714844 415.009765625 -126.657714844 416.580078125 -120.530273441 c 0,22,23
 465.636515538 70.9465943115 465.636515538 70.9465943115 480.291992188 207.963867188 c 1,24,25
 383.387262785 212.115090333 383.387262785 212.115090333 275.49508854 231.794012621 c 128,-1,26
 167.602914295 251.472934909 167.602914295 251.472934909 94.01171875 277.96875 c 0,27,28
 83.5589307103 281.731571033 83.5589307103 281.731571033 75.64453125 289.64453125 c 0,29,30
 61.009765625 304.279296876 61.009765625 304.279296876 61.009765625 325 c 128,-1,31
 61.009765625 345.720703124 61.009765625 345.720703124 75.64453125 360.35546875 c 128,-1,32
 90.2792968743 374.990234375 90.2792968743 374.990234375 111 374.990234375 c 0,33,34
 119.770507812 374.990234375 119.770507812 374.990234375 127.988281247 372.03125 c 0,35,36
 196.073939705 347.517879427 196.073939705 347.517879427 297.53125 329.47265625 c 0,37,38
 398.142879561 311.576391962 398.142879561 311.576391962 487.104492188 307.797851562 c 1,39,40
 487.528320312 323.490946964 487.528320312 323.490946964 487.528320312 339.197265625 c 0,0,1
EndSplineSet
Validated: 33
Position2: "Chrs" dx=0 dy=0 dh=0 dv=0
EndChar

StartChar: u10FC3
Encoding: 69571 69571 19
Width: 891
Flags: W
LayerCount: 2
Fore
SplineSet
198 741.990234375 m 128,-1,1
 218.720703125 741.990234375 218.720703125 741.990234375 233.35546875 727.35546875 c 128,-1,2
 247.990234375 712.720703125 247.990234375 712.720703125 247.990234375 692 c 0,3,4
 247.990234375 691.421386718 247.990234375 691.421386718 247.9765625 690.842773438 c 0,5,6
 244.208368534 526.912869382 244.208368534 526.912869382 240.080078125 397.624023438 c 1,7,8
 273.874668482 387.257813816 273.874668482 387.257813816 360.122070312 360.065429688 c 1,9,10
 388.158070218 434.766999893 388.158070218 434.766999893 408.614373163 519.576095678 c 128,-1,11
 429.070676109 604.385191464 429.070676109 604.385191464 434.19921875 663.362304688 c 0,12,13
 435.774991667 681.484475638 435.774991667 681.484475638 448.64453125 694.35546875 c 0,14,15
 463.279296875 708.990234375 463.279296875 708.990234375 484 708.990234375 c 128,-1,16
 504.720703125 708.990234375 504.720703125 708.990234375 519.35546875 694.35546875 c 128,-1,17
 533.990234375 679.720703125 533.990234375 679.720703125 533.990234375 659 c 0,18,19
 533.990234375 656.820077832 533.990234375 656.820077832 533.80078125 654.637695312 c 0,20,21
 520.774906554 504.84673503 520.774906554 504.84673503 455.666015625 329.939453125 c 1,22,23
 550.135845115 300.199987187 550.135845115 300.199987187 578.934570312 291.698242188 c 1,24,25
 590.297011801 295.105133072 590.297011801 295.105133072 602.008723686 304.340103924 c 128,-1,26
 613.720435572 313.575074777 613.720435572 313.575074777 617.342773438 322.994140625 c 0,27,28
 618.533250102 326.089320246 618.533250102 326.089320246 629.168211998 353.380021811 c 128,-1,29
 639.803173895 380.670723377 639.803173895 380.670723377 643.427287677 390.490013996 c 128,-1,30
 647.051401459 400.309304616 647.051401459 400.309304616 657.140967713 429.078842702 c 128,-1,31
 667.230533967 457.848380789 667.230533967 457.848380789 673.746587445 479.729090964 c 128,-1,32
 680.262640924 501.609801138 680.262640924 501.609801138 689.83735624 536.140293802 c 128,-1,33
 699.412071556 570.670786466 699.412071556 570.670786466 708.422851562 607.83984375 c 0,34,35
 711.717160365 621.428097866 711.717160365 621.428097866 721.644531251 631.35546875 c 0,36,37
 736.279296875 645.990234375 736.279296875 645.990234375 757 645.990234375 c 128,-1,38
 777.720703125 645.990234375 777.720703125 645.990234375 792.35546875 631.35546875 c 128,-1,39
 806.990234375 616.720703125 806.990234375 616.720703125 806.990234375 596 c 0,40,41
 806.990234375 589.986756195 806.990234375 589.986756195 805.577148438 584.16015625 c 0,42,43
 797.590166621 551.214033027 797.590166621 551.214033027 789.680064623 521.526606347 c 128,-1,44
 781.769962624 491.839179667 781.769962624 491.839179667 773.654557508 465.401891057 c 128,-1,45
 765.539152392 438.964602446 765.539152392 438.964602446 759.638530821 420.206846189 c 128,-1,46
 753.737909251 401.449089931 753.737909251 401.449089931 745.343691755 378.446892651 c 128,-1,47
 736.949474259 355.44469537 736.949474259 355.44469537 733.203023806 345.337227247 c 128,-1,48
 729.456573352 335.229759124 729.456573352 335.229759124 720.928234165 313.383270885 c 128,-1,49
 712.399894979 291.536782646 712.399894979 291.536782646 710.657226562 287.005859375 c 0,50,51
 700.748364978 261.241529039 700.748364978 261.241529039 678.556640625 239.049804688 c 0,52,53
 652.315296604 212.808460666 652.315296604 212.808460666 618.998046875 199.759765625 c 0,54,55
 597.173290867 191.2109375 597.173290867 191.2109375 577.620117188 191.2109375 c 0,56,57
 568.002667683 191.2109375 568.002667683 191.2109375 558.8125 193.5078125 c 0,58,59
 545.356323684 196.87205055 545.356323684 196.87205055 394.26171875 244.584960938 c 0,60,61
 281.241605656 280.276049712 281.241605656 280.276049712 236.526367188 294.119140625 c 1,62,63
 235.222555069 258.876932886 235.222555069 258.876932886 233.873046875 226.319335938 c 0,64,65
 223.494393574 -24.0382680576 223.494393574 -24.0382680576 211.20703125 -92.8427734375 c 0,66,67
 208.45541942 -108.25551808 208.45541942 -108.25551808 197.35546875 -119.35546875 c 0,68,69
 182.720703125 -133.990234375 182.720703125 -133.990234375 162 -133.990234375 c 128,-1,70
 141.279296875 -133.990234375 141.279296875 -133.990234375 126.64453125 -119.35546875 c 128,-1,71
 112.009765625 -104.720703125 112.009765625 -104.720703125 112.009765625 -84 c 0,72,73
 112.009765625 -79.537308334 112.009765625 -79.537308334 112.79296875 -75.1572265625 c 0,74,75
 123.884058707 -13.0457008688 123.884058707 -13.0457008688 133.978515625 230.4921875 c 0,76,77
 141.629471482 415.032363233 141.629471482 415.032363233 148.0234375 693.157226562 c 0,78,79
 148.483782235 713.193258206 148.483782235 713.193258206 162.64453125 727.35546875 c 0,80,0
 177.279296875 741.990234375 177.279296875 741.990234375 198 741.990234375 c 128,-1,1
EndSplineSet
Validated: 1
Position2: "Chrs" dx=0 dy=0 dh=0 dv=0
EndChar

StartChar: u10FC4
Encoding: 69572 69572 20
Width: 1119
Flags: W
LayerCount: 2
Fore
SplineSet
743.698242188 -1.5439453125 m 0,0,1
 615.280289931 -1.5439453125 615.280289931 -1.5439453125 562.055664062 88.583984375 c 1,2,3
 546.651918097 60.3926747168 546.651918097 60.3926747168 525.75390625 39.49609375 c 0,4,5
 468.268940005 -17.990234375 468.268940005 -17.990234375 371 -17.990234375 c 0,6,7
 249.897112511 -17.990234375 249.897112511 -17.990234375 182.4140625 49.494140625 c 0,8,9
 140.266558323 91.6416448023 140.266558323 91.6416448023 116.233398438 162.004882812 c 0,10,11
 88.6398079855 242.792845511 88.6398079855 242.792845511 81.0927734375 374.110351562 c 0,12,13
 81.009765625 375.544784814 81.009765625 375.544784814 81.009765625 377 c 0,14,15
 81.009765625 396.641319169 81.009765625 396.641319169 95.1721921748 411.351577054 c 128,-1,16
 109.334618725 426.06183494 109.334618725 426.06183494 128.724609375 426.938476562 c 0,17,18
 464.507886833 442.2578125 464.507886833 442.2578125 743.702148438 442.2578125 c 0,19,20
 901.782560566 442.2578125 901.782560566 442.2578125 995.42578125 435.874023438 c 0,21,22
 1014.151379 434.596206502 1014.151379 434.596206502 1027.8509569 420.357401028 c 128,-1,23
 1041.5505348 406.118595554 1041.5505348 406.118595554 1041.97753906 387.131835938 c 0,24,25
 1042.36230469 369.973648061 1042.36230469 369.973648061 1042.36230469 353.974609375 c 0,26,27
 1042.36230469 246.835064945 1042.36230469 246.835064945 1024.81301917 175.178113054 c 128,-1,28
 1007.26373365 103.521161164 1007.26373365 103.521161164 962.334960938 58.5908203125 c 0,29,30
 922.963663192 19.2204050746 922.963663192 19.2204050746 875.230647805 8.83822988105 c 128,-1,31
 827.497632417 -1.5439453125 827.497632417 -1.5439453125 743.698242188 -1.5439453125 c 0,0,1
747.80859375 342.147460938 m 0,32,33
 684.164131796 342.147460938 684.164131796 342.147460938 610.359375 341.092773438 c 1,34,35
 613.461234949 237.286955049 613.461234949 237.286955049 631.606445312 178.572265625 c 0,36,37
 643.685943964 139.485931036 643.685943964 139.485931036 662.033203125 121.138671875 c 0,38,39
 684.63671875 98.53515625 684.63671875 98.53515625 744.017578125 98.53515625 c 0,40,41
 754.669647265 98.53515625 754.669647265 98.53515625 777.263612825 99.2322401313 c 128,-1,42
 799.857578385 99.9293240125 799.857578385 99.9293240125 801.80078125 99.9755859375 c 0,43,44
 863.774049894 101.451784271 863.774049894 101.451784271 891.624023438 129.301757812 c 0,45,46
 939.871803062 177.549537437 939.871803062 177.549537437 942.239257812 338.678710938 c 1,47,48
 863.30197927 342.147460938 863.30197927 342.147460938 747.80859375 342.147460938 c 0,32,33
371 81.990234375 m 0,49,50
 426.825647357 81.990234375 426.825647357 81.990234375 455.04296875 110.206054688 c 0,51,52
 477.559925389 132.723011327 477.559925389 132.723011327 490.853515625 177.86328125 c 0,53,54
 508.53682434 237.914029467 508.53682434 237.914029467 509.899414062 339.270507812 c 1,55,56
 352.281752572 335.846387045 352.281752572 335.846387045 184.813476562 329.201171875 c 1,57,58
 200.216644277 173.115739035 200.216644277 173.115739035 253.125 120.204101562 c 0,59,60
 291.338867188 81.990234375 291.338867188 81.990234375 371 81.990234375 c 0,49,50
EndSplineSet
Validated: 1
Position2: "Chrs" dx=0 dy=0 dh=0 dv=0
EndChar

StartChar: u10FC5
Encoding: 69573 69573 21
Width: 244
Flags: W
LayerCount: 2
Fore
SplineSet
118 -77.990195527 m 128,-1,1
 97.2795174083 -77.990195527 97.2795174083 -77.990195527 82.6446609434 -63.3553390594 c 128,-1,2
 68.0098044729 -48.7204825917 68.0098044729 -48.7204825917 68.0098044731 -28 c 0,3,4
 68.009804473 -25.7952508938 68.009804473 -25.7952508938 68.2023976213 -23.5996890012 c 0,5,6
 74.8934994388 52.6788717158 74.8934994388 52.6788717158 74.8934994388 200.45346549 c 0,7,8
 74.8934994388 334.692509096 74.8934994388 334.692509096 70.1039269832 412.922192539 c 0,9,10
 70.0098044729 414.459526873 70.0098044729 414.459526873 70.0098044732 416 c 0,11,12
 70.009804473 436.720482592 70.009804473 436.720482592 84.6446609406 451.355339056 c 128,-1,13
 99.2795174084 465.990195528 99.2795174084 465.990195528 120 465.990195526 c 128,-1,14
 140.720482592 465.990195527 140.720482592 465.990195527 155.355339056 451.35533906 c 0,15,16
 168.739325344 437.971352774 168.739325344 437.971352774 169.896073019 419.077807461 c 0,17,18
 175.10654058 333.973503923 175.10654058 333.973503923 175.10654058 199.57882381 c 0,19,20
 175.10654058 50.9215844922 175.10654058 50.9215844922 167.797602379 -32.4003109988 c 0,21,22
 166.209836538 -50.5008415807 166.209836538 -50.5008415807 153.35533906 -63.3553390593 c 0,23,0
 138.720482592 -77.9901955271 138.720482592 -77.9901955271 118 -77.990195527 c 128,-1,1
EndSplineSet
Validated: 1
Position2: "Chrs" dx=0 dy=0 dh=0 dv=0
EndChar

StartChar: u10FCA
Encoding: 69578 69578 25
Width: 642
Flags: W
LayerCount: 2
Fore
SplineSet
366.803710938 340.947265625 m 1,0,1
 451.54244249 324.793599232 451.54244249 324.793599232 507.759502495 267.583635003 c 128,-1,2
 563.9765625 210.373670774 563.9765625 210.373670774 563.9765625 124.397460938 c 0,3,4
 563.9765625 67.6593950554 563.9765625 67.6593950554 539.547851562 18.5009765625 c 0,5,6
 513.074839425 -34.7687983547 513.074839425 -34.7687983547 429.431640625 -120.671875 c 0,7,8
 414.712454894 -135.790039062 414.712454894 -135.790039062 393.599609375 -135.790039062 c 0,9,10
 373.423943495 -135.790039062 373.423943495 -135.790039062 358.516659247 -120.885492495 c 128,-1,11
 343.609375 -105.980945927 343.609375 -105.980945927 343.609375 -85.7998046875 c 128,-1,12
 343.609375 -65.4682749038 343.609375 -65.4682749038 357.767578125 -50.927734375 c 0,13,14
 430.456157892 23.7265470932 430.456157892 23.7265470932 449.990234375 63.03515625 c 0,15,16
 464.0703125 91.3680047234 464.0703125 91.3680047234 464.0703125 122.361328125 c 0,17,18
 464.0703125 169.706054688 464.0703125 169.706054688 432.732421875 201.043945312 c 0,19,20
 386.655273437 247.12109375 386.655273437 247.12109375 300.657226562 247.12109375 c 0,21,22
 255.916858407 247.12109375 255.916858407 247.12109375 205.318359375 233.205078125 c 0,23,24
 198.787774237 231.41015625 198.787774237 231.41015625 192 231.41015625 c 0,25,26
 171.82433412 231.41015625 171.82433412 231.41015625 156.917049872 246.314702818 c 128,-1,27
 142.009765625 261.219249385 142.009765625 261.219249385 142.009765625 281.400390625 c 0,28,29
 142.009765625 296.029517028 142.009765625 296.029517028 150.488972116 308.736836417 c 128,-1,30
 158.968178608 321.444155807 158.968178608 321.444155807 171.662109375 327.086914062 c 0,31,32
 245.329569967 359.827861648 245.329569967 359.827861648 282.34375 396.84375 c 0,33,34
 305.992002125 420.490739134 305.992002125 420.490739134 314.126953125 445.837890625 c 0,35,36
 318.856445312 460.576758382 318.856445312 460.576758382 318.856445312 477.270507812 c 0,37,38
 318.856445312 485.589599614 318.856445312 485.589599614 317.708984375 495.092773438 c 1,39,40
 285.108139129 516.1015625 285.108139129 516.1015625 191.494140625 516.1015625 c 0,41,42
 147.307786637 516.1015625 147.307786637 516.1015625 120.100585938 510.752929688 c 0,43,44
 115.300292969 509.809570313 115.300292969 509.809570313 110.400390625 509.80957031 c 0,45,46
 90.2247247446 509.809570312 90.2247247446 509.809570312 75.3174404973 524.71411688 c 128,-1,47
 60.41015625 539.618663448 60.41015625 539.618663448 60.41015625 559.799804688 c 0,48,49
 60.41015625 577.535603089 60.41015625 577.535603089 72.1923184027 591.547056954 c 128,-1,50
 83.9744805555 605.558510819 83.9744805555 605.558510819 100.700195312 608.846679688 c 0,51,52
 138.944003264 616.36328125 138.944003264 616.36328125 189.260742188 616.36328125 c 0,53,54
 338.860351562 616.36328125 338.860351562 616.36328125 391.234375 563.989257812 c 0,55,56
 418.790039062 536.433593751 418.790039062 536.433593751 418.790039062 477.434570312 c 0,57,58
 418.790039062 401.461676954 418.790039062 401.461676954 366.803710938 340.947265625 c 1,0,1
EndSplineSet
Validated: 1
Position2: "Chrs" dx=0 dy=0 dh=0 dv=0
EndChar

StartChar: u10FCB
Encoding: 69579 69579 26
Width: 714
Flags: W
LayerCount: 2
Fore
SplineSet
131.009765625 0 m 0,0,1
 131.009765625 20.1756658804 131.009765625 20.1756658804 145.914312193 35.0829501277 c 128,-1,2
 160.81885876 49.990234375 160.81885876 49.990234375 181 49.990234375 c 0,3,4
 206.27979604 49.990234375 206.27979604 49.990234375 221.286132812 29.6240234375 c 0,5,6
 227.09320774 21.7905213231 227.09320774 21.7905213231 247.75 12.123046875 c 0,7,8
 298.322830004 -11.54296875 298.322830004 -11.54296875 364.245117188 -11.54296875 c 0,9,10
 449.731907196 -11.54296875 449.731907196 -11.54296875 489.002929688 27.7294921875 c 0,11,12
 526.8359375 65.5609598819 526.8359375 65.5609598819 526.8359375 138.852539062 c 0,13,14
 526.8359375 178.731835884 526.8359375 178.731835884 515.775460682 221.39905101 c 128,-1,15
 504.714983864 264.066266136 504.714983864 264.066266136 484.16796875 284.61328125 c 0,16,17
 462.077270701 306.703248497 462.077270701 306.703248497 419.807632194 320.004944561 c 128,-1,18
 377.537993687 333.306640625 377.537993687 333.306640625 329.858398438 333.306640625 c 0,19,20
 287.228186615 333.306640625 287.228186615 333.306640625 263.205078125 323.575195312 c 0,21,22
 260.832830835 322.215172006 260.832830835 322.215172006 254.444546228 318.219261543 c 128,-1,23
 248.056261621 314.223351079 248.056261621 314.223351079 245.440994191 313.019411719 c 128,-1,24
 242.825726761 311.815472359 242.825726761 311.815472359 236.945656724 310.370626805 c 128,-1,25
 231.065586687 308.92578125 231.065586687 308.92578125 224.059570312 308.92578125 c 0,26,27
 202.903713232 308.92578125 202.903713232 308.92578125 188.087110522 323.326509665 c 128,-1,28
 173.270507812 337.727238081 173.270507812 337.727238081 173.270507812 359.020507812 c 0,29,30
 173.270507812 370.913153089 173.270507812 370.913153089 176.37084953 379.491612583 c 128,-1,31
 179.471191248 388.070072077 179.471191248 388.070072077 187.837445618 394.712846729 c 128,-1,32
 196.203699988 401.355621381 196.203699988 401.355621381 200.285168635 403.731753516 c 128,-1,33
 204.366637281 406.10788565 204.366637281 406.10788565 216.595703125 412.216796875 c 0,34,35
 270.825617512 443.909979703 270.825617512 443.909979703 304.966796875 478.049804688 c 0,36,37
 324.932254944 498.015262756 324.932254944 498.015262756 333.047851562 514.581054688 c 0,38,39
 337.505859375 523.67989464 337.505859375 523.67989464 337.505859375 529.954101562 c 0,40,41
 337.505859375 537.91112919 337.505859375 537.91112919 327.25 548.1640625 c 0,42,43
 312.896072057 562.519136008 312.896072057 562.519136008 281.405265352 572.07841566 c 128,-1,44
 249.914458647 581.637695312 249.914458647 581.637695312 216.546875 581.637695312 c 0,45,46
 185.038447824 581.637695312 185.038447824 581.637695312 163.866210938 574.579101562 c 0,47,48
 156.156738281 572.009765626 156.156738281 572.009765626 148 572.009765623 c 0,49,50
 127.82433412 572.009765625 127.82433412 572.009765625 112.917049872 586.914312193 c 128,-1,51
 98.009765625 601.81885876 98.009765625 601.81885876 98.009765625 622 c 0,52,53
 98.009765625 681.641601562 98.009765625 681.641601562 216.979492188 681.641601562 c 0,54,55
 248.928902816 681.641601562 248.928902816 681.641601562 279.870117188 675.8046875 c 0,56,57
 355.253906728 661.582030772 355.253906728 661.582030772 397.9609375 618.875 c 0,58,59
 437.490234375 579.347587895 437.490234375 579.347587895 437.490234375 529.873046875 c 0,60,61
 437.490234375 479.207615914 437.490234375 479.207615914 394.946289062 428.2890625 c 1,62,63
 497.98897602 412.212887116 497.98897602 412.212887116 554.87890625 355.32421875 c 0,64,65
 588.000896083 322.200145642 588.000896083 322.200145642 607.448690229 262.050956173 c 128,-1,66
 626.896484375 201.901766705 626.896484375 201.901766705 626.896484375 140.03515625 c 0,67,68
 626.896484375 121.245981568 626.896484375 121.245981568 624.9296875 103.107421875 c 0,69,70
 615.096728234 12.4014157331 615.096728234 12.4014157331 559.713867188 -42.9814453125 c 0,71,72
 537.905254698 -64.7900578019 537.905254698 -64.7900578019 510.208007812 -79.298828125 c 0,73,74
 447.983598227 -111.891601562 447.983598227 -111.891601562 366.40234375 -111.891601562 c 0,75,76
 276.784158235 -111.891601562 276.784158235 -111.891601562 205.314453125 -78.447265625 c 0,77,78
 161.622170602 -57.9994874557 161.622170602 -57.9994874557 140.713867188 -29.6240234375 c 0,79,80
 131.009765625 -16.4557407138 131.009765625 -16.4557407138 131.009765625 0 c 0,0,1
364 107.009765625 m 128,-1,82
 343.82433412 107.009765625 343.82433412 107.009765625 328.917049872 121.914312193 c 128,-1,83
 314.009765625 136.81885876 314.009765625 136.81885876 314.009765625 157 c 128,-1,84
 314.009765625 177.17566588 314.009765625 177.17566588 328.914312193 192.082950128 c 128,-1,85
 343.81885876 206.990234375 343.81885876 206.990234375 364 206.990234375 c 128,-1,86
 384.17566588 206.990234375 384.17566588 206.990234375 399.082950128 192.085687807 c 128,-1,87
 413.990234375 177.18114124 413.990234375 177.18114124 413.990234375 157 c 128,-1,88
 413.990234375 136.82433412 413.990234375 136.82433412 399.085687807 121.917049872 c 128,-1,81
 384.18114124 107.009765625 384.18114124 107.009765625 364 107.009765625 c 128,-1,82
EndSplineSet
Validated: 1
Position2: "Chrs" dx=0 dy=0 dh=0 dv=0
EndChar

StartChar: uni10FC9
Encoding: 69577 69577 27
Width: 704
Flags: W
LayerCount: 2
Fore
SplineSet
74.009765625 34 m 0,0,1
 74.009765625 54.1756658804 74.009765625 54.1756658804 88.9143121926 69.0829501277 c 128,-1,2
 103.81885876 83.990234375 103.81885876 83.990234375 124 83.990234375 c 0,3,4
 127.996826172 83.990234375 127.996826172 83.990234375 139.308837891 83.8139648438 c 128,-1,5
 150.620849609 83.6376953125 150.620849609 83.6376953125 158.333984375 83.6376953125 c 0,6,7
 352.442832078 83.6376953125 352.442832078 83.6376953125 477.756835938 97.4287109375 c 0,8,9
 513.301674617 101.341317486 513.301674617 101.341317486 528.567382812 105.583007812 c 1,10,11
 523.106215455 138.93480017 523.106215455 138.93480017 494.908203125 167.1328125 c 0,12,13
 460.058271046 201.982744581 460.058271046 201.982744581 366.884765625 264.967773438 c 0,14,15
 223.343861231 362.002347632 223.343861231 362.002347632 109.388671875 407.584960938 c 0,16,17
 96.018272129 412.933977364 96.018272129 412.933977364 87.014018877 425.882435052 c 128,-1,18
 78.009765625 438.830892739 78.009765625 438.830892739 78.009765625 454 c 0,19,20
 78.009765625 474.17566588 78.009765625 474.17566588 92.9143121926 489.082950128 c 128,-1,21
 107.81885876 503.990234375 107.81885876 503.990234375 128 503.990234375 c 0,22,23
 137.674072166 503.990234375 137.674072166 503.990234375 146.611328125 500.415039062 c 0,24,25
 270.458380071 450.875960329 270.458380071 450.875960329 422.83203125 347.87109375 c 0,26,27
 523.93766963 279.524244432 523.93766963 279.524244432 565.619140625 237.842773438 c 0,28,29
 591.446195029 212.015719034 591.446195029 212.015719034 611.0859375 171.240234375 c 0,30,31
 628.995117188 134.057615252 628.995117188 134.057615252 628.995117188 102.841796875 c 0,32,33
 628.995117188 62.0468750003 628.995117188 62.0468750003 602.618164062 35.669921875 c 0,34,35
 583.877157415 16.9289152278 583.877157415 16.9289152278 559.360892665 10.0257184611 c 128,-1,36
 534.844627915 3.12252169444 534.844627915 3.12252169444 488.771484375 -1.947265625 c 0,37,38
 357.759305148 -16.3662109375 357.759305148 -16.3662109375 160.134765625 -16.3662109375 c 0,39,40
 156.576038014 -16.3662109375 156.576038014 -16.3662109375 144.698281295 -16.4951108158 c 128,-1,41
 132.820524576 -16.6240106941 132.820524576 -16.6240106941 129.902911502 -16.4848314458 c 128,-1,42
 126.985298429 -16.3456521974 126.985298429 -16.3456521974 118.799386663 -15.6028001006 c 128,-1,43
 110.613474898 -14.8599480037 110.613474898 -14.8599480037 107.086557772 -13.2582760045 c 128,-1,44
 103.559640646 -11.6566040053 103.559640646 -11.6566040053 98.3052805377 -8.70923096734 c 128,-1,45
 93.0509204294 -5.7618579294 93.0509204294 -5.7618579294 88.64453125 -1.35546875 c 0,46,47
 74.009765625 13.279296875 74.009765625 13.279296875 74.009765625 34 c 0,0,1
EndSplineSet
Validated: 33
EndChar

StartChar: DiakAfull
Encoding: 71936 71936 28
Width: 971
Flags: W
HStem: -196.625 60<705.507 810.166> 212.904 60.9592<104.072 227.217> 429.439 59.5216<522.326 715.505> 631.543 60<101.612 207.102>
VStem: 18.3203 60.0186<535.594 608.758> 595.797 59.8018<-78.2735 169.051>
LayerCount: 2
Fore
SplineSet
170.79296875 691.54296875 m 0,0,1
 207.040039062 691.54296875 207.040039062 691.54296875 234.33203125 669.266601562 c 128,-1,2
 261.623046875 646.991210938 261.623046875 646.991210938 268.443359375 613.890625 c 128,-1,3
 275.302734375 580.600585938 275.302734375 580.600585938 260.44140625 545.806640625 c 128,-1,4
 245.580078125 511.013671875 245.580078125 511.013671875 212.024284456 485.255180561 c 128,-1,5
 178.468490788 459.496689248 178.468490788 459.496689248 142.42809305 419.436821186 c 128,-1,6
 106.387695312 379.376953125 106.387695312 379.376953125 101.787109375 374.3515625 c 0,7,8
 59.8504832307 328.543179141 59.8504832307 328.543179141 99.015625 299.013671875 c 0,9,10
 120.780273438 282.604492188 120.780273438 282.604492188 160.33203125 276.388671875 c 0,11,12
 174.876174079 274.10326632 174.876174079 274.10326632 191 273.863446045 c 0,13,14
 218.722684625 273.451108309 218.722684625 273.451108309 251.115234375 279.0859375 c 0,15,16
 252.73828125 279.418945312 252.73828125 279.418945312 261.283203125 280.89453125 c 1,17,18
 297.858398438 335.006835938 297.858398438 335.006835938 357.625976562 382.157226562 c 128,-1,19
 417.393554688 429.307617188 417.393554688 429.307617188 486.9921875 458.26953125 c 0,20,21
 558.547552839 488.045102032 558.547552839 488.045102032 623 488.961052248 c 0,22,23
 653.902352703 489.400213488 653.902352703 489.400213488 683.171875 483.205078125 c 0,24,25
 790.17578125 460.556640625 790.17578125 460.556640625 851.896484375 353.654296875 c 0,26,27
 883.271484375 299.3125 883.271484375 299.3125 872.51171875 246.671875 c 0,28,29
 865.896484375 214.309570312 865.896484375 214.309570312 839.4453125 167.345703125 c 1,30,31
 880.6328125 132.918945312 880.6328125 132.918945312 895.693359375 77.9287109375 c 128,-1,32
 910.752929688 22.9375 910.752929688 22.9375 902.510742188 -37.7763671875 c 128,-1,33
 894.268554688 -98.490234375 894.268554688 -98.490234375 861.014160156 -147.557617188 c 128,-1,34
 827.759765625 -196.625 827.759765625 -196.625 778.21875 -196.625 c 128,-1,35
 728.677734375 -196.625 728.677734375 -196.625 690.9921875 -176.2421875 c 0,36,37
 588.704861927 -120.918501069 588.704861927 -120.918501069 595.796875 47.328125 c 0,38,39
 599.62890625 138.221679688 599.62890625 138.221679688 634.119140625 234.747070312 c 128,-1,40
 668.608398438 331.271484375 668.608398438 331.271484375 723.451171875 404.544921875 c 1,41,42
 679.097161115 430.170002684 679.097161115 430.170002684 625 429.439423937 c 4,43,44
 572.167883177 428.725929532 572.167883177 428.725929532 510.04296875 402.875 c 0,45,46
 417.42578125 364.334960938 417.42578125 364.334960938 343.033203125 283.5 c 1,47,48
 418.305664062 274.219726562 418.305664062 274.219726562 461.498046875 225.779296875 c 0,49,50
 494.068359375 189.251953125 494.068359375 189.251953125 495.583007812 140.646484375 c 128,-1,51
 497.09765625 92.041015625 497.09765625 92.041015625 461.520507812 47.3740234375 c 128,-1,52
 425.943359375 2.70703125 425.943359375 2.70703125 376.317871094 0.1591796875 c 128,-1,53
 326.692382812 -2.388671875 326.692382812 -2.388671875 286.655761719 29.4389648438 c 128,-1,54
 246.619140625 61.2666015625 246.619140625 61.2666015625 227.805986837 111.611208493 c 128,-1,55
 208.992833048 161.955815423 208.992833048 161.955815423 226.857421875 212.0625 c 0,56,57
 227.506835938 213.887695312 227.506835938 213.887695312 227.84765625 214.896484375 c 1,58,59
 207.641271428 212.783625714 207.641271428 212.783625714 189 212.904277265 c 0,60,61
 112.90847423 213.396763018 112.90847423 213.396763018 62.89453125 251.103515625 c 0,62,63
 22.5078125 281.551757812 22.5078125 281.551757812 19.96484375 326.301757812 c 128,-1,64
 17.421875 371.051757812 17.421875 371.051757812 57.533203125 414.8671875 c 0,65,66
 62.482421875 420.2734375 62.482421875 420.2734375 79.98828125 439.833007812 c 128,-1,67
 97.4931640625 459.392578125 97.4931640625 459.392578125 107.958984375 470.53125 c 1,68,69
 52.3719926683 480.501393183 52.3719926683 480.501393183 29.7548828125 522.998046875 c 0,70,71
 17.9189453125 545.236328125 17.9189453125 545.236328125 18.3203125 569.451171875 c 0,72,73
 19.138671875 618.762695312 19.138671875 618.762695312 61.859375 655.153320312 c 128,-1,74
 104.580078125 691.54296875 104.580078125 691.54296875 170.79296875 691.54296875 c 0,0,1
170.79296875 631.54296875 m 0,75,76
 125.389648438 631.54296875 125.389648438 631.54296875 102.041015625 611.51953125 c 128,-1,77
 78.693359375 591.49609375 78.693359375 591.49609375 78.3388671875 570.122558594 c 128,-1,78
 77.984375 548.749023438 77.984375 548.749023438 99.5766601562 535.16796875 c 128,-1,79
 121.168945312 521.586914062 121.168945312 521.586914062 171.740234375 531.263671875 c 0,80,81
 173.5166163 531.273999677 173.5166163 531.273999677 174.056640625 531.72265625 c 128,-1,82
 174.443359375 532.043945312 174.443359375 532.043945312 174.650390625 532.203125 c 0,83,84
 217.272460938 564.920898438 217.272460938 564.920898438 209.677734375 601.783203125 c 0,85,86
 203.545898438 631.54296875 203.545898438 631.54296875 170.79296875 631.54296875 c 0,75,76
769.681640625 366.171875 m 1,87,88
 722.247070312 301.547851562 722.247070312 301.547851562 690.65625 212.571289062 c 128,-1,89
 659.065429688 123.59375 659.065429688 123.59375 655.598632812 41.3525390625 c 128,-1,90
 652.131835938 -40.888671875 652.131835938 -40.888671875 682.091308594 -88.7568359375 c 128,-1,91
 712.05078125 -136.625 712.05078125 -136.625 776.56640625 -136.625 c 0,92,93
 795.94140625 -136.625 795.94140625 -136.625 816.323730469 -106.551269531 c 128,-1,94
 836.706054688 -76.4775390625 836.706054688 -76.4775390625 843.528320312 -26.2231445312 c 128,-1,95
 850.350585938 24.03125 850.350585938 24.03125 835.696289062 68.1572265625 c 128,-1,96
 821.041015625 112.282226562 821.041015625 112.282226562 785.123046875 132.296875 c 0,97,98
 769.74609375 140.868164062 769.74609375 140.868164062 769.74609375 153.782714844 c 128,-1,99
 769.74609375 166.697265625 769.74609375 166.697265625 773.859375 173.69921875 c 0,100,101
 808.361328125 232.424804688 808.361328125 232.424804688 814.145507812 260.724609375 c 0,102,103
 823.302834653 305.52794797 823.302834653 305.52794797 769.681640625 366.171875 c 1,87,88
418.133801347 184.255206843 m 128,-1,105
 377.451196443 229.881507437 377.451196443 229.881507437 298.693359375 225.041015625 c 1,106,107
 287.029296875 205.137695312 287.029296875 205.137695312 280.624023438 182.922363281 c 128,-1,108
 274.21875 160.70703125 274.21875 160.70703125 286.390625 128.665039062 c 128,-1,109
 298.5625 96.6240234375 298.5625 96.6240234375 322.41796875 77.6606445312 c 0,110,111
 375.357920906 35.57719681 375.357920906 35.57719681 417.087163578 87.10305153 c 128,-1,104
 458.81640625 138.62890625 458.81640625 138.62890625 418.133801347 184.255206843 c 128,-1,105
EndSplineSet
EndChar

StartChar: DiakIfull
Encoding: 71938 71938 30
Width: 806
Flags: W
HStem: -203.882 60.0391<109.915 467.737> 355.415 60.1067<386.516 551.321> 629.481 60.8193<92.3879 191.335>
VStem: 27 93.4404<515.208 592.92> 220.601 60.5654<485.473 598.141> 661.285 61.2652<54.4485 253.094>
LayerCount: 2
Fore
SplineSet
29.1630859375 615.521484375 m 128,-1,1
 42.787109375 649.720703125 42.787109375 649.720703125 73.7119140625 669.91015625 c 128,-1,2
 104.63671875 690.100585938 104.63671875 690.100585938 139.12890625 690.30078125 c 128,-1,3
 173.622070312 690.5 173.622070312 690.5 200.080078125 675.987304688 c 0,4,5
 245.147460938 651.267578125 245.147460938 651.267578125 270.083984375 594.6328125 c 0,6,7
 280.842989497 570.197955746 280.842989497 570.197955746 281.166188723 545 c 4,8,9
 281.592109012 511.793483002 281.592109012 511.793483002 263.89453125 477.26171875 c 0,10,11
 232.768554688 416.525390625 232.768554688 416.525390625 157.708984375 347.651367188 c 1,12,13
 231.275390625 329.8671875 231.275390625 329.8671875 265.162109375 317.791992188 c 1,14,15
 316.716796875 371.534179688 316.716796875 371.534179688 386.390625 400.008789062 c 0,16,17
 421.709945285 414.443499526 421.709945285 414.443499526 459 415.522095596 c 0,18,19
 513.028192018 417.084833866 513.028192018 417.084833866 571.193359375 390.610351562 c 0,20,21
 615.108398438 370.622070312 615.108398438 370.622070312 649.056640625 338.34765625 c 128,-1,22
 683.004882812 306.07421875 683.004882812 306.07421875 700.03515625 265.823242188 c 0,23,24
 722.853899607 215.264091717 722.853899607 215.264091717 722.550325051 159 c 0,25,26
 722.182814431 90.8860857061 722.182814431 90.8860857061 687.927734375 14.4111328125 c 0,27,28
 657.930664062 -52.55859375 657.930664062 -52.55859375 609.038085938 -103.508789062 c 128,-1,29
 560.145507812 -154.458007812 560.145507812 -154.458007812 503.545898438 -173.6171875 c 128,-1,30
 446.946289062 -192.776367188 446.946289062 -192.776367188 396.188476562 -200.096679688 c 128,-1,31
 345.431640625 -207.416015625 345.431640625 -207.416015625 287.481445312 -203.881835938 c 0,32,33
 204.521484375 -198.821289062 204.521484375 -198.821289062 137.865234375 -187.5703125 c 128,-1,34
 71.2099609375 -176.3203125 71.2099609375 -176.3203125 62.2509765625 -174.8203125 c 128,-1,35
 53.2919921875 -173.3203125 53.2919921875 -173.3203125 46.1328125 -164.967773438 c 128,-1,36
 38.9736328125 -156.616210938 38.9736328125 -156.616210938 38.9736328125 -149.828125 c 128,-1,37
 38.9736328125 -143.040039062 38.9736328125 -143.040039062 40.078125 -136.443359375 c 128,-1,38
 41.1826171875 -129.845703125 41.1826171875 -129.845703125 49.53515625 -122.686523438 c 128,-1,39
 57.88671875 -115.52734375 57.88671875 -115.52734375 64.6748046875 -115.52734375 c 128,-1,40
 71.5126953125 -115.52734375 71.5126953125 -115.52734375 116.749023438 -123.14453125 c 128,-1,41
 161.984375 -130.760742188 161.984375 -130.760742188 197.705078125 -135.579101562 c 128,-1,42
 233.424804688 -140.397460938 233.424804688 -140.397460938 287.499023438 -143.842773438 c 128,-1,43
 341.573242188 -147.2890625 341.573242188 -147.2890625 387.153320312 -140.765625 c 128,-1,44
 432.734375 -134.243164062 432.734375 -134.243164062 479.3828125 -118.452148438 c 128,-1,45
 525.875976562 -102.713867188 525.875976562 -102.713867188 567.000976562 -59.84375 c 128,-1,46
 608.125 -16.9736328125 608.125 -16.9736328125 632.91796875 38.376953125 c 128,-1,47
 657.7109375 93.7275390625 657.7109375 93.7275390625 661.28515625 148.529296875 c 128,-1,48
 664.859375 203.331054688 664.859375 203.331054688 645.90625 240.049804688 c 0,49,50
 645.325195312 241.163085938 645.325195312 241.163085938 644.849609375 242.291992188 c 0,51,52
 633.080078125 270.20703125 633.080078125 270.20703125 606.598632812 295.416992188 c 128,-1,53
 580.116210938 320.626953125 580.116210938 320.626953125 546.337890625 336.000976562 c 0,54,55
 502.573299737 355.921213842 502.573299737 355.921213842 463 355.415436813 c 0,56,57
 434.9943951 355.057503769 434.9943951 355.057503769 409.087890625 344.469726562 c 0,58,59
 363.0390625 325.649414062 363.0390625 325.649414062 324.23046875 291.176757812 c 1,60,61
 394.844726562 250.424804688 394.844726562 250.424804688 425.16796875 183.17578125 c 128,-1,62
 455.491210938 115.92578125 455.491210938 115.92578125 433.8671875 67.8671875 c 128,-1,63
 412.244140625 19.8076171875 412.244140625 19.8076171875 362.11328125 5 c 128,-1,64
 311.982421875 -9.8076171875 311.982421875 -9.8076171875 263.56640625 13.3642578125 c 128,-1,65
 215.150390625 36.53515625 215.150390625 36.53515625 198.46484375 90.9794921875 c 0,66,67
 171.32421875 179.536132812 171.32421875 179.536132812 225.912109375 267.555664062 c 1,68,69
 203.401367188 274.470703125 203.401367188 274.470703125 156.674804688 285.920898438 c 128,-1,70
 109.947265625 297.372070312 109.947265625 297.372070312 88.025390625 303.73828125 c 128,-1,71
 66.1044921875 310.103515625 66.1044921875 310.103515625 66.1044921875 328.046875 c 128,-1,72
 66.1044921875 345.989257812 66.1044921875 345.989257812 72.8359375 352.040039062 c 128,-1,73
 79.568359375 358.090820312 79.568359375 358.090820312 99.416015625 375.865234375 c 128,-1,74
 119.262695312 393.638671875 119.262695312 393.638671875 136.267578125 409.890625 c 0,75,76
 186.599609375 457.994140625 186.599609375 457.994140625 211.60546875 506.786132812 c 0,77,78
 220.299642703 523.751385899 220.299642703 523.751385899 220.600811613 541 c 0,79,80
 220.888426545 557.472347573 220.888426545 557.472347573 213.521484375 574.203125 c 0,81,82
 198.44140625 608.452148438 198.44140625 608.452148438 171.224609375 623.381835938 c 0,83,84
 157.25390625 630.93359375 157.25390625 630.93359375 138.288085938 629.481445312 c 128,-1,85
 119.322265625 628.030273438 119.322265625 628.030273438 105.84375 619.23046875 c 128,-1,86
 92.365234375 610.430664062 92.365234375 610.430664062 86.5546875 600.883789062 c 1,87,88
 97.640625 595.879882812 97.640625 595.879882812 108.525390625 582.546875 c 128,-1,89
 119.41015625 569.212890625 119.41015625 569.212890625 120.440429688 554.7109375 c 0,90,91
 122.845703125 520.88671875 122.845703125 520.88671875 87.14453125 510.483398438 c 0,92,93
 68.794921875 505.13671875 68.794921875 505.13671875 50.513671875 512.765625 c 128,-1,94
 32.2333984375 520.395507812 32.2333984375 520.395507812 27 543.930664062 c 0,95,0
 15.5390625 581.321289062 15.5390625 581.321289062 29.1630859375 615.521484375 c 128,-1,1
283.041015625 245.315429688 m 1,96,97
 235.05859375 176.337890625 235.05859375 176.337890625 255.830078125 108.561523438 c 0,98,99
 265.57421875 76.7685546875 265.57421875 76.7685546875 291.014648438 65.4228515625 c 128,-1,100
 316.455078125 54.0771484375 316.455078125 54.0771484375 342.642578125 61.8125 c 128,-1,101
 368.829101562 69.546875 368.829101562 69.546875 379.2578125 92.72265625 c 128,-1,102
 389.686523438 115.8984375 389.686523438 115.8984375 372.18359375 154.713867188 c 0,103,104
 345.235351562 214.477539062 345.235351562 214.477539062 283.041015625 245.315429688 c 1,96,97
EndSplineSet
EndChar

StartChar: DiakUfull
Encoding: 71940 71940 32
Width: 968
Flags: W
HStem: 0 59.7029<349.575 643.57> 453.939 60<101.505 187.017> 631.826 60.0156<266.316 368.4>
VStem: 20.7553 60.1745<529.279 633.431> 138.205 60.3021<161.5 296.896> 210.967 60<538.162 626.726> 379.57 57.8915<522.268 608.814> 819.471 60<232.098 416.21>
LayerCount: 2
Fore
SplineSet
265.586914062 623.579101562 m 1,0,1
 270.966796875 608.0859375 270.966796875 608.0859375 270.966796875 590.319335938 c 0,2,3
 270.966796875 538.8515625 270.966796875 538.8515625 232.600585938 496.395507812 c 128,-1,4
 194.234375 453.939453125 194.234375 453.939453125 138.131835938 453.939453125 c 0,5,6
 105.057617188 453.939453125 105.057617188 453.939453125 76.6611328125 473.620117188 c 0,7,8
 21.305956651 511.986607123 21.305956651 511.986607123 20.7553083542 579 c 4,9,10
 20.4230219128 619.43895527 20.4230219128 619.43895527 49.205078125 653.708007812 c 0,11,12
 58.130859375 663.43359375 58.130859375 663.43359375 70.9296875 663.43359375 c 128,-1,13
 83.7275390625 663.43359375 83.7275390625 663.43359375 92.5185546875 654.642578125 c 128,-1,14
 101.309570312 645.8515625 101.309570312 645.8515625 101.309570312 633.806640625 c 128,-1,15
 101.309570312 621.760742188 101.309570312 621.760742188 93.4140625 613.159179688 c 0,16,17
 80.8569084975 597.443634009 80.8569084975 597.443634009 80.9298500168 579 c 0,18,19
 81.0700015981 543.561960129 81.0700015981 543.561960129 106.674804688 525.814453125 c 0,20,21
 123.80859375 513.939453125 123.80859375 513.939453125 141.607421875 513.939453125 c 128,-1,22
 159.40625 513.939453125 159.40625 513.939453125 176.159179688 526.28515625 c 128,-1,23
 192.913085938 538.630859375 192.913085938 538.630859375 201.940429688 556.506835938 c 128,-1,24
 210.966796875 574.3828125 210.966796875 574.3828125 210.966796875 590.109375 c 128,-1,25
 210.966796875 605.8359375 210.966796875 605.8359375 202.1875 613.737304688 c 128,-1,26
 193.408203125 621.638671875 193.408203125 621.638671875 193.408203125 636.541992188 c 128,-1,27
 193.408203125 651.446289062 193.408203125 651.446289062 207.31640625 660.309570312 c 0,28,29
 260.508789062 694.208984375 260.508789062 694.208984375 321.921875 691.841796875 c 128,-1,30
 383.334960938 689.474609375 383.334960938 689.474609375 414.750976562 649.702148438 c 0,31,32
 434.373046875 624.861328125 434.373046875 624.861328125 437.461914062 591.892578125 c 128,-1,33
 440.55078125 558.923828125 440.55078125 558.923828125 426.564453125 525.754882812 c 0,34,35
 402.967871325 469.798874933 402.967871325 469.798874933 344.326171875 423.981445312 c 0,36,37
 256.926757812 355.694335938 256.926757812 355.694335938 227.716796875 309.749023438 c 128,-1,38
 198.506835938 263.802734375 198.506835938 263.802734375 198.506835938 222.558105469 c 128,-1,39
 198.506835938 181.313476562 198.506835938 181.313476562 239.015625 138.739257812 c 128,-1,40
 279.525390625 96.1650390625 279.525390625 96.1650390625 368.447265625 76.583984375 c 0,41,42
 442.907598924 60.1883245097 442.907598924 60.1883245097 507 59.7029178724 c 0,43,44
 630.853987544 58.764904214 630.853987544 58.764904214 715.991210938 117.240234375 c 0,45,46
 716.422851562 117.537109375 716.422851562 117.537109375 716.87109375 117.822265625 c 0,47,48
 751.708984375 139.991210938 751.708984375 139.991210938 785.58984375 205.27734375 c 128,-1,49
 819.470703125 270.563476562 819.470703125 270.563476562 819.470703125 341.700195312 c 128,-1,50
 819.470703125 412.836914062 819.470703125 412.836914062 777.321289062 431.208984375 c 0,51,52
 759.28515625 439.071289062 759.28515625 439.071289062 759.28515625 456.716796875 c 128,-1,53
 759.28515625 474.36328125 759.28515625 474.36328125 772.630859375 483.630859375 c 128,-1,54
 785.9765625 492.897460938 785.9765625 492.897460938 801.249023438 486.240234375 c 0,55,56
 842.227539062 468.37890625 842.227539062 468.37890625 860.849609375 429.399414062 c 128,-1,57
 879.470703125 390.419921875 879.470703125 390.419921875 879.470703125 341.907226562 c 0,58,59
 879.470703125 255.9140625 879.470703125 255.9140625 838.595703125 177.151367188 c 128,-1,60
 797.720703125 98.388671875 797.720703125 98.388671875 749.479492188 67.4580078125 c 0,61,62
 650.958007812 0 650.958007812 0 509.8046875 0 c 0,63,64
 437.1875 0 437.1875 0 355.505859375 17.986328125 c 0,65,66
 248.737304688 41.4951171875 248.737304688 41.4951171875 190.704101562 102.487304688 c 0,67,68
 138.594089702 157.256204257 138.594089702 157.256204257 138.204774695 229 c 0,69,70
 137.926164043 280.342962284 137.926164043 280.342962284 169.023925781 329.256835938 c 0,71,72
 211.830078125 396.586914062 211.830078125 396.586914062 300.641601562 465.98046875 c 0,73,74
 330.928710938 489.64453125 330.928710938 489.64453125 345.21484375 505.440429688 c 0,75,76
 378.750826868 542.522804624 378.750826868 542.522804624 379.57043818 581 c 0,77,78
 379.91177706 597.024379591 379.91177706 597.024379591 370.297851562 609.1953125 c 0,79,80
 353.404296875 630.58203125 353.404296875 630.58203125 321.12109375 631.826171875 c 128,-1,81
 288.837890625 633.071289062 288.837890625 633.071289062 265.586914062 623.579101562 c 1,0,1
EndSplineSet
EndChar

StartChar: DiakUUfull
Encoding: 71941 71941 33
Width: 1087
Flags: W
HStem: -0.743745 59.6085<346.287 643.027> 441.653 60.4021<690.848 789.527> 630.929 59.9629<265.85 368.018>
VStem: 20 60.8984<528.804 632.974> 137.311 60.2228<159.949 293.621> 599.897 62.1133<284.798 411.958> 817.822 59.0359<233.353 411.781>
LayerCount: 2
Fore
SplineSet
206.051757812 659.469726562 m 0,0,1
 259.282563032 693.393131703 259.282563032 693.393131703 323.997070312 690.891601562 c 0,2,3
 357.098632812 689.616210938 357.098632812 689.616210938 383.3046875 674.390625 c 128,-1,4
 409.509765625 659.165039062 409.509765625 659.165039062 423.065429688 634.467773438 c 0,5,6
 450.161132812 585.1015625 450.161132812 585.1015625 427.834472656 531.423828125 c 128,-1,7
 405.5078125 477.74609375 405.5078125 477.74609375 367.854492188 443.731445312 c 0,8,9
 357.01171875 433.936523438 357.01171875 433.936523438 334.577148438 416.416015625 c 0,10,11
 196.480603679 308.568102444 196.480603679 308.568102444 197.533743559 224 c 0,12,13
 198.295000216 162.870389292 198.295000216 162.870389292 257.442382812 121.7734375 c 0,14,15
 347.229146434 59.3875442628 347.229146434 59.3875442628 508 58.8647609128 c 0,16,17
 630.378063287 58.466820537 630.378063287 58.466820537 714.727539062 116.401367188 c 0,18,19
 715.15234375 116.693359375 715.15234375 116.693359375 715.606445312 116.981445312 c 0,20,21
 736.638671875 130.366210938 736.638671875 130.366210938 758.297851562 161.407226562 c 1,22,23
 672.671633492 193.336504399 672.671633492 193.336504399 622.446289062 264.741210938 c 1,24,25
 597.69140625 303.435546875 597.69140625 303.435546875 599.897460938 348.40625 c 128,-1,26
 602.103515625 393.376953125 602.103515625 393.376953125 627.699707031 436.300292969 c 0,27,28
 666.195727483 500.855903692 666.195727483 500.855903692 734 502.05544158 c 0,29,30
 765.511028699 502.612908999 765.511028699 502.612908999 800.326660156 485.303710938 c 0,31,32
 876.715837862 447.325499679 876.715837862 447.325499679 876.857689961 336 c 0,33,34
 876.93744685 273.406809406 876.93744685 273.406809406 849.424804688 202.875976562 c 1,35,36
 920.3203125 198.471679688 920.3203125 198.471679688 982.182617188 232.565429688 c 0,37,38
 989.001953125 236.323242188 989.001953125 236.323242188 1001.68359375 236.323242188 c 128,-1,39
 1014.36523438 236.323242188 1014.36523438 236.323242188 1020.52978516 225.137695312 c 128,-1,40
 1026.69433594 213.952148438 1026.69433594 213.952148438 1026.69433594 201.270019531 c 128,-1,41
 1026.69433594 188.587890625 1026.69433594 188.587890625 1011.14355469 180.016601562 c 0,42,43
 922.064453125 130.923828125 922.064453125 130.923828125 821.268554688 145.381835938 c 1,44,45
 791.383789062 96.0947265625 791.383789062 96.0947265625 747.833007812 66.3720703125 c 0,46,47
 647.856672793 -1.26270122608 647.856672793 -1.26270122608 507 -0.743745045266 c 0,48,49
 326.014797236 -0.076943907998 326.014797236 -0.076943907998 226.118164062 70.4775390625 c 0,50,51
 137.940423269 131.746936647 137.940423269 131.746936647 137.310988954 226 c 0,52,53
 136.960205174 278.527237561 136.960205174 278.527237561 169.723632812 331.438476562 c 0,54,55
 208.596227252 394.214466454 208.596227252 394.214466454 297.404296875 463.6796875 c 0,56,57
 319.978515625 481.338867188 319.978515625 481.338867188 327.633789062 488.254882812 c 0,58,59
 355.287109375 513.237304688 355.287109375 513.237304688 369.486816406 547.375976562 c 128,-1,60
 383.686523438 581.514648438 383.686523438 581.514648438 370.467773438 605.598632812 c 128,-1,61
 357.315429688 629.561523438 357.315429688 629.561523438 321.838378906 630.928710938 c 128,-1,62
 286.361328125 632.295898438 286.361328125 632.295898438 264.577148438 623.088867188 c 1,63,64
 279.208984375 582.176757812 279.208984375 582.176757812 260.639160156 541.773925781 c 0,65,66
 222.485284538 458.761582218 222.485284538 458.761582218 144.094726562 453.364257812 c 0,67,68
 107.958984375 450.875976562 107.958984375 450.875976562 77.5 471.186523438 c 128,-1,69
 47.041015625 491.49609375 47.041015625 491.49609375 32.0556640625 521.943359375 c 128,-1,70
 17.0703125 552.390625 17.0703125 552.390625 20 589 c 128,-1,71
 22.9296875 625.608398438 22.9296875 625.608398438 47.9736328125 652.895507812 c 0,72,73
 56.8876953125 662.609375 56.8876953125 662.609375 69.3232421875 662.609375 c 128,-1,74
 81.7587890625 662.609375 81.7587890625 662.609375 90.9169921875 654.204101562 c 128,-1,75
 100.075195312 645.798828125 100.075195312 645.798828125 100.075195312 633.36328125 c 128,-1,76
 100.075195312 620.927734375 100.075195312 620.927734375 89.1098632812 607.051757812 c 128,-1,77
 78.14453125 593.17578125 78.14453125 593.17578125 80.8984375 570.612304688 c 128,-1,78
 83.65234375 548.047851562 83.65234375 548.047851562 101.387695312 529.91796875 c 128,-1,79
 119.122070312 511.788085938 119.122070312 511.788085938 139.973632812 513.223632812 c 0,80,81
 182.837890625 516.174804688 182.837890625 516.174804688 202.545898438 559.051757812 c 0,82,83
 210.13671875 577.573242188 210.13671875 577.573242188 209.349609375 591.817382812 c 128,-1,84
 208.561523438 606.060546875 208.561523438 606.060546875 200.353027344 613.448242188 c 128,-1,85
 192.14453125 620.8359375 192.14453125 620.8359375 192.14453125 635.720214844 c 128,-1,86
 192.14453125 650.604492188 192.14453125 650.604492188 206.051757812 659.469726562 c 0,0,1
788.166992188 214.608398438 m 1,87,88
 818 281 818 281 817.821771477 336 c 0,89,90
 817 410 817 410 772.595210931 432.083735953 c 0,91,92
 751 443 751 443 734 441.653320312 c 4,93,94
 700 440 700 440 678.66796875 404.622558594 c 0,95,96
 664 379 664 379 662.010742188 346.3984375 c 0,97,98
 660 314 660 314 671.487304688 299.315429688 c 0,99,100
 715 239 715 239 788.166992188 214.608398438 c 1,87,88
EndSplineSet
EndChar

StartChar: DiakEfull
Encoding: 71942 71942 34
Width: 912
Flags: W
HStem: 290.488 59.9883<132.251 307.164> 409.734 61.623<127.622 250.655> 633.16 59.8955<334.718 443.289>
VStem: 62.0137 57.9766<485.1 655.449>
LayerCount: 2
Fore
SplineSet
284.216796875 653.490234375 m 0,0,1
 352.849515689 691.598523349 352.849515689 691.598523349 394.340285188 693.055121049 c 128,-1,2
 435.831054688 694.51171875 435.831054688 694.51171875 469.952148438 668.147460938 c 128,-1,3
 504.072265625 641.783203125 504.072265625 641.783203125 519.71875 601.236328125 c 0,4,5
 589.990435023 419.128066258 589.990435023 419.128066258 483.416015625 219.453125 c 1,6,7
 507.630859375 196.5703125 507.630859375 196.5703125 548.8828125 153.278320312 c 128,-1,8
 590.133789062 109.986328125 590.133789062 109.986328125 593.15234375 106.91015625 c 0,9,10
 630.415039062 69.310546875 630.415039062 69.310546875 691.509765625 88.099609375 c 0,11,12
 719.540039062 96.7197265625 719.540039062 96.7197265625 742.00390625 116.568359375 c 128,-1,13
 764.467773438 136.416992188 764.467773438 136.416992188 773.388671875 161.45703125 c 0,14,15
 793.774414062 223.926757812 793.774414062 223.926757812 781.74609375 288.524414062 c 128,-1,16
 769.716796875 353.122070312 769.716796875 353.122070312 731.158203125 407.8671875 c 0,17,18
 725.657226562 415.678710938 725.657226562 415.678710938 725.657226562 428.181640625 c 128,-1,19
 725.657226562 440.684570312 725.657226562 440.684570312 735.938476562 447.926757812 c 128,-1,20
 746.219726562 455.168945312 746.219726562 455.168945312 758.723632812 455.168945312 c 128,-1,21
 771.227539062 455.168945312 771.227539062 455.168945312 780.2109375 442.41796875 c 0,22,23
 826.875 376.1640625 826.875 376.1640625 841.1640625 298.869140625 c 128,-1,24
 855.453125 221.57421875 855.453125 221.57421875 829.908203125 141.322265625 c 0,25,26
 815.599609375 101.158203125 815.599609375 101.158203125 783.07421875 72.3203125 c 128,-1,27
 750.548828125 43.482421875 750.548828125 43.482421875 710.610351562 30.2680664062 c 128,-1,28
 670.671875 17.0537109375 670.671875 17.0537109375 626.020507812 25.296875 c 128,-1,29
 581.369140625 33.5390625 581.369140625 33.5390625 550.5 64.708984375 c 0,30,31
 456.745117188 160.243164062 456.745117188 160.243164062 450.7109375 165.99609375 c 1,32,33
 360.975585938 37.443359375 360.975585938 37.443359375 228.279296875 5.671875 c 0,34,35
 138.009904241 -15.7165818368 138.009904241 -15.7165818368 76.8135458704 39.1963965816 c 128,-1,36
 15.6171875 94.109375 15.6171875 94.109375 21.62109375 180.544433594 c 128,-1,37
 27.625 266.979492188 27.625 266.979492188 84.6611328125 309.499023438 c 128,-1,38
 141.697265625 352.018554688 141.697265625 352.018554688 218.59375 350.4765625 c 0,39,40
 327.538085938 348.29296875 327.538085938 348.29296875 436.8046875 260.37109375 c 1,41,42
 521.592457021 429.714888593 521.592457021 429.714888593 463.740234375 579.634765625 c 0,43,44
 454.504882812 603.567382812 454.504882812 603.567382812 435.404296875 618.677734375 c 128,-1,45
 416.302734375 633.7890625 416.302734375 633.7890625 398.375488281 633.159667969 c 0,46,47
 377.180111402 632.415535031 377.180111402 632.415535031 333.353515625 611.091796875 c 1,48,49
 344.90674693 555.343547909 344.90674693 555.343547909 338.4609375 524.67578125 c 0,50,51
 327.377929688 471.943359375 327.377929688 471.943359375 283.548828125 440.30859375 c 128,-1,52
 239.720703125 408.673828125 239.720703125 408.673828125 185.112304688 409.734375 c 128,-1,53
 130.504882812 410.795898438 130.504882812 410.795898438 88.3608398438 446.648925781 c 0,54,55
 13.0731768087 510.698087924 13.0731768087 510.698087924 62.013671875 637.46484375 c 0,56,57
 69.419921875 656.6484375 69.419921875 656.6484375 90.015625 656.6484375 c 0,58,59
 95.6201171875 656.6484375 95.6201171875 656.6484375 100.806640625 654.646484375 c 0,60,61
 119.990234375 647.240234375 119.990234375 647.240234375 119.990234375 626.64453125 c 0,62,63
 119.990234375 621.040039062 119.990234375 621.040039062 117.98828125 615.85546875 c 0,64,65
 84.3837095638 528.806915491 84.3837095638 528.806915491 128.583984375 491.203125 c 0,66,67
 155.077148438 472.34765625 155.077148438 472.34765625 186.3203125 471.357421875 c 128,-1,68
 217.563476562 470.3671875 217.563476562 470.3671875 245.5625 488.98828125 c 128,-1,69
 273.5625 507.608398438 273.5625 507.608398438 279.744140625 537.017578125 c 0,70,71
 282.930664062 552.176757812 282.930664062 552.176757812 276.384277344 585.748535156 c 2,72,-1
 269.837890625 619.3203125 l 2,73,74
 268.73828125 623.333007812 268.73828125 623.333007812 268.73828125 627.235351562 c 0,75,76
 268.73828125 644.903320312 268.73828125 644.903320312 284.216796875 653.490234375 c 0,0,1
217.390625 290.48828125 m 0,77,78
 161.063476562 291.6171875 161.063476562 291.6171875 123.317871094 263.478515625 c 128,-1,79
 85.572265625 235.33984375 85.572265625 235.33984375 81.5375976562 177.264648438 c 128,-1,80
 77.5029296875 119.189453125 77.5029296875 119.189453125 115.060546875 85.490234375 c 128,-1,81
 152.754882812 51.6669921875 152.754882812 51.6669921875 214.912109375 64.181640625 c 0,82,83
 327.360351562 91.3857421875 327.360351562 91.3857421875 405.373046875 206.455078125 c 1,84,85
 305.845703125 288.715820312 305.845703125 288.715820312 217.390625 290.48828125 c 0,77,78
EndSplineSet
EndChar

StartChar: DiakOfull
Encoding: 71945 71945 35
Width: 946
Flags: W
HStem: 0 60<120.824 232.706 563.685 718.723> 73.3574 58.3413<327.401 497.376> 238.059 164.083<665.2 781.849> 419.354 60.4268<91.9473 156.182>
VStem: 20 60.5068<497.276 549.135> 372.254 60.0439<447.109 590.295> 639.435 60<298.892 343.082> 797.13 60<144.116 269.487>
LayerCount: 2
Fore
SplineSet
709.065429688 299.822265625 m 0,0,1
 727.534179688 294.106445312 727.534179688 294.106445312 739.895019531 303.295410156 c 128,-1,2
 752.255859375 312.484375 752.255859375 312.484375 752.255859375 331.495117188 c 1,3,4
 731.94241677 352.64601109 731.94241677 352.64601109 709.563476562 337.99609375 c 0,5,6
 709.182617188 337.713867188 709.182617188 337.713867188 706.784179688 336.12109375 c 128,-1,7
 704.385742188 334.528320312 704.385742188 334.528320312 703.764648438 333.784179688 c 128,-1,8
 703.14453125 333.040039062 703.14453125 333.040039062 701.740234375 331.090820312 c 0,9,10
 699.434570312 327.892072187 699.434570312 327.892072187 699.434570312 316.413809531 c 128,-1,11
 699.434570312 304.935546875 699.434570312 304.935546875 709.065429688 299.822265625 c 0,0,1
791.436523438 269.834960938 m 1,12,13
 765.088119349 238.05859375 765.088119349 238.05859375 720.798828125 238.05859375 c 0,14,15
 672.001002546 238.05859375 672.001002546 238.05859375 651.227539062 275.360351562 c 0,16,17
 639.434570312 296.537109375 639.434570312 296.537109375 639.434570312 319.977539062 c 0,18,19
 639.434570312 366.551757812 639.434570312 366.551757812 675.625976562 387.483398438 c 0,20,21
 706.200195312 407.401367188 706.200195312 407.401367188 739.846679688 402.141601562 c 128,-1,22
 773.494140625 396.881835938 773.494140625 396.881835938 796.666992188 371.8359375 c 0,23,24
 857.129882812 317.10546875 857.129882812 317.10546875 857.129882812 231.213378906 c 128,-1,25
 857.129882812 145.321289062 857.129882812 145.321289062 806.638671875 84.1376953125 c 0,26,27
 776.015625 42.0107421875 776.015625 42.0107421875 732.828125 21.0029296875 c 128,-1,28
 689.640625 -0.0048828125 689.640625 -0.0048828125 621.512695312 -0.0048828125 c 0,29,30
 585.747580703 -0.0048828125 585.747580703 -0.0048828125 551.526367188 19.24609375 c 0,31,32
 542.056640625 24.572265625 542.056640625 24.572265625 521.575195312 37.0986328125 c 128,-1,33
 501.09375 49.625 501.09375 49.625 489.19921875 55.953125 c 0,34,35
 456.490634282 73.357421875 456.490634282 73.357421875 424.11328125 73.357421875 c 0,36,37
 385.62364144 73.357421875 385.62364144 73.357421875 320.594535564 49.3911132812 c 128,-1,38
 255.565429688 25.4248046875 255.565429688 25.4248046875 238.551757812 19.6103515625 c 0,39,40
 181.182835131 -4.33680868994e-18 181.182835131 -4.33680868994e-18 133.4453125 0 c 0,41,42
 105.517578125 0 105.517578125 0 85.046875 19.0659179688 c 0,43,44
 40.6951899985 60.3740050848 40.6951899985 60.3740050848 64.35546875 115.322265625 c 0,45,46
 98.4373403036 186.124124731 98.4373403036 186.124124731 150.038085938 237.690429688 c 0,47,48
 190.016676405 277.64233663 190.016676405 277.64233663 258.442382812 334.693359375 c 0,49,50
 374.509765625 431.461914062 374.509765625 431.461914062 372.25390625 539.452148438 c 0,51,52
 371.872070312 557.729492188 371.872070312 557.729492188 363.615234375 573.03515625 c 0,53,54
 343.55078125 610.221679688 343.55078125 610.221679688 285.6328125 624.997070312 c 128,-1,55
 227.713867188 639.772460938 227.713867188 639.772460938 172.786132812 624.232421875 c 0,56,57
 151.698242188 618.5859375 151.698242188 618.5859375 133.702148438 607.90625 c 1,58,59
 164.658203125 600.5703125 164.658203125 600.5703125 191.055664062 573.130859375 c 128,-1,60
 217.453125 545.69140625 217.453125 545.69140625 217.453125 508.140625 c 128,-1,61
 217.453125 470.58984375 217.453125 470.58984375 191.938476562 444.971679688 c 128,-1,62
 166.424804688 419.353515625 166.424804688 419.353515625 131.017578125 419.353515625 c 0,63,64
 80.2001645245 419.353515625 80.2001645245 419.353515625 50.1000822622 452.672851562 c 128,-1,65
 20 485.9921875 20 485.9921875 20 527.987304688 c 0,66,67
 20 541.5078125 20 541.5078125 23.4736328125 554.397460938 c 0,68,69
 33.5869140625 603.330078125 33.5869140625 603.330078125 71.30078125 636.306640625 c 128,-1,70
 109.014648438 669.283203125 109.014648438 669.283203125 158.032226562 682.373535156 c 128,-1,71
 207.049804688 695.463867188 207.049804688 695.463867188 257.638671875 690.889648438 c 128,-1,72
 308.2265625 686.315429688 308.2265625 686.315429688 351.652832031 663.69921875 c 128,-1,73
 395.079101562 641.083007812 395.079101562 641.083007812 413.688476562 606.592773438 c 128,-1,74
 432.297851562 572.102539062 432.297851562 572.102539062 432.297851562 535.228515625 c 0,75,76
 432.297851562 401.537109375 432.297851562 401.537109375 296.829101562 288.591796875 c 0,77,78
 183.403567967 194.021975468 183.403567967 194.021975468 150.254882812 145.19921875 c 0,79,80
 133.30078125 120.227539062 133.30078125 120.227539062 118.389648438 89.2265625 c 0,81,82
 112 75.939453125 112 75.939453125 120.557128906 67.9697265625 c 128,-1,83
 129.114257812 60 129.114257812 60 133.4453125 60 c 0,84,85
 175.844726562 60 175.844726562 60 268.144042969 94.017578125 c 128,-1,86
 360.443359375 128.03515625 360.443359375 128.03515625 397.900390625 131.698730469 c 128,-1,87
 435.357421875 135.362304688 435.357421875 135.362304688 465.739257812 127.680664062 c 128,-1,88
 496.120117188 120 496.120117188 120 511.987304688 111.793945312 c 128,-1,89
 527.854492188 103.588867188 527.854492188 103.588867188 563.677734375 81.6796875 c 128,-1,90
 599.500976562 59.7705078125 599.500976562 59.7705078125 622.109375 59.998046875 c 0,91,92
 666.37109375 60.4443359375 666.37109375 60.4443359375 699.09375 71.6787109375 c 128,-1,93
 731.81640625 82.9130859375 731.81640625 82.9130859375 758.547851562 120.015625 c 0,94,95
 759.173828125 120.8828125 759.173828125 120.8828125 759.857421875 121.703125 c 0,96,97
 797.129882812 166.391601562 797.129882812 166.391601562 797.129882812 227.873046875 c 0,98,99
 797.129882812 249.892578125 797.129882812 249.892578125 791.436523438 269.834960938 c 1,12,13
124.485351562 479.780273438 m 0,100,101
 126.361328125 479.771484375 126.361328125 479.771484375 133.139648438 478.901367188 c 128,-1,102
 139.91796875 478.03125 139.91796875 478.03125 149.368164062 487.498046875 c 128,-1,103
 158.819335938 496.965820312 158.819335938 496.965820312 157.062988281 510.364746094 c 128,-1,104
 155.306640625 523.763671875 155.306640625 523.763671875 142.39453125 537.185058594 c 128,-1,105
 129.482421875 550.606445312 129.482421875 550.606445312 111.562011719 550.606445312 c 128,-1,106
 93.6416015625 550.606445312 93.6416015625 550.606445312 80.5068359375 534.501953125 c 1,107,108
 77.21875 513.634765625 77.21875 513.634765625 91.5 496.747070312 c 128,-1,109
 105.780273438 479.860351562 105.780273438 479.860351562 124.485351562 479.780273438 c 0,100,101
EndSplineSet
EndChar

StartChar: DiakKA
Encoding: 71948 71948 36
Width: 901
Flags: W
HStem: 26.4141 58.25<103.71 212.221> 413.076 59.4414<92.1114 130.412> 633.307 59.9824<430.874 641.915>
VStem: 22 59.6172<472.593 543.796>
AnchorPoint: "DiakRightmost" 824 407 basechar 0
LayerCount: 2
Fore
SplineSet
537.8515625 693.2890625 m 0,0,1
 630.251953125 695.575195312 630.251953125 695.575195312 699.629882812 646.38671875 c 128,-1,2
 769.0078125 597.198242188 769.0078125 597.198242188 800.19921875 521.59765625 c 0,3,4
 832.603515625 441.389648438 832.603515625 441.389648438 820.075195312 364.135742188 c 128,-1,5
 807.545898438 286.8828125 807.545898438 286.8828125 764.12890625 223.01171875 c 128,-1,6
 720.7109375 159.140625 720.7109375 159.140625 655.998046875 117.646484375 c 0,7,8
 577.331054688 68.083984375 577.331054688 68.083984375 487.703125 38.01953125 c 128,-1,9
 398.07421875 7.955078125 398.07421875 7.955078125 302.251953125 2 c 128,-1,10
 206.4296875 -3.955078125 206.4296875 -3.955078125 122.529296875 26.4140625 c 0,11,12
 102.610351562 33.513671875 102.610351562 33.513671875 102.610351562 54.6826171875 c 0,13,14
 102.610351562 59.88671875 102.610351562 59.88671875 104.341796875 64.744140625 c 0,15,16
 111.44140625 84.6640625 111.44140625 84.6640625 132.610351562 84.6640625 c 0,17,18
 137.810546875 84.6640625 137.810546875 84.6640625 142.669921875 82.93359375 c 0,19,20
 214.643554688 57.912109375 214.643554688 57.912109375 299.709960938 63.1181640625 c 128,-1,21
 384.776367188 68.32421875 384.776367188 68.32421875 468.895507812 96.0146484375 c 128,-1,22
 553.015625 123.706054688 553.015625 123.706054688 623.68359375 168.205078125 c 0,23,24
 707.713867188 222.1171875 707.713867188 222.1171875 745.307617188 314.165039062 c 128,-1,25
 782.901367188 406.212890625 782.901367188 406.212890625 744.736328125 498.71484375 c 0,26,27
 719.881835938 558.955078125 719.881835938 558.955078125 666.688476562 597.048828125 c 128,-1,28
 613.495117188 635.141601562 613.495117188 635.141601562 539.3359375 633.306640625 c 0,29,30
 484.994140625 631.962890625 484.994140625 631.962890625 429.12890625 611.861328125 c 1,31,32
 480.376953125 581.651367188 480.376953125 581.651367188 491.14453125 534.154296875 c 0,33,34
 497.90625 504.32421875 497.90625 504.32421875 484.609375 475.513671875 c 1,35,36
 485.227539062 475.3203125 485.227539062 475.3203125 487.065429688 474.8125 c 128,-1,37
 488.90234375 474.305664062 488.90234375 474.305664062 489.888671875 473.953125 c 0,38,39
 520.854492188 462.899414062 520.854492188 462.899414062 542.86328125 435.986328125 c 128,-1,40
 564.872070312 409.072265625 564.872070312 409.072265625 569.44921875 371.75 c 0,41,42
 575.341796875 319.970703125 575.341796875 319.970703125 540.892578125 282.3203125 c 0,43,44
 515.791992188 254.887695312 515.791992188 254.887695312 471.18359375 238.181640625 c 0,45,46
 417.014648438 221.045898438 417.014648438 221.045898438 372.392578125 229.532226562 c 128,-1,47
 327.771484375 238.018554688 327.771484375 238.018554688 290.556640625 266.669921875 c 0,48,49
 256.461914062 292.918945312 256.461914062 292.918945312 234.17578125 328.94921875 c 128,-1,50
 211.889648438 364.979492188 211.889648438 364.979492188 205.1015625 402.703125 c 0,51,52
 195.387695312 456.685546875 195.387695312 456.685546875 217.245117188 506.569335938 c 128,-1,53
 239.1015625 556.453125 239.1015625 556.453125 283.583984375 595.958984375 c 1,54,55
 263.458984375 600.15625 263.458984375 600.15625 227.126953125 595.521484375 c 128,-1,56
 190.794921875 590.887695312 190.794921875 590.887695312 159.166015625 578.3359375 c 0,57,58
 125.587890625 565.01171875 125.587890625 565.01171875 104.706054688 545.889648438 c 128,-1,59
 83.8251953125 526.768554688 83.8251953125 526.768554688 81.6171875 506.6875 c 0,60,61
 79.767578125 491.359375 79.767578125 491.359375 87.90234375 478.201171875 c 0,62,63
 91.3212890625 472.669921875 91.3212890625 472.669921875 92.0869140625 472.046875 c 128,-1,64
 92.8515625 471.422851562 92.8515625 471.422851562 95.91015625 472.0078125 c 0,65,66
 98.5751953125 472.517578125 98.5751953125 472.517578125 101.545898438 472.517578125 c 0,67,68
 112.42578125 472.517578125 112.42578125 472.517578125 120.716796875 465.586914062 c 128,-1,69
 129.006835938 458.65625 129.006835938 458.65625 131.01171875 448.177734375 c 0,70,71
 131.521484375 445.512695312 131.521484375 445.512695312 131.521484375 442.541992188 c 0,72,73
 131.521484375 431.662109375 131.521484375 431.662109375 124.58984375 423.37109375 c 128,-1,74
 117.658203125 415.080078125 117.658203125 415.080078125 107.1796875 413.076171875 c 0,75,76
 85.90234375 409.006835938 85.90234375 409.006835938 66.6435546875 419.32421875 c 128,-1,77
 47.3837890625 429.641601562 47.3837890625 429.641601562 36.869140625 446.6484375 c 0,78,79
 17.7353515625 477.594726562 17.7353515625 477.594726562 22 513.392578125 c 0,80,81
 30.73828125 591.923828125 30.73828125 591.923828125 137.03515625 634.10546875 c 0,82,83
 225.813476562 669.337890625 225.813476562 669.337890625 295.8984375 654.685546875 c 0,84,85
 335.8671875 646.329101562 335.8671875 646.329101562 350.490234375 642.509765625 c 1,86,87
 439.142578125 690.846679688 439.142578125 690.846679688 537.8515625 693.2890625 c 0,0,1
358.564453125 577.564453125 m 1,88,89
 347.159179688 570.293945312 347.159179688 570.293945312 337.0546875 562.498046875 c 0,90,91
 249.470703125 494.922851562 249.470703125 494.922851562 264.15234375 413.330078125 c 0,92,93
 268.62890625 388.452148438 268.62890625 388.452148438 285.752929688 360.680664062 c 128,-1,94
 302.877929688 332.908203125 302.877929688 332.908203125 327.16015625 314.212890625 c 0,95,96
 384.377929688 270.161132812 384.377929688 270.161132812 450.20703125 294.3984375 c 0,97,98
 481.274414062 306.046875 481.274414062 306.046875 496.626953125 322.82421875 c 0,99,100
 512.59375 340.274414062 512.59375 340.274414062 509.876953125 364.546875 c 0,101,102
 504.890625 404.890625 504.890625 404.890625 469.716796875 417.4453125 c 0,103,104
 452.80078125 423.484375 452.80078125 423.484375 431.34375 421.33203125 c 0,105,106
 430.857421875 421.049804688 430.857421875 421.049804688 429.701171875 420.329101562 c 128,-1,107
 428.544921875 419.608398438 428.544921875 419.608398438 427.935546875 419.26953125 c 0,108,109
 404.301757812 406.149414062 404.301757812 406.149414062 385.43359375 402.78515625 c 0,110,111
 378.499023438 401.548828125 378.499023438 401.548828125 372.791015625 402.220703125 c 0,112,113
 363.571289062 403.3046875 363.571289062 403.3046875 356.55859375 408.947265625 c 0,114,115
 350.831054688 413.556640625 350.831054688 413.556640625 347.625976562 424.00390625 c 128,-1,116
 344.421875 434.451171875 344.421875 434.451171875 346.3359375 441.158203125 c 0,117,118
 348.076171875 447.258789062 348.076171875 447.258789062 350.245117188 451.122070312 c 128,-1,119
 352.415039062 454.985351562 352.415039062 454.985351562 353.798828125 456.11328125 c 128,-1,120
 355.182617188 457.240234375 355.182617188 457.240234375 357.4296875 458.282226562 c 128,-1,121
 359.676757812 459.325195312 359.676757812 459.325195312 360.16015625 459.662109375 c 0,122,123
 364.010742188 462.349609375 364.010742188 462.349609375 369.765625 465.23828125 c 0,124,125
 388.540039062 474.663085938 388.540039062 474.663085938 410.044921875 479.0234375 c 1,126,127
 421.2421875 487.1796875 421.2421875 487.1796875 426.806640625 494.921875 c 0,128,129
 435.70703125 507.30859375 435.70703125 507.30859375 432.62890625 520.888671875 c 0,130,131
 425.959960938 550.303710938 425.959960938 550.303710938 378.23046875 570.359375 c 0,132,133
 369.911132812 573.85546875 369.911132812 573.85546875 358.564453125 577.564453125 c 1,88,89
375.408203125 462.0390625 m 2,134,135
 375.427734375 462.03125 375.427734375 462.03125 375.172851562 461.943359375 c 128,-1,136
 374.918945312 461.856445312 374.918945312 461.856445312 374.90625 461.853515625 c 1,137,-1
 375.408203125 462.0390625 l 2,134,135
398.52734375 412.419921875 m 1,138,139
 396.922851562 410.625976562 396.922851562 410.625976562 394.963867188 410.5390625 c 0,140,141
 394.795898438 410.66796875 394.795898438 410.66796875 396.68359375 411.615234375 c 0,142,143
 397.00390625 411.776367188 397.00390625 411.776367188 397.631835938 412.03515625 c 128,-1,144
 398.259765625 412.293945312 398.259765625 412.293945312 398.52734375 412.419921875 c 1,138,139
EndSplineSet
EndChar

StartChar: DiakKHA
Encoding: 71949 71949 37
Width: 845
Flags: W
HStem: -6.93889e-18 60<234.647 521.071> 390.627 60<147.083 242.566> 578.41 108.234<176.519 237.634>
VStem: 73.8496 60<464.659 576.896> 260.768 60.0137<469.031 559.776> 456.271 60<431.944 568.215>
LayerCount: 2
Fore
SplineSet
89.294921875 186.947265625 m 1,0,1
 148.922779667 60 148.922779667 60 420 60 c 0,2,3
 549.780214654 60 549.780214654 60 667.333007812 192.540039062 c 0,4,5
 697.78125 226.870117188 697.78125 226.870117188 722.4609375 265.525390625 c 0,6,7
 731.296875 279.362304688 731.296875 279.362304688 743.916503906 279.362304688 c 128,-1,8
 756.536132812 279.362304688 756.536132812 279.362304688 767.131835938 272.596191406 c 128,-1,9
 777.727539062 265.830078125 777.727539062 265.830078125 777.727539062 253.210449219 c 128,-1,10
 777.727539062 240.590820312 777.727539062 240.590820312 773.03125 233.236328125 c 0,11,12
 716.605800447 144.856125901 716.605800447 144.856125901 633.881835938 77.83984375 c 0,13,14
 537.80003376 -1.38777878078e-17 537.80003376 -1.38777878078e-17 415.90001688 -6.93889390391e-18 c 128,-1,15
 294 0 294 0 218.833984375 22.1689453125 c 0,16,17
 55.4360722226 70.3603965763 55.4360722226 70.3603965763 20.25 201.677734375 c 0,18,19
 19.25390625 205.396484375 19.25390625 205.396484375 19.25390625 212.877929688 c 128,-1,20
 19.25390625 220.359375 19.25390625 220.359375 26.23046875 228.666015625 c 128,-1,21
 33.20703125 236.973632812 33.20703125 236.973632812 43.736328125 238.935546875 c 0,22,23
 215.71875 270.951171875 215.71875 270.951171875 328.50390625 336.75 c 0,24,25
 456.271484375 411.290039062 456.271484375 411.290039062 456.271484375 504.7265625 c 0,26,27
 456.271484375 550.266601562 456.271484375 550.266601562 422.731445312 581.54296875 c 128,-1,28
 389.190429688 612.819335938 389.190429688 612.819335938 341.448242188 623.1015625 c 128,-1,29
 293.705078125 633.383789062 293.705078125 633.383789062 245.833984375 624.642578125 c 1,30,31
 265.515625 616.619140625 265.515625 616.619140625 280.134765625 604.61328125 c 0,32,33
 320.720703125 571.28125 320.720703125 571.28125 320.781738281 519.107421875 c 128,-1,34
 320.842773438 466.93359375 320.842773438 466.93359375 286.633789062 428.780273438 c 128,-1,35
 252.424804688 390.626953125 252.424804688 390.626953125 200.672363281 390.626953125 c 128,-1,36
 148.919921875 390.626953125 148.919921875 390.626953125 111.384765625 426.888671875 c 128,-1,37
 73.849609375 463.150390625 73.849609375 463.150390625 73.849609375 517.131835938 c 128,-1,38
 73.849609375 571.11328125 73.849609375 571.11328125 106.618164062 611.587890625 c 128,-1,39
 139.38671875 652.0625 139.38671875 652.0625 188.5546875 669.975585938 c 128,-1,40
 237.723632812 687.889648438 237.723632812 687.889648438 295.060546875 686.64453125 c 128,-1,41
 352.42578125 685.399414062 352.42578125 685.399414062 401.573242188 665.331054688 c 128,-1,42
 450.720703125 645.262695312 450.720703125 645.262695312 483.49609375 603.224609375 c 128,-1,43
 516.271484375 561.185546875 516.271484375 561.185546875 516.271484375 504.7265625 c 0,44,45
 516.271484375 376.829101562 516.271484375 376.829101562 358.73828125 284.923828125 c 0,46,47
 249.973632812 221.469726562 249.973632812 221.469726562 89.294921875 186.947265625 c 1,0,1
157.2734375 579.02734375 m 1,48,49
 133.849609375 551.778320312 133.849609375 551.778320312 133.849609375 518.388671875 c 0,50,51
 133.849609375 450.626953125 133.849609375 450.626953125 203.681640625 450.626953125 c 0,52,53
 223.102539062 450.626953125 223.102539062 450.626953125 241.950195312 471.80859375 c 128,-1,54
 260.797851562 492.989257812 260.797851562 492.989257812 260.768066406 517.9453125 c 128,-1,55
 260.73828125 542.901367188 260.73828125 542.901367188 238.342285156 561.295410156 c 128,-1,56
 215.946289062 579.689453125 215.946289062 579.689453125 160.80859375 578.41015625 c 0,57,58
 159.021484375 578.61328125 159.021484375 578.61328125 157.2734375 579.02734375 c 1,48,49
EndSplineSet
EndChar

StartChar: DiakGA
Encoding: 71950 71950 38
Width: 856
Flags: W
HStem: 279.576 61.25<102.875 240.881> 630.193 60<351.007 547.875>
VStem: 46.8135 59.4102<476.696 717.234> 200.401 60<388.779 545.982> 695.566 60<259.704 496.702>
LayerCount: 2
Fore
SplineSet
200.401367188 469.920898438 m 0,0,1
 200.401367188 394.192683039 200.401367188 394.192683039 240.880859375 340.826171875 c 1,2,3
 147.120117188 336.970703125 147.120117188 336.970703125 115.983398438 352.44921875 c 0,4,5
 82.55078125 369.069721321 82.55078125 369.069721321 82.55078125 421.9296875 c 0,6,7
 82.55078125 427.236328125 82.55078125 427.236328125 87.158203125 509.078613281 c 128,-1,8
 91.765625 590.920898438 91.765625 590.920898438 106.223632812 693.447265625 c 0,9,10
 108.196289062 707.434570312 108.196289062 707.434570312 99.076171875 717.55078125 c 128,-1,11
 89.9560546875 727.666992188 89.9560546875 727.666992188 77.6000976562 727.666992188 c 128,-1,12
 65.244140625 727.666992188 65.244140625 727.666992188 56.8037109375 720.272460938 c 128,-1,13
 48.36328125 712.877929688 48.36328125 712.877929688 46.8134765625 701.88671875 c 0,14,15
 32.3193359375 599.1015625 32.3193359375 599.1015625 23 437.126953125 c 0,16,17
 17.1033407982 334.593704488 17.1033407982 334.593704488 89.33203125 298.6875 c 0,18,19
 129.900390625 278.51953125 129.900390625 278.51953125 205.904785156 279.576171875 c 128,-1,20
 281.909179688 280.6328125 281.909179688 280.6328125 317.512695312 285.506835938 c 0,21,22
 328.546875 287.016601562 328.546875 287.016601562 335.98046875 295.46875 c 128,-1,23
 343.4140625 303.920898438 343.4140625 303.920898438 343.4140625 317.637207031 c 128,-1,24
 343.4140625 331.353515625 343.4140625 331.353515625 329.932617188 340.26953125 c 0,25,26
 260.401367188 386.254189716 260.401367188 386.254189716 260.401367188 469.920898438 c 0,27,28
 260.401367188 535.611328125 260.401367188 535.611328125 313.482421875 582.90234375 c 128,-1,29
 366.563476562 630.193359375 366.563476562 630.193359375 444.541992188 630.193359375 c 0,30,31
 503.29296875 630.193359375 503.29296875 630.193359375 560.814453125 602.712890625 c 0,32,33
 661.882662885 554.427472336 661.882662885 554.427472336 685.057617188 465.715820312 c 0,34,35
 695.56640625 425.48828125 695.56640625 425.48828125 695.56640625 389.377441406 c 128,-1,36
 695.56640625 353.266601562 695.56640625 353.266601562 693.384765625 336.029296875 c 0,37,38
 675.512695312 194.8046875 675.512695312 194.8046875 561 122.0390625 c 128,-1,39
 446.487304688 49.2734375 446.487304688 49.2734375 289.225585938 61.7587890625 c 0,40,41
 246.900390625 65.1171875 246.900390625 65.1171875 190.660644531 74.9028320312 c 128,-1,42
 134.420898438 84.6884765625 134.420898438 84.6884765625 115.962890625 91.8334960938 c 128,-1,43
 97.5048828125 98.978515625 97.5048828125 98.978515625 84.703125 89.6728515625 c 128,-1,44
 71.900390625 80.3671875 71.900390625 80.3671875 71.900390625 62.4545898438 c 128,-1,45
 71.900390625 44.5419921875 71.900390625 44.5419921875 91.0849609375 37.1142578125 c 0,46,47
 119.716796875 26.0302734375 119.716796875 26.0302734375 181.067382812 15.65625 c 0,48,49
 273.656349559 0 273.656349559 0 333.020507812 0 c 0,50,51
 503.359375 0 503.359375 0 618.717773438 89.814453125 c 0,52,53
 755.56640625 196.360532851 755.56640625 196.360532851 755.56640625 376.14453125 c 0,54,55
 755.56640625 499.913481692 755.56640625 499.913481692 705.877929688 561.920119752 c 128,-1,56
 656.189453125 623.926757812 656.189453125 623.926757812 586.830078125 657.060546875 c 128,-1,57
 517.469726562 690.193359375 517.469726562 690.193359375 444.541992188 690.193359375 c 0,58,59
 343.73046875 690.193359375 343.73046875 690.193359375 272.065917969 626.346191406 c 128,-1,60
 200.401367188 562.499023438 200.401367188 562.499023438 200.401367188 469.920898438 c 0,0,1
EndSplineSet
EndChar

StartChar: DiakGHA
Encoding: 71951 71951 39
Width: 1047
Flags: W
HStem: 0 60<211.124 380.681 586.699 740.294> 455.012 60<91.9675 178.008> 631.928 60<256.086 360.96>
VStem: 20 60<526.516 632.393> 105.02 60<113.493 259.527> 369.177 60<505.97 623.997> 569.796 60<283.937 508.141> 887.629 60<263.815 521.487>
LayerCount: 2
Fore
SplineSet
369.176757812 575.748046875 m 0,0,1
 369.176757812 631.927734375 369.176757812 631.927734375 313.665039062 631.927734375 c 0,2,3
 288.124023438 631.927734375 288.124023438 631.927734375 255.28515625 620.915039062 c 1,4,5
 259.971679688 576.9765625 259.971679688 576.9765625 247.140625 540.658203125 c 128,-1,6
 234.309570312 504.340820312 234.309570312 504.340820312 205.431640625 479.676269531 c 128,-1,7
 176.553710938 455.01171875 176.553710938 455.01171875 129.972167969 455.01171875 c 128,-1,8
 83.390625 455.01171875 83.390625 455.01171875 51.6953125 490.943359375 c 128,-1,9
 20 526.875 20 526.875 20 571.6328125 c 128,-1,10
 20 616.390625 20 616.390625 50.1318359375 647.930664062 c 0,11,12
 59.001953125 657.215820312 59.001953125 657.215820312 71.6215820312 657.215820312 c 128,-1,13
 84.2412109375 657.215820312 84.2412109375 657.215820312 93.0322265625 648.424804688 c 128,-1,14
 101.823242188 639.633789062 101.823242188 639.633789062 101.823242188 627.415527344 c 128,-1,15
 101.823242188 615.197265625 101.823242188 615.197265625 90.9116210938 603.775878906 c 128,-1,16
 80 592.354492188 80 592.354492188 80 571.030273438 c 128,-1,17
 80 549.706054688 80 549.706054688 95.5068359375 532.359375 c 128,-1,18
 111.013671875 515.01171875 111.013671875 515.01171875 132.723632812 515.01171875 c 0,19,20
 171.846900038 515.01171875 171.846900038 515.01171875 187.312121894 552.651855469 c 128,-1,21
 202.77734375 590.291992188 202.77734375 590.291992188 192.412109375 632.973632812 c 0,22,23
 189.65625 644.3203125 189.65625 644.3203125 194.814453125 653.857421875 c 128,-1,24
 199.973632812 663.395507812 199.973632812 663.395507812 209.622070312 667.592773438 c 0,25,26
 265.564453125 691.927734375 265.564453125 691.927734375 316.108886719 691.927734375 c 128,-1,27
 366.653320312 691.927734375 366.653320312 691.927734375 397.915039062 660.840820312 c 128,-1,28
 429.176757812 629.75390625 429.176757812 629.75390625 429.176757812 575.519042969 c 128,-1,29
 429.176757812 521.284179688 429.176757812 521.284179688 396.305175781 469.706542969 c 128,-1,30
 363.43359375 418.12890625 363.43359375 418.12890625 329.114746094 385.868164062 c 128,-1,31
 294.795898438 353.607421875 294.795898438 353.607421875 247.775390625 317.079101562 c 128,-1,32
 200.754882812 280.55078125 200.754882812 280.55078125 184.60546875 256.49609375 c 0,33,34
 165.01953125 227.322675808 165.01953125 227.322675808 165.01953125 191.584677748 c 128,-1,35
 165.01953125 155.846679688 165.01953125 155.846679688 180.0546875 125.76171875 c 0,36,37
 212.919537108 60 212.919537108 60 261.310546875 60 c 0,38,39
 330.825195312 60 330.825195312 60 366.650390625 75.0551757812 c 128,-1,40
 402.475585938 90.1103515625 402.475585938 90.1103515625 434.1796875 122.185546875 c 0,41,42
 434.44921875 122.458984375 434.44921875 122.458984375 434.7265625 122.725585938 c 0,43,44
 569.795898438 252.599609375 569.795898438 252.599609375 569.795898438 393.297851562 c 0,45,46
 569.795898438 436.879882812 569.795898438 436.879882812 556.004882812 480.178710938 c 0,47,48
 551.211914062 495.2265625 551.211914062 495.2265625 560.530273438 507.25390625 c 128,-1,49
 569.848632812 519.28125 569.848632812 519.28125 588.190429688 519.28125 c 128,-1,50
 606.532226562 519.28125 606.532226562 519.28125 613.188476562 498.383789062 c 0,51,52
 629.795898438 446.2421875 629.795898438 446.2421875 629.795898438 393.297851562 c 0,53,54
 629.795898438 264.626306604 629.795898438 264.626306604 537.807160853 147.105391347 c 0,55,56
 538.144465159 146.517969699 538.144465159 146.517969699 538.467773438 145.907226562 c 0,57,58
 560.90234375 103.530273438 560.90234375 103.530273438 586.452148438 81.7646484375 c 128,-1,59
 612.000976562 60 612.000976562 60 649.952148438 60 c 0,60,61
 735.232421875 60 735.232421875 60 789.265625 120.556640625 c 0,62,63
 816.047851562 150.571289062 816.047851562 150.571289062 840.729980469 200.721679688 c 0,64,65
 887.62890625 296.01327535 887.62890625 296.01327535 887.62890625 406.946289062 c 0,66,67
 887.62890625 461.03515625 887.62890625 461.03515625 878.184082031 484.089355469 c 128,-1,68
 868.739257812 507.143554688 868.739257812 507.143554688 878.03125 520.194335938 c 128,-1,69
 887.322265625 533.245117188 887.322265625 533.245117188 905.109375 533.245117188 c 128,-1,70
 922.896484375 533.245117188 922.896484375 533.245117188 930.53515625 514.599609375 c 0,71,72
 947.62890625 472.874023438 947.62890625 472.874023438 947.62890625 406.946289062 c 0,73,74
 947.62890625 282.033203125 947.62890625 282.033203125 901.122070312 187.541992188 c 0,75,76
 866.296875 116.783203125 866.296875 116.783203125 834.04296875 80.6357421875 c 0,77,78
 762.090820312 0 762.090820312 0 649.952148438 0 c 0,79,80
 556.279549942 0 556.279549942 0 496.016358532 99.1726252877 c 1,81,82
 439.670378531 40.6470644622 439.670378531 40.6470644622 391.305404109 20.3235322311 c 128,-1,83
 342.940429688 0 342.940429688 0 261.310546875 0 c 0,84,85
 214.767578125 0 214.767578125 0 180.805664062 28.9936523438 c 128,-1,86
 146.84375 57.9873046875 146.84375 57.9873046875 125.931640625 99.8325195312 c 128,-1,87
 105.01953125 141.677734375 105.01953125 141.677734375 105.01953125 186.31640625 c 0,88,89
 105.01953125 278.937951402 105.01953125 278.937951402 184.637695312 343.666992188 c 0,90,91
 193.791015625 351.108398438 193.791015625 351.108398438 224.787597656 375.188476562 c 0,92,93
 304.27274659 436.937497605 304.27274659 436.937497605 336.724752201 487.855467553 c 128,-1,94
 369.176757812 538.7734375 369.176757812 538.7734375 369.176757812 575.748046875 c 0,0,1
EndSplineSet
EndChar

StartChar: DiakNGA
Encoding: 71952 71952 40
Width: 627
Flags: W
HStem: 304.551 59.6758<165.601 275.699> 463.459 60<86.7019 157.944>
LayerCount: 2
Fore
SplineSet
26.7890625 600.203125 m 0,0,1
 54.0783107951 672.493409179 54.0783107951 672.493409179 215.688642545 690.277749769 c 0,2,3
 285.727871027 697.985187038 285.727871027 697.985187038 344.423828125 685.328125 c 0,4,5
 434.559570312 665.893554688 434.559570312 665.893554688 461.7109375 597.57421875 c 0,6,7
 502.435604434 481.024464537 502.435604434 481.024464537 411.845703125 396.677734375 c 0,8,9
 380.665039062 367.645507812 380.665039062 367.645507812 337.494140625 346.150390625 c 1,10,11
 483.773687798 314.026760699 483.773687798 314.026760699 535.619140625 222.630859375 c 0,12,13
 556.293945312 182.336914062 556.293945312 182.336914062 546.379882812 141.6015625 c 128,-1,14
 536.466796875 100.866210938 536.466796875 100.866210938 503.65625 72.345703125 c 0,15,16
 435.733398438 13.302734375 435.733398438 13.302734375 361 6 c 0,17,18
 262.708007812 -1.18359375 262.708007812 -1.18359375 204.952148438 2.51953125 c 128,-1,19
 147.196289062 6.2236328125 147.196289062 6.2236328125 61.482421875 21.259765625 c 0,20,21
 50.8369140625 23.1279296875 50.8369140625 23.1279296875 43.7509765625 31.4560546875 c 128,-1,22
 36.6650390625 39.7841796875 36.6650390625 39.7841796875 36.6650390625 46.599609375 c 128,-1,23
 36.6650390625 53.4150390625 36.6650390625 53.4150390625 37.8251953125 60.0263671875 c 128,-1,24
 38.9853515625 66.6376953125 38.9853515625 66.6376953125 47.3134765625 73.7236328125 c 128,-1,25
 55.6416015625 80.8095703125 55.6416015625 80.8095703125 62.45703125 80.8095703125 c 128,-1,26
 69.2724609375 80.8095703125 69.2724609375 80.8095703125 112.500976562 73.2260742188 c 0,27,28
 214.414689887 55.3475457584 214.414689887 55.3475457584 355.166015625 65.716796875 c 0,29,30
 410.831054688 71.15625 410.831054688 71.15625 464.29296875 117.62890625 c 0,31,32
 482.732421875 133.658203125 482.732421875 133.658203125 488.127929688 154.138671875 c 128,-1,33
 493.5234375 174.619140625 493.5234375 174.619140625 483.431640625 193.02734375 c 0,34,35
 452.932617188 246.791992188 452.932617188 246.791992188 380.030273438 271.907226562 c 128,-1,36
 307.127929688 297.022460938 307.127929688 297.022460938 192.53515625 304.55078125 c 0,37,38
 180.782226562 305.331054688 180.782226562 305.331054688 172.666992188 313.971679688 c 128,-1,39
 164.55078125 322.61328125 164.55078125 322.61328125 164.55078125 334.218261719 c 128,-1,40
 164.55078125 345.823242188 164.55078125 345.823242188 172.015625 354.28515625 c 128,-1,41
 179.48046875 362.748046875 179.48046875 362.748046875 190.548828125 364.2265625 c 0,42,43
 244.233398438 371.360351562 244.233398438 371.360351562 292.25390625 391.689453125 c 128,-1,44
 340.274414062 412.01953125 340.274414062 412.01953125 370.958984375 440.58984375 c 0,45,46
 435.609375 500.786132812 435.609375 500.786132812 405.951171875 575.4140625 c 0,47,48
 390.62109375 613.989257812 390.62109375 613.989257812 333.959889825 626.205219546 c 128,-1,49
 277.298685901 638.42118128 277.298685901 638.42118128 198.265625 627.728515625 c 1,50,51
 227.133789062 590.262695312 227.133789062 590.262695312 221.080566406 551.215820312 c 128,-1,52
 215.02734375 512.168945312 215.02734375 512.168945312 189.514648438 487.813476562 c 128,-1,53
 164.001953125 463.458984375 164.001953125 463.458984375 128.38671875 463.458984375 c 0,54,55
 71.7392578125 463.458984375 71.7392578125 463.458984375 39.3432617188 505.550292969 c 128,-1,56
 6.947265625 547.641601562 6.947265625 547.641601562 26.7890625 600.203125 c 0,0,1
125.59765625 610.53125 m 0,57,58
 89.529296875 596.518554688 89.529296875 596.518554688 82.2099609375 577.127441406 c 128,-1,59
 74.890625 557.736328125 74.890625 557.736328125 88.0815429688 540.59765625 c 128,-1,60
 101.272460938 523.458984375 101.272460938 523.458984375 128.666015625 523.458984375 c 128,-1,61
 156.059570312 523.458984375 156.059570312 523.458984375 161.323242188 557.413085938 c 128,-1,62
 166.586914062 591.3671875 166.586914062 591.3671875 126.82421875 609.642578125 c 0,63,64
 126.19140625 610.077148438 126.19140625 610.077148438 125.59765625 610.53125 c 0,57,58
EndSplineSet
EndChar

StartChar: DiakCA
Encoding: 71953 71953 41
Width: 907
Flags: W
HStem: 0 59.9697<311.269 558.814> 631.64 60<280.781 421.251>
VStem: 22 57.8564<524.869 628.462> 39.4902 54.7402<572.454 648.182> 443.002 60<472.608 611.86> 760.314 60<240.831 384.601>
LayerCount: 2
Fore
SplineSet
87.0434570312 607.479980469 m 132,-1,1
 79.8564453125 597.0234375 79.8564453125 597.0234375 79.8564453125 571.665527344 c 132,-1,2
 79.8564453125 546.307617188 79.8564453125 546.307617188 102.544921875 524.065917969 c 132,-1,3
 125.233398438 501.82421875 125.233398438 501.82421875 147.270507812 501.82421875 c 4,4,5
 153.419921875 501.82421875 153.419921875 501.82421875 159.568359375 503.471679688 c 4,6,7
 197.458984375 513.623046875 197.458984375 513.623046875 212.247558594 540.979003906 c 132,-1,8
 227.036132812 568.334960938 227.036132812 568.334960938 217.467773438 619.748046875 c 4,9,10
 214.173828125 637.44921875 214.173828125 637.44921875 228.244140625 648.702148438 c 4,11,12
 281.927734375 691.639648438 281.927734375 691.639648438 355.32421875 691.639648438 c 4,13,14
 370.016601562 691.639648438 370.016601562 691.639648438 383.166992188 689.211914062 c 4,15,16
 503.001953125 667.078664558 503.001953125 667.078664558 503.001953125 569.09393478 c 4,17,18
 503.001953125 510.185916435 503.001953125 510.185916435 478.68359375 453.3828125 c 4,19,20
 469.357421875 431.59765625 469.357421875 431.59765625 449.1328125 406.392578125 c 132,-1,21
 428.908203125 381.186523438 428.908203125 381.186523438 415.763671875 366.5703125 c 132,-1,22
 402.619140625 351.954101562 402.619140625 351.954101562 374.352539062 328.602539062 c 132,-1,23
 346.0859375 305.250976562 346.0859375 305.250976562 333.809570312 295.973632812 c 132,-1,24
 321.533203125 286.696289062 321.533203125 286.696289062 283.352311109 258.440845762 c 132,-1,25
 245.171419094 230.185402462 245.171419094 230.185402462 157.1015625 198.478515625 c 5,26,27
 199.614257812 130.409179688 199.614257812 130.409179688 275.204101562 95.189453125 c 132,-1,28
 350.794921875 59.9697265625 350.794921875 59.9697265625 437.294921875 59.9697265625 c 4,29,30
 438.178710938 59.9697265625 438.178710938 59.9697265625 439.865234375 59.984375 c 132,-1,31
 441.55078125 59.9990234375 441.55078125 59.9990234375 442.336914062 60 c 4,32,33
 513.279296875 60.1162109375 513.279296875 60.1162109375 577.184570312 89.380859375 c 132,-1,34
 641.090820312 118.646484375 641.090820312 118.646484375 686.827148438 167.421875 c 4,35,36
 760.314453125 245.791992188 760.314453125 245.791992188 760.314453125 331.662109375 c 4,37,38
 760.314453125 362.503340012 760.314453125 362.503340012 753.676757812 378.002929688 c 4,39,40
 749.58984375 387.544921875 749.58984375 387.544921875 738.626953125 391.709960938 c 4,41,42
 719.268554688 399.065429688 719.268554688 399.065429688 719.268554688 417.020996094 c 132,-1,43
 719.268554688 434.9765625 719.268554688 434.9765625 731.984375 444.288085938 c 132,-1,44
 744.700195312 453.598632812 744.700195312 453.598632812 759.91015625 447.819335938 c 4,45,46
 820.314453125 424.868529311 820.314453125 424.868529311 820.314453125 331.662109375 c 4,47,48
 820.314453125 222.081054688 820.314453125 222.081054688 730.596679688 126.399414062 c 4,49,50
 676.633789062 68.849609375 676.633789062 68.849609375 601.696289062 34.5107421875 c 132,-1,51
 526.758789062 0.1708984375 526.758789062 0.1708984375 442.590820312 0 c 4,52,53
 287.504169636 -1.76481074166 287.504169636 -1.76481074166 177.349609375 86.5966796875 c 4,54,55
 118.4609375 133.834960938 118.4609375 133.834960938 86.654296875 202.958007812 c 4,56,57
 80.759765625 215.767578125 80.759765625 215.767578125 86.6494140625 227.93359375 c 132,-1,58
 92.5390625 240.098632812 92.5390625 240.098632812 104.706054688 244.028320312 c 4,59,60
 205.240234375 276.495117188 205.240234375 276.495117188 252.950195312 310.64453125 c 132,-1,61
 300.66015625 344.793945312 300.66015625 344.793945312 328.635742188 367.956054688 c 132,-1,62
 356.611328125 391.118164062 356.611328125 391.118164062 386.009765625 422.95703125 c 132,-1,63
 415.409179688 454.794921875 415.409179688 454.794921875 429.206054688 489.356445312 c 132,-1,64
 443.001953125 523.91796875 443.001953125 523.91796875 443.001953125 560.650878906 c 132,-1,65
 443.001953125 597.383789062 443.001953125 597.383789062 419.353598753 614.51171875 c 132,-1,66
 395.705244381 631.639648438 395.705244381 631.639648438 355.32421875 631.639648438 c 4,67,68
 316.358398438 631.639648438 316.358398438 631.639648438 279.465820312 610.967773438 c 5,69,70
 281.076171875 597.05859375 281.076171875 597.05859375 281.076171875 584.0390625 c 4,71,72
 281.076171875 542.123046875 281.076171875 542.123046875 264.268554688 511.034179688 c 4,73,74
 237.943359375 462.340820312 237.943359375 462.340820312 175.848632812 445.706054688 c 132,-1,75
 113.75390625 429.071289062 113.75390625 429.071289062 63.9013671875 477.943359375 c 4,76,77
 30.6083984375 510.58203125 30.6083984375 510.58203125 22 555.665039062 c 132,-1,78
 13.3916015625 600.748046875 13.3916015625 600.748046875 39.490234375 644.211914062 c 4,79,80
 48.4501953125 657.248046875 48.4501953125 657.248046875 62.5493164062 657.248046875 c 132,-1,81
 76.6484375 657.248046875 76.6484375 657.248046875 85.439453125 648.45703125 c 132,-1,82
 94.23046875 639.666015625 94.23046875 639.666015625 94.23046875 628.801269531 c 132,-1,0
 94.23046875 617.936523438 94.23046875 617.936523438 87.0434570312 607.479980469 c 132,-1,1
EndSplineSet
EndChar

StartChar: DiakCHA
Encoding: 71954 71954 42
Width: 1320
Flags: W
HStem: -155.423 60<635.851 825.959> -0.630502 60.6305<335.339 597.793> 53.1621 60<772.35 912.294> 477.778 60<851.118 973.514> 621.272 60<769.185 992.197> 631.636 60<280.795 424.469>
VStem: 22 57.8564<524.865 628.457> 39.4922 54.7393<572.451 648.178> 443.027 60<473.208 613.616> 549.729 60<259.255 452.678> 810.412 60<246.148 382.628> 1021.66 60<234.417 421.725> 1182.78 60<184.864 424.926>
LayerCount: 2
Fore
SplineSet
443.02734375 560.647460938 m 0,0,1
 443.02734375 631.635742188 443.02734375 631.635742188 355.34375 631.635742188 c 0,2,3
 316.37109375 631.635742188 316.37109375 631.635742188 279.478515625 610.962890625 c 1,4,5
 281.087890625 597.064453125 281.087890625 597.064453125 281.087890625 584.038085938 c 0,6,7
 281.087890625 542.12109375 281.087890625 542.12109375 264.279296875 511.03125 c 0,8,9
 237.954101562 462.337890625 237.954101562 462.337890625 175.856445312 445.703125 c 128,-1,10
 113.759765625 429.068359375 113.759765625 429.068359375 63.904296875 477.939453125 c 0,11,12
 30.6083984375 510.577148438 30.6083984375 510.577148438 22 555.662109375 c 128,-1,13
 13.3916015625 600.74609375 13.3916015625 600.74609375 39.4921875 644.208984375 c 0,14,15
 48.453125 657.244140625 48.453125 657.244140625 62.5517578125 657.244140625 c 128,-1,16
 76.6494140625 657.244140625 76.6494140625 657.244140625 85.4404296875 648.453125 c 128,-1,17
 94.2314453125 639.662109375 94.2314453125 639.662109375 94.2314453125 628.796875 c 128,-1,18
 94.2314453125 617.930664062 94.2314453125 617.930664062 87.0439453125 607.474609375 c 128,-1,19
 79.8564453125 597.01953125 79.8564453125 597.01953125 79.8564453125 571.662109375 c 128,-1,20
 79.8564453125 546.305664062 79.8564453125 546.305664062 102.545898438 524.063476562 c 128,-1,21
 125.235351562 501.821289062 125.235351562 501.821289062 147.275390625 501.821289062 c 0,22,23
 153.426757812 501.821289062 153.426757812 501.821289062 159.575195312 503.46875 c 0,24,25
 197.46875 513.620117188 197.46875 513.620117188 212.2578125 540.975585938 c 128,-1,26
 227.046875 568.331054688 227.046875 568.331054688 217.48046875 619.745117188 c 0,27,28
 214.186523438 637.443359375 214.186523438 637.443359375 228.256835938 648.698242188 c 0,29,30
 281.943359375 691.635742188 281.943359375 691.635742188 355.34375 691.635742188 c 0,31,32
 370.037109375 691.635742188 370.037109375 691.635742188 383.1875 689.208007812 c 0,33,34
 503.02734375 667.075195312 503.02734375 667.075195312 503.02734375 569.092773438 c 0,35,36
 503.02734375 473.523280162 503.02734375 473.523280162 449.155273438 406.388671875 c 0,37,38
 428.928710938 381.18359375 428.928710938 381.18359375 415.784179688 366.567382812 c 128,-1,39
 402.639648438 351.951171875 402.639648438 351.951171875 374.370117188 328.599609375 c 128,-1,40
 346.100585938 305.247070312 346.100585938 305.247070312 333.825195312 295.970703125 c 128,-1,41
 321.548828125 286.694335938 321.548828125 286.694335938 283.365234375 258.479492188 c 128,-1,42
 245.180664062 230.263671875 245.180664062 230.263671875 157.817382812 198.732421875 c 1,43,44
 193.124023438 147.081054688 193.124023438 147.081054688 260.952148438 111.717773438 c 0,45,46
 360.529296875 59.8017578125 360.529296875 59.8017578125 481.909179688 60 c 0,47,48
 577.63980935 60.1560625915 577.63980935 60.1560625915 666.152830551 114.273909117 c 1,49,50
 611.790066881 158.913277281 611.790066881 158.913277281 580.759779534 224.106052703 c 128,-1,51
 549.729492188 289.298828125 549.729492188 289.298828125 549.729492188 361.791015625 c 0,52,53
 549.729492188 376.889648438 549.729492188 376.889648438 551.337890625 392.486328125 c 0,54,55
 569.588867188 506.173828125 569.588867188 506.173828125 654.653320312 591.998046875 c 0,56,57
 694.756835938 632.458984375 694.756835938 632.458984375 749.676757812 656.865234375 c 128,-1,58
 804.596679688 681.272460938 804.596679688 681.272460938 864.419921875 681.272460938 c 0,59,60
 980.780273438 681.272460938 980.780273438 681.272460938 1067.88671875 630.133789062 c 0,61,62
 1181.23730469 563.586914062 1181.23730469 563.586914062 1224.390625 424.93359375 c 0,63,64
 1242.78027344 365.848632812 1242.78027344 365.848632812 1242.78027344 290.088867188 c 128,-1,65
 1242.78027344 214.330078125 1242.78027344 214.330078125 1204.16015625 133.0234375 c 128,-1,66
 1165.54101562 51.7158203125 1165.54101562 51.7158203125 1095.0625 -6.087890625 c 0,67,68
 1004.64257812 -80.24609375 1004.64257812 -80.24609375 890.811523438 -117.700195312 c 128,-1,69
 776.98046875 -155.154296875 776.98046875 -155.154296875 656.841796875 -155.422851562 c 0,70,71
 644.377929688 -155.422851562 644.377929688 -155.422851562 635.575195312 -146.634765625 c 128,-1,72
 626.7734375 -137.846679688 626.7734375 -137.846679688 626.7734375 -125.422851562 c 128,-1,73
 626.7734375 -113.0234375 626.7734375 -113.0234375 635.541015625 -104.237304688 c 128,-1,74
 644.30859375 -95.451171875 644.30859375 -95.451171875 656.705078125 -95.4228515625 c 0,75,76
 767.641601562 -95.1748046875 767.641601562 -95.1748046875 871.88671875 -60.6435546875 c 128,-1,77
 976.1328125 -26.111328125 976.1328125 -26.111328125 1057.21289062 40.484375 c 0,78,79
 1116.59179688 89.2548828125 1116.59179688 89.2548828125 1149.68652344 158.228515625 c 128,-1,80
 1182.78027344 227.202148438 1182.78027344 227.202148438 1182.78027344 291.9453125 c 128,-1,81
 1182.78027344 356.6875 1182.78027344 356.6875 1167.08789062 407.103515625 c 0,82,83
 1130.83105469 523.604492188 1130.83105469 523.604492188 1037.57421875 578.352539062 c 0,84,85
 964.466796875 621.272460938 964.466796875 621.272460938 868.014648438 621.272460938 c 128,-1,86
 771.5625 621.272460938 771.5625 621.272460938 699.018554688 550.6484375 c 128,-1,87
 626.475585938 480.024414062 626.475585938 480.024414062 610.84765625 384.591796875 c 0,88,89
 609.729492188 373.330078125 609.729492188 373.330078125 609.729492188 361.791015625 c 0,90,91
 609.729492188 272.427734375 609.729492188 272.427734375 671.646484375 192.794921875 c 0,92,93
 691.343579584 167.461652708 691.343579584 167.461652708 714.610295753 150.187555464 c 1,94,95
 765.047701438 195.70865704 765.047701438 195.70865704 787.729905406 244.006183989 c 128,-1,96
 810.412109375 292.303710938 810.412109375 292.303710938 810.412109375 327.451171875 c 128,-1,97
 810.412109375 362.598632812 810.412109375 362.598632812 805.069824219 375.0703125 c 128,-1,98
 799.727539062 387.541992188 799.727539062 387.541992188 785.211084328 393.056393324 c 0,99,100
 764.459495553 400.939350067 764.459495553 400.939350067 769.430664062 427.254882812 c 0,101,102
 779.3125 479.573242188 779.3125 479.573242188 820.26171875 508.67578125 c 128,-1,103
 861.209960938 537.778320312 861.209960938 537.778320312 905.30078125 537.778320312 c 0,104,105
 996.196564745 537.778320312 996.196564745 537.778320312 1038.92787222 473.344726562 c 128,-1,106
 1081.65917969 408.911132812 1081.65917969 408.911132812 1081.65917969 335.53125 c 128,-1,107
 1081.65917969 262.151367188 1081.65917969 262.151367188 1049.69824219 198.401367188 c 128,-1,108
 1017.73632812 134.650390625 1017.73632812 134.650390625 959.986328125 93.90625 c 128,-1,109
 902.236328125 53.162109375 902.236328125 53.162109375 823.419921875 53.162109375 c 0,110,111
 770.117535677 53.162109375 770.117535677 53.162109375 720.217141439 78.5285440993 c 1,112,113
 610.776197483 0.260479990284 610.776197483 0.260479990284 479.566809679 -0.630502192358 c 128,-1,114
 348.357421875 -1.521484375 348.357421875 -1.521484375 238.104492188 55.9599609375 c 128,-1,115
 127.8515625 113.44140625 127.8515625 113.44140625 86.658203125 202.955078125 c 0,116,117
 80.763671875 215.764648438 80.763671875 215.764648438 86.6533203125 227.930664062 c 128,-1,118
 92.54296875 240.096679688 92.54296875 240.096679688 104.709960938 244.026367188 c 0,119,120
 205.250976562 276.493164062 205.250976562 276.493164062 252.963867188 310.643554688 c 128,-1,121
 300.677734375 344.79296875 300.677734375 344.79296875 328.654296875 367.954101562 c 128,-1,122
 356.629882812 391.116210938 356.629882812 391.116210938 386.03125 422.955078125 c 0,123,124
 443.02734375 484.674343587 443.02734375 484.674343587 443.02734375 560.647460938 c 0,0,1
870.412109375 332.615234375 m 0,125,126
 870.412109375 219.959253451 870.412109375 219.959253451 771.247262501 121.590366539 c 1,127,128
 799.132081998 113.162109502 799.132081998 113.162109502 830.75 113.162109375 c 0,129,130
 883.209960938 113.162109375 883.209960938 113.162109375 926.760742188 143.887695312 c 128,-1,131
 970.311523438 174.614257812 970.311523438 174.614257812 995.985351562 225.78125 c 128,-1,132
 1021.65917969 276.94921875 1021.65917969 276.94921875 1021.65917969 333.888671875 c 128,-1,133
 1021.65917969 390.827148438 1021.65917969 390.827148438 992.828125 434.302734375 c 128,-1,134
 963.99609375 477.778320312 963.99609375 477.778320312 911.305664062 477.778320312 c 0,135,136
 879.72265625 477.778320312 879.72265625 477.778320312 860.640885857 464.114462451 c 128,-1,137
 841.559115464 450.450604589 841.559115464 450.450604589 834.037456483 434.082599933 c 1,138,139
 870.412109375 404.238083263 870.412109375 404.238083263 870.412109375 332.615234375 c 0,125,126
EndSplineSet
EndChar

StartChar: DiakJA
Encoding: 71955 71955 43
Width: 930
Flags: W
HStem: 0 60.3115<309.742 585.074>
VStem: 443.408 60<474.938 610.769> 763.945 60<179.665 332.953>
LayerCount: 2
Fore
SplineSet
353.001953125 692.016601562 m 0,0,1
 368.762695312 691.994140625 368.762695312 691.994140625 383.59765625 689.254882812 c 0,2,3
 437.864257812 679.231445312 437.864257812 679.231445312 470.635742188 650.5703125 c 128,-1,4
 503.408203125 621.908203125 503.408203125 621.908203125 503.408203125 563.262695312 c 0,5,6
 503.408203125 442.616210938 503.408203125 442.616210938 386.724609375 339.534179688 c 0,7,8
 331.584960938 290.822265625 331.584960938 290.822265625 283.326171875 258.735351562 c 128,-1,9
 235.06640625 226.647460938 235.06640625 226.647460938 157.67578125 198.782226562 c 1,10,11
 200.947265625 129.359375 200.947265625 129.359375 278.009765625 94.32421875 c 128,-1,12
 355.072265625 59.2890625 355.072265625 59.2890625 442.458984375 60.3115234375 c 2,13,-1
 442.759765625 60.3134765625 l 2,14,15
 519.8828125 60.4384765625 519.8828125 60.4384765625 587.255859375 80.1025390625 c 1,16,17
 572.255859375 102.024414062 572.255859375 102.024414062 559.3515625 125.291992188 c 0,18,19
 510.323242188 213.685546875 510.323242188 213.685546875 531.75390625 301.877929688 c 0,20,21
 542.603515625 346.529296875 542.603515625 346.529296875 574.047851562 380.329101562 c 128,-1,22
 605.491210938 414.127929688 605.491210938 414.127929688 646.284179688 425.057617188 c 0,23,24
 723.676757812 445.79296875 723.676757812 445.79296875 773.810546875 389.372070312 c 128,-1,25
 823.9453125 332.951171875 823.9453125 332.951171875 823.9453125 250.842773438 c 0,26,27
 823.9453125 196.666992188 823.9453125 196.666992188 793.305664062 149.517578125 c 0,28,29
 756.110351562 92.279296875 756.110351562 92.279296875 685.09375 54.7958984375 c 1,30,31
 740.20703125 2.4052734375 740.20703125 2.4052734375 820.30859375 -7.7900390625 c 0,32,33
 831.446289062 -9.208984375 831.446289062 -9.208984375 838.983398438 -17.67578125 c 128,-1,34
 846.520507812 -26.142578125 846.520507812 -26.142578125 846.520507812 -32.79296875 c 128,-1,35
 846.520507812 -39.443359375 846.520507812 -39.443359375 845.690429688 -45.9599609375 c 128,-1,36
 844.861328125 -52.4765625 844.861328125 -52.4765625 836.39453125 -60.013671875 c 128,-1,37
 827.927734375 -67.55078125 827.927734375 -67.55078125 821.276367188 -67.55078125 c 128,-1,38
 814.625976562 -67.55078125 814.625976562 -67.55078125 812.73046875 -67.3095703125 c 0,39,40
 704.615234375 -53.5478515625 704.615234375 -53.5478515625 627.19921875 29.7783203125 c 1,41,42
 543.220703125 0.5126953125 543.220703125 0.5126953125 457.059570312 0 c 128,-1,43
 370.8984375 -0.5126953125 370.8984375 -0.5126953125 303.961914062 19.685546875 c 128,-1,44
 237.026367188 39.8828125 237.026367188 39.8828125 177.963867188 87.1376953125 c 128,-1,45
 118.901367188 134.392578125 118.901367188 134.392578125 87.2578125 203.166992188 c 0,46,47
 84.509765625 209.142578125 84.509765625 209.142578125 84.509765625 215.698242188 c 0,48,49
 84.509765625 237.540039062 84.509765625 237.540039062 105.291015625 244.254882812 c 0,50,51
 198.03515625 274.209960938 198.03515625 274.209960938 255.609375 312.399414062 c 0,52,53
 352.084960938 383.751953125 352.084960938 383.751953125 387.482421875 424.772460938 c 0,54,55
 443.408203125 489.583007812 443.408203125 489.583007812 443.408203125 563.262695312 c 0,56,57
 443.408203125 594.67578125 443.408203125 594.67578125 427.086914062 608.948242188 c 128,-1,58
 410.766601562 623.221679688 410.766601562 623.221679688 382.663085938 628.413085938 c 0,59,60
 330.393554688 638.06640625 330.393554688 638.06640625 280.00390625 610.678710938 c 1,61,62
 290.243164062 524.134765625 290.243164062 524.134765625 236.68359375 477.053710938 c 0,63,64
 212.024414062 455.376953125 212.024414062 455.376953125 174.747070312 445.389648438 c 128,-1,65
 137.469726562 435.40234375 137.469726562 435.40234375 102.127929688 452.189453125 c 128,-1,66
 66.78515625 468.9765625 66.78515625 468.9765625 45.017578125 501.622070312 c 0,67,68
 -2.9287109375 573.525390625 -2.9287109375 573.525390625 40.12109375 644.297851562 c 0,69,70
 49.048828125 657.2890625 49.048828125 657.2890625 61.6181640625 657.2890625 c 128,-1,71
 74.1865234375 657.2890625 74.1865234375 657.2890625 84.5068359375 650.1953125 c 128,-1,72
 94.828125 643.1015625 94.828125 643.1015625 94.828125 630.533203125 c 128,-1,73
 94.828125 617.96484375 94.828125 617.96484375 86.9365234375 606.08984375 c 128,-1,74
 79.0458984375 594.213867188 79.0458984375 594.213867188 80.7421875 573.934570312 c 128,-1,75
 82.4375 553.654296875 82.4375 553.654296875 94.9375 534.909179688 c 0,76,77
 122.537109375 493.517578125 122.537109375 493.517578125 162.981445312 504.352539062 c 128,-1,78
 203.424804688 515.188476562 203.424804688 515.188476562 214.818359375 545.408203125 c 128,-1,79
 226.211914062 575.626953125 226.211914062 575.626953125 217.98828125 619.833007812 c 0,80,81
 217.4609375 622.670898438 217.4609375 622.670898438 217.4609375 631.197265625 c 128,-1,82
 217.4609375 639.723632812 217.4609375 639.723632812 228.744140625 648.749023438 c 0,83,84
 282.962890625 692.1171875 282.962890625 692.1171875 353.001953125 692.016601562 c 0,0,1
763.9453125 250.842773438 m 0,85,86
 763.9453125 310.14453125 763.9453125 310.14453125 733.685546875 344.198242188 c 128,-1,87
 703.42578125 378.252929688 703.42578125 378.252929688 668.62109375 368.926757812 c 0,88,89
 605.6953125 352.067382812 605.6953125 352.067382812 589.928710938 287.177734375 c 128,-1,90
 574.162109375 222.2890625 574.162109375 222.2890625 611.8203125 154.395507812 c 0,91,92
 628.142578125 124.965820312 628.142578125 124.965820312 644.76171875 101.729492188 c 1,93,94
 662.486328125 110.116210938 662.486328125 110.116210938 677.453125 119.557617188 c 0,95,96
 763.9453125 174.116210938 763.9453125 174.116210938 763.9453125 250.842773438 c 0,85,86
EndSplineSet
EndChar

StartChar: DiakNYA
Encoding: 71957 71957 44
Width: 950
Flags: W
HStem: 0.0961432 60.4595<372.207 475.179> 475.727 61.3442<767.253 859.506> 582.598 60<123.842 280.379 460.877 627.767>
LayerCount: 2
Fore
SplineSet
740.3359375 508.96484375 m 1,0,1
 812.06757851 537.071289062 812.06757851 537.071289062 829.908789255 537.071289062 c 0,2,3
 861.862367282 537.071289062 861.862367282 537.071289062 866.30859375 512.423828125 c 0,4,5
 866.758789062 509.928710938 866.758789062 509.928710938 866.758789062 503.030761719 c 128,-1,6
 866.758789062 496.1328125 866.758789062 496.1328125 859.729492188 487.80859375 c 128,-1,7
 852.69921875 479.484375 852.69921875 479.484375 831.868652344 475.727050781 c 128,-1,8
 811.038085938 471.969726562 811.038085938 471.969726562 755.041015625 448.974609375 c 1,9,10
 756.142578125 439.01953125 756.142578125 439.01953125 756.16015625 438.7578125 c 0,11,12
 769.03515625 245.823242188 769.03515625 245.823242188 608.353515625 104.37890625 c 0,13,14
 525.932617188 31.826171875 525.932617188 31.826171875 455.267578125 8.701171875 c 0,15,16
 428.9716211 0.0961431876273 428.9716211 0.0961431876273 405.027822092 0.0961431876273 c 0,17,18
 388.806914753 0.0961431876273 388.806914753 0.0961431876273 373.665527344 4.04541015625 c 0,19,20
 334.587035373 14.2380954993 334.587035373 14.2380954993 317.23046875 56.755859375 c 0,21,22
 284.631835938 136.396484375 284.631835938 136.396484375 345.251953125 227.998046875 c 0,23,24
 392.51953125 299.422851562 392.51953125 299.422851562 487.837890625 368.525878906 c 128,-1,25
 583.15625 437.62890625 583.15625 437.62890625 685.892578125 485.490234375 c 1,26,27
 670.145507812 530.140625 670.145507812 530.140625 634.743164062 556.870117188 c 128,-1,28
 599.340820312 583.598632812 599.340820312 583.598632812 543.197265625 582.478027344 c 0,29,30
 429.657669915 580.211817223 429.657669915 580.211817223 388.94140625 468.5859375 c 0,31,32
 381.748046875 448.87890625 381.748046875 448.87890625 360.76171875 448.87890625 c 0,33,34
 350.518554688 448.87890625 350.518554688 448.87890625 342.498046875 455.083007812 c 128,-1,35
 334.4765625 461.287109375 334.4765625 461.287109375 331.828125 470.919921875 c 0,36,37
 317.853515625 521.802734375 317.853515625 521.802734375 290.094726562 552.200195312 c 128,-1,38
 262.3359375 582.59765625 262.3359375 582.59765625 207.520507812 582.59765625 c 128,-1,39
 152.705078125 582.59765625 152.705078125 582.59765625 130.5390625 571.163574219 c 128,-1,40
 108.373046875 559.729492188 108.373046875 559.729492188 88.875 526.171875 c 0,41,42
 74.1474609375 496.580078125 74.1474609375 496.580078125 85.181640625 459.422851562 c 128,-1,43
 96.2158203125 422.265625 96.2158203125 422.265625 125.51171875 388.259765625 c 0,44,45
 132.798828125 379.801757812 132.798828125 379.801757812 132.798828125 367.369628906 c 128,-1,46
 132.798828125 354.9375 132.798828125 354.9375 123.352539062 346.800292969 c 128,-1,47
 113.90625 338.663085938 113.90625 338.663085938 101.475097656 338.663085938 c 128,-1,48
 89.0439453125 338.663085938 89.0439453125 338.663085938 80.0546875 349.09765625 c 0,49,50
 42.359375 392.853515625 42.359375 392.853515625 26.0239257812 447.86328125 c 0,51,52
 19.2830646771 470.563188947 19.2830646771 470.563188947 19.2830646771 491.747943708 c 0,53,54
 19.2830646771 581.288431189 19.2830646771 581.288431189 101.565917969 623.730957031 c 0,55,56
 138.142578125 642.59765625 138.142578125 642.59765625 207.767578125 642.59765625 c 0,57,58
 314.716340466 642.59765625 314.716340466 642.59765625 364.916015625 550.546875 c 1,59,60
 429.833984375 640.2265625 429.833984375 640.2265625 548.279296875 642.591796875 c 0,61,62
 615.709960938 643.9375 615.709960938 643.9375 666.307617188 606.529296875 c 128,-1,63
 716.904296875 569.120117188 716.904296875 569.120117188 740.3359375 508.96484375 c 1,0,1
696.732421875 422.978515625 m 1,64,65
 602.395507812 377.467773438 602.395507812 377.467773438 519.469726562 317.348632812 c 128,-1,66
 436.543945312 257.229492188 436.543945312 257.229492188 394.463867188 193.642089844 c 128,-1,67
 352.383789062 130.0546875 352.383789062 130.0546875 372.580078125 79.966796875 c 0,68,69
 381.24044176 60.5556370025 381.24044176 60.5556370025 406.25204067 60.5556370025 c 0,70,71
 420.811794991 60.5556370025 420.811794991 60.5556370025 440.912391104 67.1333764853 c 0,72,73
 495.54296875 85.0107421875 495.54296875 85.0107421875 568.70703125 149.416015625 c 0,74,75
 702.32421875 267.037109375 702.32421875 267.037109375 696.732421875 422.978515625 c 1,64,65
EndSplineSet
EndChar

StartChar: DiakTTA
Encoding: 71958 71958 45
Width: 823
Flags: W
HStem: 0 60<264.685 490.839> 631.891 60<170.802 304.062>
VStem: 17.9619 61.6885<629.105 692.118> 348.549 60<439.728 584.073> 681.437 60.0039<214.379 322.337>
LayerCount: 2
Fore
SplineSet
79.650390625 629.10546875 m 1,0,1
 179.501953125 691.890625 179.501953125 691.890625 247.338867188 691.890625 c 0,2,3
 304.2109375 691.890625 304.2109375 691.890625 348.274414062 651.233398438 c 0,4,5
 376.970703125 624.75390625 376.970703125 624.75390625 392.759765625 587.724609375 c 128,-1,6
 408.548828125 550.6953125 408.548828125 550.6953125 408.548828125 517.374023438 c 128,-1,7
 408.548828125 484.051757812 408.548828125 484.051757812 396.971679688 449.411132812 c 128,-1,8
 385.39453125 414.770507812 385.39453125 414.770507812 359.677734375 378.015625 c 128,-1,9
 333.9609375 341.260742188 333.9609375 341.260742188 307.134765625 317.436523438 c 128,-1,10
 280.30859375 293.612304688 280.30859375 293.612304688 241 272.16796875 c 0,11,12
 185.047851562 241.643554688 185.047851562 241.643554688 100.389648438 212.708984375 c 1,13,14
 218.916015625 60 218.916015625 60 375.797851562 60 c 0,15,16
 447.91015625 60 447.91015625 60 520.25 94.0498046875 c 128,-1,17
 592.58984375 128.098632812 592.58984375 128.098632812 636.625976562 181.284179688 c 128,-1,18
 680.662109375 234.470703125 680.662109375 234.470703125 681.436523438 289.838867188 c 0,19,20
 681.033203125 307.350585938 681.033203125 307.350585938 677.762695312 314.345703125 c 128,-1,21
 674.493164062 321.340820312 674.493164062 321.340820312 662.977539062 328.455078125 c 128,-1,22
 651.462890625 335.569335938 651.462890625 335.569335938 651.462890625 352.453125 c 128,-1,23
 651.462890625 369.3359375 651.462890625 369.3359375 666.647460938 378.192382812 c 128,-1,24
 681.833007812 387.048828125 681.833007812 387.048828125 701.5546875 375.005859375 c 0,25,26
 741.440429688 350.651367188 741.440429688 350.651367188 741.440429688 282.231445312 c 128,-1,27
 741.440429688 213.8125 741.440429688 213.8125 685.479492188 146.223632812 c 128,-1,28
 629.51953125 78.6357421875 629.51953125 78.6357421875 545.967773438 39.3173828125 c 128,-1,29
 462.416992188 0 462.416992188 0 375.797851562 0 c 0,30,31
 171.997070312 0 171.997070312 0 27.3701171875 211.102539062 c 0,32,33
 18.939453125 224.189453125 18.939453125 224.189453125 24.01953125 238.038085938 c 128,-1,34
 29.099609375 251.88671875 29.099609375 251.88671875 42.4833984375 256.438476562 c 0,35,36
 46.5439453125 257.819335938 46.5439453125 257.819335938 68.68359375 265.329101562 c 128,-1,37
 90.8232421875 272.837890625 90.8232421875 272.837890625 109.108398438 279.353515625 c 128,-1,38
 127.392578125 285.869140625 127.392578125 285.869140625 159.006835938 298.798828125 c 128,-1,39
 190.62109375 311.728515625 190.62109375 311.728515625 208.283203125 322.083984375 c 128,-1,40
 225.9453125 332.439453125 225.9453125 332.439453125 250.190429688 349.307617188 c 128,-1,41
 274.436523438 366.176757812 274.436523438 366.176757812 289.393554688 383.862304688 c 0,42,43
 326.423828125 427.647460938 326.423828125 427.647460938 343.399414062 478.442382812 c 0,44,45
 348.548828125 493.850585938 348.548828125 493.850585938 348.548828125 511.599609375 c 0,46,47
 348.548828125 552.1015625 348.548828125 552.1015625 324.62109375 587.186523438 c 0,48,49
 294.1328125 631.890625 294.1328125 631.890625 247.338867188 631.890625 c 0,50,51
 187.758789062 631.890625 187.758789062 631.890625 68.787109375 549.911132812 c 0,52,53
 61.1240234375 544.631835938 61.1240234375 544.631835938 50.4140625 544.631835938 c 128,-1,54
 39.703125 544.631835938 39.703125 544.631835938 31 553.015625 c 128,-1,55
 22.296875 561.400390625 22.296875 561.400390625 21.818359375 573.420898438 c 2,56,-1
 17.9619140625 670.334960938 l 2,57,58
 17.447265625 683.262695312 17.447265625 683.262695312 26.3388671875 692.404296875 c 128,-1,59
 35.2314453125 701.545898438 35.2314453125 701.545898438 47.6298828125 701.545898438 c 128,-1,60
 60.0283203125 701.545898438 60.0283203125 701.545898438 68.7314453125 693.162109375 c 128,-1,61
 77.4345703125 684.77734375 77.4345703125 684.77734375 77.9130859375 672.756835938 c 2,62,-1
 79.650390625 629.10546875 l 1,0,1
EndSplineSet
EndChar

StartChar: DiakDDA
Encoding: 71960 71960 46
Width: 1015
Flags: W
HStem: -0.0849609 60<166.473 346.205 573.566 782.813> 424.446 60<95.1049 209.165> 630.981 60.9307<296.966 442.739>
VStem: 34.8252 56.584<490.841 651.297> 89.3828 59.9951<78.434 189.244> 238.549 60<514.136 625.584> 463.875 60<479.481 610.489> 882.549 60<141.479 293.95>
LayerCount: 2
Fore
SplineSet
146.170898438 22.533203125 m 4,0,1
 89.861328125 54.294921875 89.861328125 54.294921875 89.3828125 123.108398438 c 4,2,3
 89.13671875 158.329101562 89.13671875 158.329101562 105.715820312 197.834960938 c 4,4,5
 111.752929688 212.221679688 111.752929688 212.221679688 126.229492188 229.2578125 c 132,-1,6
 140.706054688 246.29296875 140.706054688 246.29296875 148.809570312 255.17578125 c 132,-1,7
 156.912109375 264.05859375 156.912109375 264.05859375 177.212890625 279.741210938 c 132,-1,8
 197.513671875 295.422851562 197.513671875 295.422851562 204.249023438 300.168945312 c 132,-1,9
 210.985351562 304.9140625 210.985351562 304.9140625 235.477539062 321.901367188 c 132,-1,10
 259.970703125 338.888671875 259.970703125 338.888671875 275.75 350.69921875 c 132,-1,11
 291.529296875 362.509765625 291.529296875 362.509765625 342.28125 395.112304688 c 132,-1,12
 393.034179688 427.71484375 393.034179688 427.71484375 424.612304688 458.412109375 c 4,13,14
 463.875 496.579101562 463.875 496.579101562 463.875 550.524414062 c 4,15,16
 463.875 597.536132812 463.875 597.536132812 436.456054688 614.588867188 c 132,-1,17
 409.036132812 631.641601562 409.036132812 631.641601562 363.791015625 630.981445312 c 132,-1,18
 318.546875 630.322265625 318.546875 630.322265625 295.83984375 614.94921875 c 5,19,20
 298.548828125 597.454101562 298.548828125 597.454101562 298.548828125 580.5078125 c 4,21,22
 298.548828125 521.729492188 298.548828125 521.729492188 267.85546875 481.12890625 c 4,23,24
 225.002929688 424.446289062 225.002929688 424.446289062 141.063476562 424.446289062 c 4,25,26
 75.7451171875 424.446289062 75.7451171875 424.446289062 42.6025390625 476.575195312 c 4,27,28
 21.095703125 510.401367188 21.095703125 510.401367188 20 556.934570312 c 132,-1,29
 18.904296875 603.46875 18.904296875 603.46875 34.8251953125 644.102539062 c 4,30,31
 41.900390625 664.108398438 41.900390625 664.108398438 60.013671875 664.108398438 c 132,-1,32
 78.1279296875 664.108398438 78.1279296875 664.108398438 87.447265625 651.685546875 c 132,-1,33
 96.767578125 639.262695312 96.767578125 639.262695312 91.4091796875 624.114257812 c 4,34,35
 67.3857421875 556.192382812 67.3857421875 556.192382812 93.2724609375 508.704101562 c 4,36,37
 108.696289062 484.446289062 108.696289062 484.446289062 141.063476562 484.446289062 c 4,38,39
 195.15625 484.446289062 195.15625 484.446289062 219.96484375 517.262695312 c 4,40,41
 238.548828125 541.845703125 238.548828125 541.845703125 238.548828125 570.78125 c 132,-1,42
 238.548828125 599.716796875 238.548828125 599.716796875 234.05078125 618.780273438 c 132,-1,43
 229.551757812 637.84375 229.551757812 637.84375 243.107421875 649.750976562 c 4,44,45
 291.10546875 691.912109375 291.10546875 691.912109375 362.545898438 691.912109375 c 4,46,47
 425.735351562 691.912109375 425.735351562 691.912109375 465.530273438 667.162109375 c 4,48,49
 523.875 630.875 523.875 630.875 523.875 550.524414062 c 4,50,51
 523.875 509.40234375 523.875 509.40234375 505.056640625 467.3515625 c 4,52,53
 497.8359375 451.216796875 497.8359375 451.216796875 482.396484375 433.356445312 c 132,-1,54
 466.95703125 415.497070312 466.95703125 415.497070312 456.971679688 405.317382812 c 132,-1,55
 446.986328125 395.13671875 446.986328125 395.13671875 425.7421875 379.59765625 c 132,-1,56
 404.499023438 364.05859375 404.499023438 364.05859375 395.583984375 358.1875 c 132,-1,57
 386.669921875 352.31640625 386.669921875 352.31640625 356.185546875 332.734375 c 132,-1,58
 325.701171875 313.151367188 325.701171875 313.151367188 310.348632812 301.659179688 c 132,-1,59
 294.99609375 290.16796875 294.99609375 290.16796875 250.26171875 259.142578125 c 132,-1,60
 205.526367188 228.1171875 205.526367188 228.1171875 177.452148438 197.272460938 c 132,-1,61
 149.377929688 166.427734375 149.377929688 166.427734375 149.377929688 124.369140625 c 4,62,63
 149.377929688 107.65625 149.377929688 107.65625 154.846679688 96.10546875 c 4,64,65
 171.985351562 59.9150390625 171.985351562 59.9150390625 254.157226562 59.9150390625 c 4,66,67
 306.286132812 59.9150390625 306.286132812 59.9150390625 349.1328125 83.3203125 c 132,-1,68
 391.978515625 106.725585938 391.978515625 106.725585938 440.926757812 166.380859375 c 4,69,70
 448.890625 176.087890625 448.890625 176.087890625 462.004882812 177.055664062 c 132,-1,71
 475.119140625 178.0234375 475.119140625 178.0234375 486.883789062 167.061523438 c 132,-1,72
 498.6484375 156.099609375 498.6484375 156.099609375 526.537109375 123.184570312 c 132,-1,73
 554.42578125 90.2685546875 554.42578125 90.2685546875 583.15625 75.7294921875 c 132,-1,74
 611.88671875 61.19140625 611.88671875 61.19140625 674.452148438 59.9697265625 c 132,-1,75
 737.017578125 58.748046875 737.017578125 58.748046875 792.697265625 85.845703125 c 4,76,77
 882.548828125 129.572265625 882.548828125 129.572265625 882.548828125 214.0234375 c 4,78,79
 882.548828125 245.884765625 882.548828125 245.884765625 871.618164062 272.408203125 c 132,-1,80
 860.6875 298.931640625 860.6875 298.931640625 846.979492188 309.884765625 c 132,-1,81
 833.272460938 320.837890625 833.272460938 320.837890625 833.272460938 334.258789062 c 132,-1,82
 833.272460938 347.6796875 833.272460938 347.6796875 842.063476562 356.470703125 c 132,-1,83
 850.853515625 365.26171875 850.853515625 365.26171875 862.31640625 365.26171875 c 132,-1,84
 873.778320312 365.26171875 873.778320312 365.26171875 881.978515625 358.709960938 c 4,85,86
 910.413085938 335.989257812 910.413085938 335.989257812 926.481445312 296.518554688 c 132,-1,87
 942.548828125 257.046875 942.548828125 257.046875 942.548828125 212.598632812 c 132,-1,88
 942.548828125 168.149414062 942.548828125 168.149414062 923.942382812 130.45703125 c 4,89,90
 893.309570312 68.40234375 893.309570312 68.40234375 824.423828125 34.201171875 c 132,-1,91
 755.723632812 0 755.723632812 0 677.723632812 0 c 132,-1,92
 599.723632812 0 599.723632812 0 558.221679688 21.0966796875 c 132,-1,93
 516.534179688 42.1943359375 516.534179688 42.1943359375 474.8515625 91.3857421875 c 4,94,95
 468.693359375 98.654296875 468.693359375 98.654296875 465.237304688 102.6328125 c 5,96,97
 422.254882812 55.162109375 422.254882812 55.162109375 372.133789062 27.5380859375 c 132,-1,98
 322.01171875 -0.0849609375 322.01171875 -0.0849609375 254.141601562 -0.0849609375 c 132,-1,99
 186.272460938 -0.0849609375 186.272460938 -0.0849609375 146.170898438 22.533203125 c 4,0,1
EndSplineSet
EndChar

StartChar: DiakDDHA
Encoding: 71961 71961 47
Width: 1059
Flags: W
HStem: 0 60<225.785 408.58 630.359 836.045> 347.998 60<114.655 236.303> 583.709 60.1602<293.201 373.096>
VStem: 20 60.335<440.948 540.871> 148.035 60.0117<79.7211 181.237> 267.936 60.0078<440.118 545.927> 443.65 60<402.39 525.978> 918.475 60<133.653 293.726>
LayerCount: 2
Fore
SplineSet
290.18359375 643.869140625 m 4,0,1
 359.075195312 643.869140625 359.075195312 643.869140625 431.36328125 596.765625 c 132,-1,2
 503.650390625 549.661132812 503.650390625 549.661132812 503.650390625 480.674804688 c 132,-1,3
 503.650390625 411.689453125 503.650390625 411.689453125 469.06640625 364.490234375 c 4,4,5
 444.86328125 331.458007812 444.86328125 331.458007812 371.318359375 276.40625 c 4,6,7
 348.348632812 259.212890625 348.348632812 259.212890625 307.737304688 235.672851562 c 132,-1,8
 267.125976562 212.1328125 267.125976562 212.1328125 248.206054688 198.446289062 c 132,-1,9
 229.286132812 184.759765625 229.286132812 184.759765625 218.564453125 167.930664062 c 132,-1,10
 207.84375 151.100585938 207.84375 151.100585938 208.046875 121.954101562 c 4,11,12
 208.479492188 60 208.479492188 60 312.3359375 60 c 4,13,14
 373.323242188 60 373.323242188 60 414.495117188 84.998046875 c 132,-1,15
 455.666015625 109.995117188 455.666015625 109.995117188 499.58984375 163.52734375 c 4,16,17
 508.592773438 174.49609375 508.592773438 174.49609375 521.626953125 174.49609375 c 132,-1,18
 534.662109375 174.49609375 534.662109375 174.49609375 546.41796875 163.455078125 c 132,-1,19
 558.173828125 152.415039062 558.173828125 152.415039062 580.321289062 126.885742188 c 132,-1,20
 602.46875 101.357421875 602.46875 101.357421875 613.9609375 92.126953125 c 4,21,22
 651.877929688 61.673828125 651.877929688 61.673828125 732.645507812 60.091796875 c 132,-1,23
 813.4140625 58.5087890625 813.4140625 58.5087890625 865.944335938 100.333007812 c 132,-1,24
 918.474609375 142.157226562 918.474609375 142.157226562 918.474609375 211.109375 c 4,25,26
 918.474609375 240.549804688 918.474609375 240.549804688 908.228515625 269.232421875 c 132,-1,27
 897.982421875 297.916015625 897.982421875 297.916015625 883.595703125 309.411132812 c 132,-1,28
 869.208984375 320.907226562 869.208984375 320.907226562 869.208984375 333.390625 c 132,-1,29
 869.208984375 345.875 869.208984375 345.875 876.984375 355.60546875 c 132,-1,30
 884.759765625 365.334960938 884.759765625 365.334960938 897.243164062 365.334960938 c 132,-1,31
 909.725585938 365.334960938 909.725585938 365.334960938 917.92578125 358.783203125 c 4,32,33
 978.474609375 310.403320312 978.474609375 310.403320312 978.474609375 211.818359375 c 132,-1,34
 978.474609375 113.233398438 978.474609375 113.233398438 906.1796875 55.673828125 c 132,-1,35
 833.885742188 -1.88671875 833.885742188 -1.88671875 732.05859375 0.107421875 c 132,-1,36
 630.231445312 2.1015625 630.231445312 2.1015625 576.388671875 45.345703125 c 4,37,38
 558.797851562 59.474609375 558.797851562 59.474609375 523.681640625 99.841796875 c 5,39,40
 431.111328125 0 431.111328125 0 312.3359375 0 c 4,41,42
 235.896484375 0 235.896484375 0 192.180664062 30.751953125 c 132,-1,43
 148.465820312 61.5048828125 148.465820312 61.5048828125 148.03515625 123.197265625 c 4,44,45
 147.50390625 199.651367188 147.50390625 199.651367188 219.021484375 251.38671875 c 4,46,47
 237.67578125 264.880859375 237.67578125 264.880859375 277.6328125 288.008789062 c 132,-1,48
 317.58984375 311.13671875 317.58984375 311.13671875 335.36328125 324.44140625 c 4,49,50
 401.748046875 374.131835938 401.748046875 374.131835938 422.69921875 402.725585938 c 132,-1,51
 443.650390625 431.319335938 443.650390625 431.319335938 443.650390625 482.427734375 c 4,52,53
 443.650390625 498.19140625 443.650390625 498.19140625 430.2265625 516.415039062 c 132,-1,54
 416.802734375 534.638671875 416.802734375 534.638671875 393.25 549.986328125 c 4,55,56
 343.747070312 582.244140625 343.747070312 582.244140625 293.201171875 583.708984375 c 5,57,58
 327.947265625 544.629882812 327.947265625 544.629882812 327.947265625 486.80859375 c 6,59,-1
 327.943359375 486.330078125 l 6,60,61
 327.049804688 430.2421875 327.049804688 430.2421875 283.936523438 389.120117188 c 132,-1,62
 240.82421875 347.998046875 240.82421875 347.998046875 178.655273438 347.998046875 c 132,-1,63
 116.486328125 347.998046875 116.486328125 347.998046875 68.2431640625 387.73046875 c 132,-1,64
 20 427.463867188 20 427.463867188 20 484.314453125 c 6,65,-1
 20.00390625 484.7578125 l 6,66,67
 21.48828125 585.077148438 21.48828125 585.077148438 121.3828125 622.1796875 c 4,68,69
 179.779296875 643.869140625 179.779296875 643.869140625 290.18359375 643.869140625 c 4,0,1
267.935546875 487.09375 m 4,70,71
 267.849609375 531.889648438 267.849609375 531.889648438 238.499023438 553.0703125 c 132,-1,72
 209.1484375 574.250976562 209.1484375 574.250976562 158.876953125 571.166015625 c 5,73,74
 80.8065584883 550.063265144 80.8065584883 550.063265144 80.3349609375 486.970703125 c 4,75,76
 80.1171875 457.836914062 80.1171875 457.836914062 110.6484375 432.91796875 c 132,-1,77
 141.178710938 407.998046875 141.178710938 407.998046875 177.665039062 407.998046875 c 132,-1,78
 214.151367188 407.998046875 214.151367188 407.998046875 240.765625 433.486328125 c 132,-1,79
 267.37890625 458.974609375 267.37890625 458.974609375 267.935546875 487.09375 c 4,70,71
EndSplineSet
EndChar

StartChar: DiakNNA
Encoding: 71962 71962 48
Width: 1026
Flags: W
HStem: 0 60<341.221 610.451> 309.551 60<110.395 249.68> 507.9 60<114.089 244.038> 631.798 60<171.31 361.808 604.717 787.09>
VStem: 20 60.0176<400.272 455.361> 272.662 59.9805<392.317 479.611> 875.458 60<294.06 539.889>
LayerCount: 2
Fore
SplineSet
261.267578125 631.846679688 m 0,0,1
 260.364257812 631.846679688 260.364257812 631.846679688 258.545898438 631.822265625 c 128,-1,2
 256.728515625 631.797851562 256.728515625 631.797851562 255.817382812 631.797851562 c 0,3,4
 212.084960938 631.797851562 212.084960938 631.797851562 174.778320312 612.153320312 c 128,-1,5
 137.470703125 592.508789062 137.470703125 592.508789062 113.319335938 557.7265625 c 1,6,7
 145.228515625 567.900390625 145.228515625 567.900390625 183.619140625 567.900390625 c 0,8,9
 220.909179688 567.900390625 220.909179688 567.900390625 254.696289062 550.434570312 c 128,-1,10
 288.483398438 532.967773438 288.483398438 532.967773438 309.563476562 503.38671875 c 0,11,12
 333.61328125 469.638671875 333.61328125 469.638671875 332.642578125 431.030273438 c 0,13,14
 331.634765625 390.921875 331.634765625 390.921875 305.208007812 360.775390625 c 0,15,16
 260.302734375 309.55078125 260.302734375 309.55078125 177.418945312 309.55078125 c 0,17,18
 112.517578125 309.55078125 112.517578125 309.55078125 66.1669921875 350.51953125 c 128,-1,19
 19.8173828125 391.489257812 19.8173828125 391.489257812 20 454.50390625 c 0,20,21
 20.001953125 454.94140625 20.001953125 454.94140625 20.0146484375 455.375 c 0,22,23
 23.177734375 555.723632812 23.177734375 555.723632812 90.8974609375 623.706054688 c 128,-1,24
 158.6171875 691.688476562 158.6171875 691.688476562 255.540039062 691.797851562 c 0,25,26
 398.499023438 694.25 398.499023438 694.25 485.817382812 586.26953125 c 1,27,28
 522.084960938 635.329101562 522.084960938 635.329101562 576.850585938 663.563476562 c 128,-1,29
 631.616210938 691.797851562 631.616210938 691.797851562 688.977539062 691.797851562 c 0,30,31
 823.384765625 691.797851562 823.384765625 691.797851562 888.381835938 600.030273438 c 0,32,33
 935.458007812 533.564453125 935.458007812 533.564453125 935.458007812 430.825195312 c 0,34,35
 935.458007812 328.77734375 935.458007812 328.77734375 898.598632812 246.606445312 c 128,-1,36
 861.740234375 164.436523438 861.740234375 164.436523438 796.641601562 111.079101562 c 128,-1,37
 731.543945312 57.7216796875 731.543945312 57.7216796875 643.866210938 29.22265625 c 128,-1,38
 556.189453125 0.7236328125 556.189453125 0.7236328125 453.249023438 0.5283203125 c 0,39,40
 446.946289062 0 446.946289062 0 439.958984375 0 c 0,41,42
 397.2109375 0 397.2109375 0 343.908203125 17.1044921875 c 0,43,44
 300.708007812 30.966796875 300.708007812 30.966796875 270.393554688 50.4921875 c 0,45,46
 256.607421875 59.37109375 256.607421875 59.37109375 256.607421875 75.7314453125 c 0,47,48
 256.607421875 88.1494140625 256.607421875 88.1494140625 265.3984375 96.9404296875 c 128,-1,49
 274.189453125 105.731445312 274.189453125 105.731445312 286.607421875 105.731445312 c 0,50,51
 295.430664062 105.731445312 295.430664062 105.731445312 302.821289062 100.970703125 c 0,52,53
 326.5078125 85.7138671875 326.5078125 85.7138671875 362.237304688 74.248046875 c 0,54,55
 406.638671875 60 406.638671875 60 439.958984375 60 c 0,56,57
 442.3359375 60 442.3359375 60 446.140625 60.263671875 c 128,-1,58
 449.944335938 60.52734375 449.944335938 60.52734375 451.8828125 60.52734375 c 0,59,60
 611.15234375 60.52734375 611.15234375 60.52734375 721.459960938 130.590820312 c 0,61,62
 875.458007812 228.405273438 875.458007812 228.405273438 875.458007812 430.825195312 c 0,63,64
 875.458007812 514.478515625 875.458007812 514.478515625 839.385742188 565.407226562 c 0,65,66
 792.362304688 631.797851562 792.362304688 631.797851562 688.977539062 631.797851562 c 0,67,68
 637.497070312 631.797851562 637.497070312 631.797851562 587.948242188 600.329101562 c 128,-1,69
 538.399414062 568.861328125 538.399414062 568.861328125 514.764648438 518.215820312 c 0,70,71
 506.673828125 500.875976562 506.673828125 500.875976562 487.563476562 500.875976562 c 0,72,73
 470.28515625 500.875976562 470.28515625 500.875976562 461.596679688 515.8515625 c 0,74,75
 394.287109375 631.846679688 394.287109375 631.846679688 261.267578125 631.846679688 c 0,0,1
272.662109375 432.563476562 m 128,-1,77
 273.127929688 451.138671875 273.127929688 451.138671875 260.668945312 468.622070312 c 0,78,79
 248.462890625 485.750976562 248.462890625 485.750976562 227.05078125 496.826171875 c 128,-1,80
 205.638671875 507.900390625 205.638671875 507.900390625 183.619140625 507.900390625 c 0,81,82
 129.090820312 507.900390625 129.090820312 507.900390625 99.8603515625 484.056640625 c 0,83,84
 85.5888671875 472.416015625 85.5888671875 472.416015625 81.0771484375 455.53125 c 0,85,86
 80.640625 453.890625 80.640625 453.890625 80.017578125 452.3125 c 0,87,88
 80.755859375 416.986328125 80.755859375 416.986328125 107.93359375 393.268554688 c 128,-1,89
 135.110351562 369.55078125 135.110351562 369.55078125 177.418945312 369.55078125 c 0,90,91
 202.328125 369.55078125 202.328125 369.55078125 225.216796875 378.094726562 c 128,-1,92
 248.10546875 386.639648438 248.10546875 386.639648438 260.079101562 400.297851562 c 128,-1,76
 272.19921875 414.125 272.19921875 414.125 272.662109375 432.563476562 c 128,-1,77
EndSplineSet
EndChar

StartChar: DiakTA
Encoding: 71963 71963 49
Width: 647
Flags: W
HStem: 0 60<143.317 387.966> 249.121 60.248<150.116 259.775> 417.654 60<198.294 336.863> 632 60<141.202 293.871>
VStem: 358.387 60<473.514 570.422> 498.582 60<158.354 350.121>
LayerCount: 2
Fore
SplineSet
415.666015625 461.568359375 m 1,0,1
 558.58203125 419.438476562 558.58203125 419.438476562 558.58203125 254.947265625 c 0,2,3
 558.58203125 129.259765625 558.58203125 129.259765625 476.752929688 64.6298828125 c 128,-1,4
 394.923828125 0 394.923828125 0 260.43359375 0 c 0,5,6
 193.40234375 0 193.40234375 0 148.225585938 15.9033203125 c 128,-1,7
 103.048828125 31.8076171875 103.048828125 31.8076171875 33.71875 76.5390625 c 0,8,9
 20 85.388671875 20 85.388671875 20 98.0029296875 c 128,-1,10
 20 110.616210938 20 110.616210938 26.8125 121.173828125 c 128,-1,11
 33.625 131.731445312 33.625 131.731445312 46.2373046875 131.731445312 c 128,-1,12
 58.849609375 131.731445312 58.849609375 131.731445312 66.248046875 126.95703125 c 0,13,14
 134.17578125 83.1298828125 134.17578125 83.1298828125 166.236328125 71.5654296875 c 128,-1,15
 198.296875 60 198.296875 60 260.43359375 60 c 0,16,17
 374.086914062 60 374.086914062 60 436.333984375 109.165039062 c 128,-1,18
 498.58203125 158.331054688 498.58203125 158.331054688 498.58203125 254.947265625 c 0,19,20
 498.58203125 304.467773438 498.58203125 304.467773438 485.74609375 334.099609375 c 0,21,22
 463.87890625 384.583007812 463.87890625 384.583007812 398.748046875 403.5546875 c 1,23,24
 368.25 333.372070312 368.25 333.372070312 310.4375 292.625 c 128,-1,25
 252.625976562 251.877929688 252.625976562 251.877929688 197.055664062 249.12109375 c 128,-1,26
 141.485351562 246.364257812 141.485351562 246.364257812 108.680664062 286.794921875 c 128,-1,27
 75.8759765625 327.2265625 75.8759765625 327.2265625 88.20703125 363.685546875 c 128,-1,28
 100.538085938 400.143554688 100.538085938 400.143554688 135.107421875 426.96875 c 0,29,30
 200.423828125 477.654296875 200.423828125 477.654296875 275.228515625 477.654296875 c 0,31,32
 319.939453125 477.654296875 319.939453125 477.654296875 356.62890625 473.19140625 c 1,33,34
 358.38671875 484.784179688 358.38671875 484.784179688 358.38671875 495.712890625 c 0,35,36
 358.38671875 555.49609375 358.38671875 555.49609375 316.215820312 593.748046875 c 128,-1,37
 274.045898438 632 274.045898438 632 209.0703125 632 c 0,38,39
 173.020507812 632 173.020507812 632 141.778320312 611 c 128,-1,40
 110.536132812 590.000976562 110.536132812 590.000976562 103.521484375 554.771484375 c 0,41,42
 101.450195312 544.368164062 101.450195312 544.368164062 93.193359375 537.5 c 128,-1,43
 84.9365234375 530.631835938 84.9365234375 530.631835938 78.037109375 530.631835938 c 128,-1,44
 71.1376953125 530.631835938 71.1376953125 530.631835938 64.4873046875 531.956054688 c 128,-1,45
 57.8369140625 533.28125 57.8369140625 533.28125 50.9677734375 541.538085938 c 128,-1,46
 44.0986328125 549.794921875 44.0986328125 549.794921875 44.0986328125 556.693359375 c 128,-1,47
 44.0986328125 563.591796875 44.0986328125 563.591796875 44.67578125 566.48828125 c 0,48,49
 56.5224609375 625.984375 56.5224609375 625.984375 105.625976562 658.9921875 c 128,-1,50
 154.73046875 692 154.73046875 692 209.0703125 692 c 0,51,52
 295.791015625 692 295.791015625 692 357.088867188 635.665039062 c 128,-1,53
 418.38671875 579.330078125 418.38671875 579.330078125 418.38671875 495.712890625 c 0,54,55
 418.38671875 479.015625 418.38671875 479.015625 415.666015625 461.568359375 c 1,0,1
336.86328125 414.740234375 m 1,56,57
 307.5390625 417.654296875 307.5390625 417.654296875 280.502929688 417.654296875 c 128,-1,58
 253.467773438 417.654296875 253.467773438 417.654296875 222.9375 406.5703125 c 128,-1,59
 192.407226562 395.485351562 192.407226562 395.485351562 171.999023438 379.6484375 c 0,60,61
 134.326171875 350.415039062 134.326171875 350.415039062 151.616210938 329.10546875 c 128,-1,62
 168.90625 307.796875 168.90625 307.796875 200.592773438 309.369140625 c 128,-1,63
 232.278320312 310.942382812 232.278320312 310.942382812 271.98828125 338.930664062 c 128,-1,64
 311.698242188 366.918945312 311.698242188 366.918945312 336.86328125 414.740234375 c 1,56,57
EndSplineSet
EndChar

StartChar: DiakTHA
Encoding: 71964 71964 50
Width: 876
Flags: W
HStem: -24.9951 50.9902<160.171 363.891> 212.593 50.9902<345.562 439.061>
VStem: -28.4931 52.5156<443.31 507.379> 196.483 50.9902<318.907 418.6> 262.953 50.8887<83.3276 180.858> 451.042 50.9902<90.3359 200.42>
LayerCount: 2
Fore
SplineSet
80.650390625 629.10546875 m 1,0,-1
 78.9130859375 672.756835938 l 2,1,2
 78.4345703125 684.77734375 78.4345703125 684.77734375 69.7314453125 693.162109375 c 128,-1,3
 61.0283203125 701.545898438 61.0283203125 701.545898438 48.6298828125 701.545898438 c 128,-1,4
 36.2314453125 701.545898438 36.2314453125 701.545898438 27.3388671875 692.404296875 c 128,-1,5
 18.447265625 683.262695312 18.447265625 683.262695312 18.9619140625 670.334960938 c 2,6,-1
 22.818359375 573.420898438 l 2,7,8
 23.296875 561.400390625 23.296875 561.400390625 32 553.015625 c 128,-1,9
 40.703125 544.631835938 40.703125 544.631835938 51.4140625 544.631835938 c 128,-1,10
 62.1240234375 544.631835938 62.1240234375 544.631835938 69.787109375 549.911132812 c 0,11,12
 188.758789062 631.890625 188.758789062 631.890625 248.338867188 631.890625 c 0,13,14
 295.1328125 631.890625 295.1328125 631.890625 322.340820312 591.99609375 c 128,-1,15
 349.548828125 552.1015625 349.548828125 552.1015625 349.548828125 511.599609375 c 0,16,17
 349.548828125 474.130859375 349.548828125 474.130859375 327.450195312 437.838867188 c 128,-1,18
 305.350585938 401.547851562 305.350585938 401.547851562 290.393554688 383.862304688 c 128,-1,19
 275.436523438 366.176757812 275.436523438 366.176757812 251.190429688 349.307617188 c 128,-1,20
 226.9453125 332.439453125 226.9453125 332.439453125 209.283203125 322.083984375 c 128,-1,21
 191.62109375 311.728515625 191.62109375 311.728515625 160.006835938 298.798828125 c 0,22,23
 119.407226562 282.194335938 119.407226562 282.194335938 83.4755859375 270.006835938 c 128,-1,24
 47.5439453125 257.819335938 47.5439453125 257.819335938 43.4833984375 256.438476562 c 0,25,26
 30.2021484375 251.920898438 30.2021484375 251.920898438 25.0751953125 238.217773438 c 128,-1,27
 19.94921875 224.514648438 19.94921875 224.514648438 28.1748046875 211.391601562 c 0,28,29
 169.424804688 0 169.424804688 0 407.545898438 0 c 0,30,31
 499.840820312 0 499.840820312 0 589.091796875 43.6103515625 c 128,-1,32
 678.342773438 87.2216796875 678.342773438 87.2216796875 737.08203125 161.385742188 c 128,-1,33
 795.821289062 235.55078125 795.821289062 235.55078125 795.821289062 314.467773438 c 128,-1,34
 795.821289062 393.384765625 795.821289062 393.384765625 761.54296875 442.086914062 c 128,-1,35
 727.265625 490.7890625 727.265625 490.7890625 664.909179688 490.7890625 c 0,36,37
 619.185546875 490.7890625 619.185546875 490.7890625 578.068359375 468.866210938 c 128,-1,38
 536.951171875 446.942382812 536.951171875 446.942382812 508.474609375 405.897460938 c 0,39,40
 459.818359375 335.765625 459.818359375 335.765625 459.818359375 228.69140625 c 0,41,42
 459.818359375 169.487304688 459.818359375 169.487304688 470.340820312 159.951171875 c 128,-1,43
 480.86328125 150.4140625 480.86328125 150.4140625 493.233398438 150.4140625 c 128,-1,44
 505.603515625 150.4140625 505.603515625 150.4140625 514.647460938 160.169921875 c 128,-1,45
 523.69140625 169.924804688 523.69140625 169.924804688 521.754882812 188.41015625 c 128,-1,46
 519.818359375 206.895507812 519.818359375 206.895507812 519.818359375 228.69140625 c 0,47,48
 519.818359375 295.903320312 519.818359375 295.903320312 541.0234375 341.708007812 c 0,49,50
 582.262695312 430.7890625 582.262695312 430.7890625 664.909179688 430.7890625 c 0,51,52
 696.130859375 430.7890625 696.130859375 430.7890625 715.9765625 402.592773438 c 128,-1,53
 735.821289062 374.396484375 735.821289062 374.396484375 735.821289062 315.407226562 c 128,-1,54
 735.821289062 256.41796875 735.821289062 256.41796875 688.143554688 196.219726562 c 128,-1,55
 640.46484375 136.020507812 640.46484375 136.020507812 562.677734375 98.0107421875 c 128,-1,56
 484.890625 60 484.890625 60 407.545898438 60 c 0,57,58
 219.404296875 60 219.404296875 60 101.133789062 212.622070312 c 1,59,60
 245.7109375 262.021484375 245.7109375 262.021484375 308.052734375 317.362304688 c 0,61,62
 373.155273438 375.153320312 373.155273438 375.153320312 401.321289062 459.434570312 c 0,63,64
 409.548828125 484.051757812 409.548828125 484.051757812 409.548828125 517.374023438 c 128,-1,65
 409.548828125 550.6953125 409.548828125 550.6953125 393.759765625 587.724609375 c 128,-1,66
 377.970703125 624.75390625 377.970703125 624.75390625 347.952148438 652.452148438 c 0,67,68
 305.2109375 691.890625 305.2109375 691.890625 242.856445312 691.890625 c 128,-1,69
 180.501953125 691.890625 180.501953125 691.890625 80.650390625 629.10546875 c 1,0,-1
EndSplineSet
EndChar

StartChar: DiakDA
Encoding: 71965 71965 51
Width: 681
Flags: W
HStem: -0.0224609 60.0225<49.564 393.431> 18.3057 58.3379<46.7025 167.509> 601.87 59.9355<29.0666 329.808> 631.938 59.9365<267.875 485.201>
VStem: 77.2764 60<308.1 355.078> 494.093 59.9746<539.028 618.004> 523.745 60<134.697 233.085>
LayerCount: 2
Fore
SplineSet
168.36328125 0 m 0,0,1
 134.201171875 0 134.201171875 0 58.1474609375 18.3056640625 c 0,2,3
 48.1708984375 20.7060546875 48.1708984375 20.7060546875 41.6767578125 28.8408203125 c 128,-1,4
 35.1826171875 36.974609375 35.1826171875 36.974609375 35.1826171875 47.474609375 c 0,5,6
 35.1826171875 61.6396484375 35.1826171875 61.6396484375 46.3525390625 70.91015625 c 128,-1,7
 57.5234375 80.1806640625 57.5234375 80.1806640625 72.2177734375 76.6435546875 c 0,8,9
 141.366210938 60 141.366210938 60 168.36328125 60 c 0,10,11
 292.373046875 60 292.373046875 60 353.654296875 69.5869140625 c 0,12,13
 429.025390625 81.3759765625 429.025390625 81.3759765625 471.284179688 108.022460938 c 0,14,15
 493.985351562 122.334960938 493.985351562 122.334960938 506.678710938 140.79296875 c 0,16,17
 523.745117188 165.608398438 523.745117188 165.608398438 523.745117188 199.9375 c 0,18,19
 523.745117188 215.119140625 523.745117188 215.119140625 517.8359375 225.549804688 c 0,20,21
 509.377929688 240.482421875 509.377929688 240.482421875 486.352539062 249.2578125 c 0,22,23
 430.584960938 270.513671875 430.584960938 270.513671875 302.787109375 251.711914062 c 0,24,25
 178.840820312 233.478515625 178.840820312 233.478515625 130.205078125 249.302734375 c 0,26,27
 101.29296875 258.708984375 101.29296875 258.708984375 87.6767578125 279.443359375 c 0,28,29
 77.2763671875 295.279296875 77.2763671875 295.279296875 77.2763671875 315.447265625 c 0,30,31
 77.2763671875 377.247070312 77.2763671875 377.247070312 139.833007812 415.000976562 c 0,32,33
 157.821289062 425.857421875 157.821289062 425.857421875 182.24609375 435.27734375 c 128,-1,34
 206.669921875 444.696289062 206.669921875 444.696289062 221.13671875 448.899414062 c 128,-1,35
 235.602539062 453.1015625 235.602539062 453.1015625 270.18359375 461.625 c 128,-1,36
 304.765625 470.1484375 304.765625 470.1484375 312.90234375 472.272460938 c 0,37,38
 393.502929688 493.315429688 393.502929688 493.315429688 417.032226562 503.162109375 c 0,39,40
 452.338867188 517.938476562 452.338867188 517.938476562 471.080078125 536.991210938 c 0,41,42
 495.12890625 561.439453125 495.12890625 561.439453125 494.092773438 597.099609375 c 0,43,44
 493.766601562 608.305664062 493.766601562 608.305664062 472.590820312 618.005859375 c 0,45,46
 442.173828125 631.938476562 442.173828125 631.938476562 402.916992188 631.938476562 c 0,47,48
 374.618164062 631.938476562 374.618164062 631.938476562 307.401367188 617.890625 c 0,49,50
 238.880859375 603.5703125 238.880859375 603.5703125 201.883789062 601.870117188 c 0,51,52
 128.380859375 598.491210938 128.380859375 598.491210938 49.9150390625 598.708984375 c 0,53,54
 37.5244140625 598.743164062 37.5244140625 598.743164062 28.7626953125 607.528320312 c 128,-1,55
 20 616.313476562 20 616.313476562 20 628.708984375 c 128,-1,56
 20 641.126953125 20 641.126953125 28.791015625 649.91796875 c 128,-1,57
 37.58203125 658.708984375 37.58203125 658.708984375 50 658.708984375 c 0,58,59
 131.640625 658.706054688 131.640625 658.706054688 199.086914062 661.805664062 c 0,60,61
 230.962890625 663.271484375 230.962890625 663.271484375 296.920898438 677.069335938 c 128,-1,62
 362.87890625 690.868164062 362.87890625 690.868164062 398.325195312 691.875 c 0,63,64
 469.872070312 693.909179688 469.872070312 693.909179688 517.086914062 661.645507812 c 0,65,66
 552.956054688 637.134765625 552.956054688 637.134765625 554.067382812 598.869140625 c 0,67,68
 555.844726562 537.618164062 555.844726562 537.618164062 513.84765625 494.92578125 c 0,69,70
 486.596679688 467.223632812 486.596679688 467.223632812 440.155273438 447.787109375 c 0,71,72
 412.748046875 436.31640625 412.748046875 436.31640625 328.080078125 414.211914062 c 0,73,74
 321.202148438 412.416015625 321.202148438 412.416015625 295.709960938 405.981445312 c 128,-1,75
 270.217773438 399.545898438 270.217773438 399.545898438 258.600585938 396.298828125 c 128,-1,76
 246.984375 393.051757812 246.984375 393.051757812 227.591796875 387.202148438 c 128,-1,77
 208.200195312 381.353515625 208.200195312 381.353515625 194.702148438 375.62109375 c 128,-1,78
 181.204101562 369.889648438 181.204101562 369.889648438 170.770507812 363.592773438 c 0,79,80
 137.276367188 343.37890625 137.276367188 343.37890625 137.276367188 315.447265625 c 0,81,82
 137.276367188 313.2109375 137.276367188 313.2109375 137.865234375 312.318359375 c 0,83,84
 139.865234375 309.267578125 139.865234375 309.267578125 148.76171875 306.373046875 c 0,85,86
 164.530273438 301.243164062 164.530273438 301.243164062 192.890625 301.243164062 c 0,87,88
 227.19921875 301.243164062 227.19921875 301.243164062 293.994140625 311.071289062 c 0,89,90
 359.318359375 320.680664062 359.318359375 320.680664062 405.772460938 320.680664062 c 0,91,92
 532.90625 320.680664062 532.90625 320.680664062 570.079101562 255.059570312 c 0,93,94
 583.745117188 230.9375 583.745117188 230.9375 583.745117188 199.9375 c 0,95,96
 583.745117188 136.8359375 583.745117188 136.8359375 544.838867188 92.30078125 c 0,97,98
 497.372070312 37.96875 497.372070312 37.96875 393.931640625 15.9833984375 c 0,99,100
 318.622070312 -0.0224609375 318.622070312 -0.0224609375 192.62109375 -0.0224609375 c 0,101,102
 188.452148438 -0.0224609375 188.452148438 -0.0224609375 180.393554688 -0.01171875 c 128,-1,103
 172.333984375 0 172.333984375 0 168.36328125 0 c 0,0,1
EndSplineSet
EndChar

